<svg width="1920" height="320" viewBox="0 0 1920 320" fill="none" xmlns="http://www.w3.org/2000/svg">
<rect width="1920" height="320" fill="#FFF3E5"/>
<path d="M742.231 170.626L741.012 180.376L737.988 204.615H676.87C677.367 199.199 677.999 191.344 678.676 182.903C678.766 182.046 678.811 181.233 678.901 180.376C680.662 159.16 682.558 135.146 682.558 135.146L690.592 136.636L706.165 139.525L712.53 140.699L729.547 143.858C738.033 145.438 743.856 157.716 742.231 170.626Z" fill="#F2F2F2"/>
<path d="M696.009 95.875L703.547 109.01L689.103 119.257L682.919 103.097L696.009 95.875Z" fill="#FFB6B6"/>
<path d="M686.44 108.288C696.71 108.288 705.037 99.9619 705.037 89.691C705.037 79.42 696.71 71.0938 686.44 71.0938C676.169 71.0938 667.842 79.42 667.842 89.691C667.842 99.9619 676.169 108.288 686.44 108.288Z" fill="#FFB6B6"/>
<path d="M685.13 93.844C683.641 91.587 684.228 90.4134 683.009 89.6009C683.009 89.6009 682.512 89.2849 678.946 89.0593C678.134 83.3266 677.141 82.6044 677.141 82.6044C676.012 81.7919 674.297 82.0627 673.214 82.5593C670.957 83.5974 671.228 85.8544 669.738 86.2606C667.662 86.8474 663.87 83.5072 663.464 79.6704C663.148 76.5558 665.179 73.5315 665.946 73.6669C666.759 73.8474 668.61 71.4099 669.648 71.4551C670.325 71.5002 673.214 70.2363 673.981 70.3266C674.839 70.4169 677.592 71.8613 677.683 71.5454C678.495 69.2433 678.269 68.6113 678.946 67.9794C680.165 66.8058 682.106 67.6183 685.221 68.0697C691.585 68.9724 692.669 66.8509 695.919 68.2954C697.544 69.0176 698.943 70.9586 701.606 74.7954C705.353 80.1669 707.248 82.8301 707.248 85.9898C707.248 89.1947 705.714 88.969 705.037 93.7086C704.269 98.9898 705.894 101.382 704.134 103.097C702.78 104.406 700.026 104.722 698.582 103.594C696.099 101.608 699.349 96.8231 696.596 93.3023C694.926 91.1356 691.54 90.1877 689.96 91.2711C688.2 92.4898 689.193 96.0106 687.929 96.3266C686.936 96.5974 685.356 94.2502 685.13 93.844Z" fill="#2F2E41"/>
<path d="M728.509 167.149C727.967 176.042 725.936 178.84 725.214 189.313C725.078 191.615 724.943 194.278 724.943 197.483C724.943 198.295 724.943 199.063 724.943 199.83C724.943 201.455 724.898 202.99 724.717 204.569C724.582 205.833 724.311 207.097 723.905 208.406H683.821C683.821 208.406 683.821 208.406 683.821 208.361C683.596 207.323 683.46 206.375 683.325 205.427C683.28 205.111 683.234 204.84 683.234 204.524C683.189 204.163 683.144 203.847 683.144 203.531C683.009 202.222 682.918 200.958 682.603 199.785C682.196 198.16 681.519 196.58 680.075 195.09C679.488 194.458 678.901 194.007 678.314 193.601C678.224 193.51 678.089 193.465 677.998 193.375C676.418 192.292 674.884 191.479 673.575 189.267C673.575 189.222 673.53 189.222 673.53 189.177C673.304 188.771 672.717 187.733 672.311 186.379C671.859 184.934 671.589 183.174 672.085 181.323C673.259 176.99 677.547 176.538 681.068 172.16C681.429 171.708 681.835 171.167 682.196 170.58C683.776 168.007 684.228 165.705 684.724 162.997C684.814 162.545 684.859 162.139 684.95 161.688C684.995 161.372 685.04 161.056 685.085 160.74C685.356 158.167 685.221 155.955 684.905 153.969C683.821 147.469 680.662 143.451 682.918 137.583C683.641 135.733 684.634 134.379 685.627 133.205C687.748 130.722 689.96 129.097 689.554 125.847C689.148 122.597 686.71 122.146 686.439 119.302C686.304 117.858 686.755 116.368 687.658 114.878C690.457 110.094 697.498 105.715 701.967 105.851C702.78 105.896 703.547 106.076 704.134 106.392C706.346 107.701 705.443 110.545 708.783 114.517C711.311 117.451 714.155 118.67 715.238 119.212C719.526 121.424 723.002 128.014 725.349 136.41C725.349 136.455 725.394 136.545 725.394 136.59C726.839 141.872 727.877 147.83 728.373 153.924C728.599 156.497 728.734 159.069 728.734 161.642C728.644 163.809 728.599 165.569 728.509 167.149Z" fill="#FF9C30"/>
<path d="M698.447 197.573L697.634 199.875L697.138 201.275L695.919 204.615L694.565 208.452H685.672L687.162 204.615L687.839 202.809L689.013 199.875L690.908 194.91L698.447 197.573Z" fill="#FFB6B6"/>
<path d="M725.304 135.778C725.304 136.094 725.259 136.41 725.214 136.771C724.853 140.337 724.04 146.747 722.822 154.104C722.19 157.941 721.422 162.094 720.565 166.157C718.759 174.959 716.502 183.67 713.929 189.358C713.478 190.396 713.026 191.299 712.53 192.157C712.169 192.789 711.762 193.42 711.401 194.007C710.092 195.993 708.648 197.889 707.113 199.695C707.068 199.785 706.978 199.83 706.933 199.92C706.707 200.191 706.436 200.507 706.165 200.778C704.947 202.177 703.683 203.486 702.464 204.66C700.974 206.104 699.53 207.414 698.266 208.497H683.867L683.822 208.452L681.745 207.549C681.745 207.549 682.332 206.872 683.325 205.563C683.551 205.292 683.731 205.021 684.002 204.66C684.273 204.254 684.589 203.848 684.95 203.351C685.627 202.358 686.44 201.229 687.297 199.92C688.922 197.393 690.818 194.278 692.714 190.667C692.94 190.261 693.165 189.809 693.391 189.403V189.358C693.752 188.636 694.158 187.868 694.519 187.101C697.679 180.556 698.537 175.139 698.808 173.424C699.169 170.941 699.665 167.466 699.53 163.629C699.44 161.101 699.078 158.438 698.221 155.82C698.04 155.278 697.815 154.691 697.589 154.15C697.183 153.157 696.686 152.164 696.099 151.216C693.572 146.973 691.495 146.792 689.825 142.188C689.328 140.834 688.245 137.719 688.561 134.469C688.606 134.063 688.651 133.657 688.742 133.25C688.742 133.16 688.787 133.025 688.832 132.889C689.103 131.896 689.509 130.903 690.141 129.955C691.405 128.15 693.12 127.066 694.655 126.389C696.415 125.667 697.95 125.486 698.266 125.486C704.856 124.9 709.957 130.452 712.756 133.476C713.839 134.65 714.832 135.643 715.735 136.41C722.776 142.684 724.672 138.667 725.169 136.591C725.259 136.229 725.304 135.959 725.304 135.778Z" fill="#FF9C30"/>
<path d="M689.509 230.795H447.564C445.308 230.795 443.502 232.6 443.502 234.857C443.502 237.114 445.353 238.92 447.564 238.92H689.509C691.766 238.92 693.571 237.114 693.571 234.857C693.571 232.646 691.721 230.795 689.509 230.795Z" fill="#E6E6E6"/>
<path d="M635.793 251.875H501.234C498.977 251.875 497.172 253.681 497.172 255.938C497.172 258.194 498.977 260 501.234 260H635.793C638.05 260 639.856 258.149 639.856 255.938C639.856 253.726 638.05 251.875 635.793 251.875Z" fill="#E6E6E6"/>
<path d="M474.467 96.732L489.724 90.3223L496.224 103.729L480.2 110.274L474.467 96.732Z" fill="#FFB6B6"/>
<path opacity="0.1" d="M474.467 96.732L489.724 90.3223L496.224 103.729L480.2 110.274L474.467 96.732Z" fill="black"/>
<path d="M476.633 91.6313L491.665 108.965C491.665 108.965 481.193 142.006 470.72 144.94C460.248 147.874 440.974 162.274 440.974 162.274L416.779 146.565L428.561 129.232C428.561 129.232 456.998 90.3223 464.536 90.3223C472.074 90.3223 476.633 91.6313 476.633 91.6313Z" fill="#FF9C30"/>
<path d="M456.277 204.615H421.249L419.037 201.636L410.009 189.539L407.933 186.74C407.933 186.74 400.079 172.341 401.704 159.251C403.329 146.161 420.346 143.227 420.346 143.227H421.068L441.877 161.508L440.614 178.525L447.204 189.494L456.277 204.615Z" fill="#2F2E41"/>
<path d="M428.426 204.614H419.082V190.711L428.426 204.614Z" fill="#2F2E41"/>
<path d="M630.874 183.489L629.7 189.537L626.811 204.569H568.582C569.033 201.183 569.665 196.353 570.342 191.117C570.388 190.576 570.478 190.079 570.523 189.537C572.193 176.357 573.999 161.461 573.999 161.461L581.672 162.409L596.523 164.214L602.572 164.937L618.776 166.923C626.856 167.871 632.408 175.499 630.874 183.489Z" fill="#F2F2F2"/>
<path d="M713.252 204.615H681.7C682.197 204.028 682.468 203.712 682.468 203.712L691.947 202.133L711.447 198.928C711.402 198.928 712.304 201.23 713.252 204.615Z" fill="#2F2E41"/>
<path d="M579.37 103.277L593.092 122.687L569.124 123.409L566.551 105.128L579.37 103.277Z" fill="#A0616A"/>
<path opacity="0.1" d="M579.37 103.277L593.092 122.687L569.124 123.409L566.551 105.128L579.37 103.277Z" fill="black"/>
<path d="M511.616 143.497C509.856 138.396 505.793 135.191 502.589 136.32C499.339 137.448 498.165 142.459 499.925 147.559C500.602 149.591 501.776 151.441 503.311 152.931L511.03 174.372L521.005 170.535L512.339 149.816C512.609 147.695 512.384 145.528 511.616 143.497Z" fill="#A0616A"/>
<path d="M604.557 133.611V153.382L602.707 160.694L598.915 175.726L596.162 189.538L594.085 199.83L593.363 203.531C592.821 203.892 592.28 204.253 591.693 204.615H543.846C541.137 202.99 539.603 201.726 539.603 201.726C539.603 201.726 540.37 201.003 541.228 199.875C542.672 197.979 544.432 194.819 543.349 191.84C543.123 191.208 543.078 190.441 543.123 189.583C543.575 183.941 549.488 174.417 549.488 174.417L548.269 160.288L547.728 154.104L551.519 123.906L563.842 116.729L565.964 116.503L586.953 115.375L595.62 115.872L596.026 115.962L604.557 133.611Z" fill="#FFC078"/>
<path d="M605.505 204.615H595.033L594.582 199.875V199.785L597.561 199.559L605.234 199.018L605.37 201.861L605.505 204.073V204.615Z" fill="#FFC078"/>
<path d="M608.078 138.395L612.457 164.17L608.891 189.538L608.349 193.51L607.356 200.507L607.04 202.673V202.899L607.13 204.659H594.717L594.266 199.92L594.221 199.513L593.273 189.809V189.628L591.287 169.045L595.169 154.149L595.439 153.066L597.155 127.562L595.846 115.961V115.871C595.891 115.871 595.891 115.916 595.936 115.916C596.026 115.961 596.071 116.007 596.116 116.052C603.745 120.836 608.304 129.322 608.078 138.395Z" fill="#FFC078"/>
<path d="M555.988 128.827L551.203 123.861C551.203 123.861 540.957 128.466 540.46 131.038C539.964 133.611 521.908 171.167 521.908 171.167L514.054 150.177L503.808 156.993C503.808 156.993 512.023 189.584 519.697 191.118C527.37 192.653 553.099 152.57 553.099 152.57L555.988 128.827Z" fill="#FFC078"/>
<path d="M750.04 189.312H377.915C372.634 189.312 368.346 193.601 368.346 198.882C368.346 204.163 372.634 208.451 377.915 208.451H750.085C755.367 208.451 759.655 204.163 759.655 198.882C759.655 193.601 755.322 189.312 750.04 189.312Z" fill="#E6E6E6"/>
<path d="M602.391 160.197L601.669 193.961C601.578 197.211 598.915 199.829 595.665 199.829H533.554C530.349 199.829 527.731 197.347 527.551 194.142L525.7 160.378C525.519 156.947 528.273 154.059 531.703 154.059H596.387C599.773 154.059 602.481 156.857 602.391 160.197Z" fill="#3F3D56"/>
<path d="M502.137 104.858C510.339 104.858 516.988 98.2088 516.988 90.0069C516.988 81.8051 510.339 75.1562 502.137 75.1562C493.936 75.1562 487.287 81.8051 487.287 90.0069C487.287 98.2088 493.936 104.858 502.137 104.858Z" fill="#FFB6B6"/>
<path d="M477.266 128.917L478.891 146.566L490.04 191.344L480.426 194.729L464.176 145.889L461.964 126.299L477.266 128.917Z" fill="#FFB6B6"/>
<path d="M472.842 160.197L472.12 193.961C472.029 197.211 469.366 199.829 466.116 199.829H404.005C400.8 199.829 398.182 197.347 398.002 194.142L396.151 160.378C395.97 156.947 398.724 154.059 402.154 154.059H466.838C470.224 154.059 472.932 156.857 472.842 160.197Z" fill="#3F3D56"/>
<path d="M491.801 200.101C498.282 200.101 503.537 197.777 503.537 194.91C503.537 192.043 498.282 189.719 491.801 189.719C485.319 189.719 480.064 192.043 480.064 194.91C480.064 197.777 485.319 200.101 491.801 200.101Z" fill="#FFB6B6"/>
<path d="M454.2 131.579L460.925 95.8292C460.925 95.8292 479.568 93.2112 480.2 99.4404C480.832 105.67 479.748 136.003 479.748 136.003L454.2 131.579Z" fill="#FF9C30"/>
<path d="M496.134 92.3546C496.134 92.3546 505.342 89.0594 509.224 87.299C513.106 85.5386 520.825 97.8615 520.96 91.3615C521.141 84.8615 518.478 82.1532 518.478 82.1532C518.478 82.1532 517.801 67.9344 503.492 69.6948C503.492 69.6948 506.651 62.5629 496.315 61.4795C485.978 60.3962 469.863 85.358 471.308 89.1046C472.752 92.8511 474.467 95.9205 470.405 99.9379C466.342 103.955 458.669 126.48 464.492 132.528C470.315 138.577 470.721 141.24 466.704 144.987C462.686 148.733 453.252 156.948 463.499 158.393C473.745 159.837 462.551 158.754 470.179 152.073C477.808 145.393 488.867 145.664 484.759 134.921C480.606 124.177 487.829 108.785 486.926 106.483C486.023 104.181 488.957 89.3302 488.957 89.3302C488.957 89.3302 495.638 88.2469 496.134 92.3546Z" fill="#2F2E41"/>
<path d="M572.012 110.275C580.937 110.275 588.172 103.04 588.172 94.1148C588.172 85.19 580.937 77.9551 572.012 77.9551C563.088 77.9551 555.853 85.19 555.853 94.1148C555.853 103.04 563.088 110.275 572.012 110.275Z" fill="#A0616A"/>
<path d="M573.321 72.3576C572.87 72.6284 572.238 72.2222 572.057 71.6805C571.922 71.1388 572.103 70.5972 572.238 70.1006L573.096 67.5277C573.728 65.677 574.359 63.7812 575.714 62.3819C577.745 60.2604 580.95 59.7187 583.839 60.1249C587.54 60.6215 591.241 62.6527 592.957 65.9479C594.672 69.2881 593.95 73.9375 590.835 76.0138C595.304 81.1145 596.839 86.802 596.613 93.5729C596.387 100.344 588.984 106.573 584.2 111.312C583.116 110.681 582.168 107.611 582.755 106.483C583.342 105.354 582.484 104.09 583.252 103.052C583.974 102.014 584.606 103.639 583.839 102.646C583.387 102.014 585.193 100.524 584.516 100.163C581.175 98.3125 580.047 94.1145 577.925 90.9097C575.398 87.0277 571.019 84.4097 566.415 84.0034C563.887 83.7777 561.179 84.184 559.103 85.6736C557.026 87.1631 555.672 89.7812 556.168 92.2638C554.905 91 554.318 89.1493 554.543 87.3888C554.769 85.6284 555.853 84.0034 557.387 83.1006C556.439 80.0312 557.252 76.4652 559.418 74.0729C561.585 71.6805 570.387 72.0868 573.547 72.7187C573.547 72.7638 573.321 72.3576 573.321 72.3576Z" fill="#2F2E41"/>
<path d="M573.773 84.1836C577.971 84.635 580.995 88.2461 583.523 91.6315C585.012 93.5725 586.547 95.694 586.502 98.1315C586.457 100.569 584.832 102.691 584.019 105.038C582.755 108.829 583.974 113.388 587.043 115.961C584.019 116.548 580.769 114.291 580.228 111.267C579.641 107.746 582.304 104.361 581.988 100.795C581.717 97.635 579.234 95.2426 577.113 92.8954C574.991 90.5482 573.05 87.4336 573.998 84.4544L573.773 84.1836Z" fill="#2F2E41"/>
<path d="M636.425 191.391C632.273 193.738 630.106 197.8 631.641 200.464C633.175 203.127 637.734 203.352 641.887 200.96C643.557 200.057 645.002 198.748 646.04 197.123L663.509 186.877L658.544 178.797L641.842 189.72C639.946 189.856 638.096 190.398 636.425 191.391Z" fill="#FFB6B6"/>
<path d="M695.557 116.369C695.016 116.143 690.457 114.428 686.259 116.73C681.474 119.348 680.707 125.351 680.436 127.473C679.849 132.348 681.609 133.431 681.97 138.351C682.648 147.56 684.498 137.042 681.564 141.24C680.526 142.685 670.144 165.254 664.411 169.678C653.262 178.254 646.175 184.303 646.175 184.303L654.255 193.105C654.255 193.105 667.029 189.72 678.359 182.362C689.96 174.824 695.738 171.077 700.252 163.72C700.658 163.088 709.866 147.379 704.901 130.046C703.818 126.074 701.741 118.806 695.557 116.369Z" fill="#FF9C30"/>
<path d="M737.356 160.197L736.634 193.961C736.544 197.211 733.88 199.829 730.63 199.829H668.519C665.314 199.829 662.696 197.347 662.516 194.142L660.665 160.378C660.485 156.947 663.238 154.059 666.669 154.059H731.353C734.738 154.059 737.446 156.857 737.356 160.197Z" fill="#3F3D56"/>
<path d="M1025.06 89.125H1011.4V107.938H1025.06V89.125ZM1015.34 104.781V92.25H1021.09V104.781H1015.34ZM1028.94 114.875H1032.94V100.469H1037.12V97.1562H1032.94V86.4375H1028.94V114.875ZM1051.12 86.9688C1044.83 86.9531 1040.75 89.0625 1040.75 92.5312C1040.75 95.9844 1044.83 98.0469 1051.12 98.0312C1057.45 98.0469 1061.45 95.9844 1061.47 92.5312C1061.45 89.0625 1057.45 86.9531 1051.12 86.9688ZM1038.15 102.875H1064.09V99.6875H1038.15V102.875ZM1041.15 114.562H1061V104.875H1041.15V114.562ZM1044.9 92.5312C1044.87 90.8906 1047.14 90.0625 1051.12 90.0625C1055.04 90.0625 1057.34 90.8906 1057.34 92.5312C1057.34 94.125 1055.04 94.9375 1051.12 94.9375C1047.14 94.9375 1044.87 94.125 1044.9 92.5312ZM1045.09 111.375V108.031H1057.09V111.375H1045.09ZM1089.62 86.4375H1085.59V114.938H1089.62V86.4375ZM1066.65 98.5625C1066.64 104.812 1069.81 108.719 1074.19 108.719C1078.47 108.719 1081.65 104.812 1081.65 98.5625C1081.65 92.3594 1078.47 88.4375 1074.19 88.4375C1069.81 88.4375 1066.64 92.3594 1066.65 98.5625ZM1070.5 98.5625C1070.48 94.3438 1071.97 92.0312 1074.19 92.0312C1076.34 92.0312 1077.79 94.3438 1077.81 98.5625C1077.79 102.797 1076.34 105.109 1074.19 105.094C1071.97 105.109 1070.48 102.797 1070.5 98.5625ZM1115.34 88.2812H1101.69V100.75H1115.34V88.2812ZM1103.37 111.719L1104.81 114.75C1109.36 114.172 1112.54 112.391 1114.17 109.953C1115.81 112.391 1119.03 114.203 1123.59 114.812L1125 111.781C1119.95 111.109 1117.12 109 1116.47 106.875H1123.75V103.719H1104.59V106.875H1111.9C1111.26 109.062 1108.48 111.094 1103.37 111.719ZM1105.62 97.5938V91.4375H1111.4V97.5938H1105.62ZM1119.4 102.375H1123.4V95.875H1127.25V92.625H1123.4V86.4375H1119.4V102.375ZM1151.59 94.1875H1135.69V87.4375H1131.72V97.3125H1151.59V94.1875ZM1128.47 103.5H1154.5V100.375H1128.47V103.5ZM1131.47 114.25H1151.78V111.062H1135.47V105.812H1131.47V114.25ZM1178.87 88.0625H1165.09V102.031H1167.53C1173.61 102.047 1177.23 101.984 1181.28 101.281L1180.87 98.1875C1177.28 98.7812 1174.11 98.8594 1169.09 98.875V96.5312H1178.03V93.4688H1169.09V91.25H1178.87V88.0625ZM1168.28 114.562H1187.34V104.5H1168.28V114.562ZM1172.22 111.375V107.594H1183.44V111.375H1172.22ZM1183.34 103.344H1187.34V86.4688H1183.34V103.344ZM1215.28 86.4688H1211.28V102.969H1205.84V105.688H1211.28V107.938H1215.28V86.4688ZM1191.09 99.0625L1191.56 102.219C1193.72 102.219 1196.14 102.203 1198.69 102.109V105.875H1194.72V114.375H1215.9V111.188H1198.69V107.281H1202.69V101.875C1204.98 101.703 1207.31 101.438 1209.56 101.062L1209.34 98.2188C1203.33 98.9531 1196.29 99.0312 1191.09 99.0625ZM1193.19 92.5312C1193.19 95.5781 1196.11 97.5469 1200.34 97.5312C1204.47 97.5469 1207.42 95.5781 1207.44 92.5312C1207.42 89.5 1204.47 87.4219 1200.34 87.4375C1196.11 87.4219 1193.19 89.5 1193.19 92.5312ZM1196.97 92.5312C1196.95 91.125 1198.31 90.3438 1200.34 90.3438C1202.25 90.3438 1203.62 91.125 1203.65 92.5312C1203.62 93.9062 1202.25 94.6719 1200.34 94.6562C1198.31 94.6719 1196.95 93.9062 1196.97 92.5312ZM1231.81 86.8438C1225.25 86.8438 1221.44 88.5625 1221.44 91.6875C1221.44 94.8594 1225.25 96.5625 1231.81 96.5625C1238.36 96.5625 1242.14 94.8594 1242.15 91.6875C1242.14 88.5625 1238.36 86.8438 1231.81 86.8438ZM1218.84 101.062H1244.78V97.9062H1218.84V101.062ZM1221.84 105.625H1237.69V107.188H1221.87V114.688H1242.37V111.688H1225.78V109.969H1241.62V102.719H1221.84V105.625ZM1225.62 91.6875C1225.61 90.4219 1227.64 89.75 1231.81 89.75C1236.01 89.75 1238.03 90.4219 1238.03 91.6875C1238.03 93.0781 1236.01 93.625 1231.81 93.625C1227.64 93.625 1225.61 93.0781 1225.62 91.6875ZM1270.09 89.1875H1264.4V86.3125H1260.37V89.1875H1254.65V92.3438H1260.37C1260.31 95.4062 1258.2 98.4219 1253.65 99.5938L1255.53 102.75C1258.86 101.812 1261.14 99.8438 1262.4 97.3281C1263.69 99.6094 1265.95 101.391 1269.25 102.219L1271 99.1562C1266.45 98 1264.42 95.1562 1264.34 92.3438H1270.09V89.1875ZM1256.4 111.719L1257.84 114.75C1262.37 114.156 1265.56 112.375 1267.19 109.953C1268.84 112.391 1272.04 114.203 1276.62 114.812L1278.03 111.781C1273.08 111.125 1270.26 109.094 1269.53 107H1276.78V103.875H1257.62V107H1264.9C1264.17 109.141 1261.39 111.109 1256.4 111.719ZM1272.44 102.656H1276.44V96.0938H1280.28V92.8125H1276.44V86.4375H1272.44V102.656ZM1289.19 88.4375C1284.83 88.4375 1281.67 92.3594 1281.69 98.5625C1281.67 104.812 1284.83 108.719 1289.19 108.719C1293.53 108.719 1296.67 104.812 1296.69 98.5625C1296.67 92.3594 1293.53 88.4375 1289.19 88.4375ZM1285.53 98.5625C1285.53 94.3438 1287.01 92.0312 1289.19 92.0312C1291.4 92.0312 1292.86 94.3438 1292.87 98.5625C1292.86 102.797 1291.4 105.109 1289.19 105.094C1287.01 105.109 1285.53 102.797 1285.53 98.5625ZM1299.97 114.875H1303.97V100.469H1308.15V97.1562H1303.97V86.4375H1299.97V114.875ZM1335.22 108.312H1324.12V103.062H1332.31V88.25H1328.34V92.6562H1315.94V88.25H1311.94V103.062H1320.15V108.312H1309.19V111.562H1335.22V108.312ZM1315.94 99.875V95.8438H1328.34V99.875H1315.94ZM1345.97 93.5938V88.875H1342.09V93.7812C1342.09 98.5938 1340.53 103.609 1336.31 106.219L1338.75 109.156C1341.33 107.594 1343.03 104.891 1344.04 101.672C1344.95 104.578 1346.5 107.047 1348.97 108.531L1351.12 105.438C1347.23 102.953 1345.95 98.2031 1345.97 93.5938ZM1348.12 99.2812H1351.81V113.562H1355.53V86.8438H1351.81V96.0312H1348.12V99.2812ZM1357.69 114.875H1361.5V86.4375H1357.69V114.875ZM1390.53 108.281H1384.75V101.234C1386.89 99.9062 1388.17 97.9219 1388.19 95.4688C1388.17 90.8594 1383.62 87.8281 1377.47 87.8125C1371.28 87.8281 1366.78 90.8594 1366.78 95.4688C1366.78 97.9688 1368.11 99.9844 1370.31 101.312V108.281H1364.5V111.562H1390.53V108.281ZM1370.72 95.4688C1370.72 92.6094 1373.39 90.9531 1377.47 90.9688C1381.48 90.9531 1384.23 92.6094 1384.25 95.4688C1384.23 98.25 1381.48 99.9688 1377.47 99.9688C1373.39 99.9688 1370.72 98.25 1370.72 95.4688ZM1374.25 108.281V102.766C1375.25 102.953 1376.33 103.062 1377.47 103.062C1378.61 103.062 1379.7 102.953 1380.72 102.75V108.281H1374.25ZM1398.62 89.375H1393.81L1394.22 105.219H1398.22L1398.62 89.375ZM1393.62 109.656C1393.59 111.109 1394.78 112.281 1396.25 112.281C1397.64 112.281 1398.84 111.109 1398.84 109.656C1398.84 108.219 1397.64 107.047 1396.25 107.062C1394.78 107.047 1393.59 108.219 1393.62 109.656Z" fill="black"/>
<path d="M1021.28 155.646H1016.24V152.693H1015.16V155.646H1010.15V156.549H1021.28V155.646ZM1010.69 152.256L1011.14 153.117C1012.97 152.741 1014.92 151.531 1015.7 149.829C1016.48 151.511 1018.45 152.693 1020.3 153.062L1020.74 152.215C1018.64 151.873 1016.25 150.205 1016.24 148.264V147.963H1020.32V147.061H1011.06V147.963H1015.14V148.264C1015.14 150.205 1012.75 151.907 1010.69 152.256ZM1032.28 145.967H1031.21V154.854H1032.28V145.967ZM1022.53 149.795C1022.53 151.565 1023.9 152.796 1025.72 152.789C1027.54 152.796 1028.9 151.565 1028.9 149.795C1028.9 148.045 1027.54 146.821 1025.72 146.814C1023.9 146.821 1022.53 148.045 1022.53 149.795ZM1023.59 149.795C1023.57 148.605 1024.49 147.758 1025.72 147.758C1026.93 147.758 1027.85 148.605 1027.85 149.795C1027.85 151.005 1026.93 151.846 1025.72 151.846C1024.49 151.846 1023.57 151.005 1023.59 149.795ZM1024.43 157.848H1032.66V156.945H1025.5V153.951H1024.43V157.848ZM1037.61 146.896C1035.82 146.903 1034.56 148.551 1034.56 151.135C1034.56 153.726 1035.82 155.366 1037.61 155.359C1039.31 155.366 1040.53 153.876 1040.64 151.49H1043.36V158.135H1044.42V145.953H1043.36V150.602H1040.63C1040.46 148.325 1039.27 146.903 1037.61 146.896ZM1035.59 151.135C1035.6 149.159 1036.42 147.86 1037.61 147.854C1038.8 147.86 1039.64 149.159 1039.64 151.135C1039.64 153.11 1038.8 154.409 1037.61 154.402C1036.42 154.409 1035.6 153.11 1035.59 151.135ZM1052.5 147.744V146.814H1051.38V147.744C1051.37 149.836 1049.02 151.675 1046.91 152.078L1047.4 152.98C1049.24 152.55 1051.16 151.251 1051.96 149.467C1052.74 151.251 1054.67 152.557 1056.51 152.98L1057 152.078C1054.89 151.682 1052.51 149.829 1052.5 147.744ZM1046.45 156.453H1057.57V155.564H1046.45V156.453ZM1068.38 149.645H1061.12V146.404H1060.05V150.506H1068.38V149.645ZM1058.53 153.035H1069.66V152.16H1058.53V153.035ZM1059.98 157.807H1068.44V156.918H1061.05V154.279H1059.98V157.807ZM1083.56 145.953H1082.5V158.135H1083.56V151.668H1085.6V150.766H1083.56V145.953ZM1074.69 155.086H1075.65C1077.96 155.086 1079.55 155.018 1081.46 154.676L1081.32 153.746C1079.51 154.081 1077.96 154.177 1075.76 154.184V148.031H1080.37V147.143H1074.69V155.086ZM1097.56 147.799H1095.76V145.953H1094.69V153.172H1095.76V151.285H1097.56V150.383H1095.76V148.688H1097.56V147.799ZM1086.49 149.549C1086.48 151.237 1087.84 152.399 1089.68 152.406C1091.53 152.399 1092.86 151.237 1092.88 149.549C1092.86 147.854 1091.53 146.685 1089.68 146.691C1087.84 146.685 1086.48 147.854 1086.49 149.549ZM1087.54 149.549C1087.54 148.407 1088.45 147.594 1089.68 147.607C1090.92 147.594 1091.82 148.407 1091.82 149.549C1091.82 150.697 1090.92 151.49 1089.68 151.504C1088.45 151.49 1087.54 150.697 1087.54 149.549ZM1087.83 155.824C1087.84 157.239 1089.38 158.08 1091.86 158.08C1094.34 158.08 1095.87 157.239 1095.87 155.824C1095.87 154.382 1094.34 153.548 1091.86 153.541C1089.38 153.548 1087.84 154.382 1087.83 155.824ZM1088.91 155.824C1088.9 154.942 1090.03 154.416 1091.86 154.416C1093.7 154.416 1094.82 154.942 1094.83 155.824C1094.82 156.699 1093.7 157.212 1091.86 157.219C1090.03 157.212 1088.9 156.699 1088.91 155.824ZM1107.86 145.967H1106.79V155.072H1107.86V150.875H1109.69V149.973H1107.86V145.967ZM1098.38 148.332H1105.63V147.457H1102.54V145.967H1101.47V147.457H1098.38V148.332ZM1099.08 151.271C1099.08 152.639 1100.25 153.521 1102.01 153.514C1103.74 153.521 1104.92 152.639 1104.93 151.271C1104.92 149.891 1103.74 149.002 1102.01 149.002C1100.25 149.002 1099.08 149.891 1099.08 151.271ZM1100.11 151.271C1100.1 150.403 1100.86 149.843 1102.01 149.85C1103.14 149.843 1103.91 150.403 1103.92 151.271C1103.91 152.126 1103.14 152.68 1102.01 152.666C1100.86 152.68 1100.1 152.126 1100.11 151.271ZM1100.26 157.848H1108.42V156.945H1101.31V154.348H1100.26V157.848ZM1118.04 149.221V147.006H1116.99V149.221C1116.98 151.442 1115.57 153.773 1113.79 154.648L1114.48 155.51C1115.84 154.778 1116.99 153.24 1117.53 151.449C1118.07 153.138 1119.19 154.58 1120.53 155.277L1121.19 154.416C1119.46 153.568 1118.04 151.36 1118.04 149.221ZM1122.31 158.107H1123.38V151.818H1125.41V150.889H1123.38V145.953H1122.31V158.107ZM1135.57 145.967H1134.51V153.213H1135.57V150H1137.42V149.084H1135.57V145.967ZM1126.59 147.512H1131.05V149.111H1126.62V152.57H1127.56C1129.82 152.57 1131.45 152.502 1133.4 152.16L1133.29 151.299C1131.4 151.606 1129.83 151.675 1127.67 151.668V149.945H1132.1V146.623H1126.59V147.512ZM1127.88 157.943H1135.57V153.814H1127.88V157.943ZM1128.93 157.068V154.648H1134.53V157.068H1128.93ZM1149.26 151.066H1138.17V151.928H1149.26V151.066ZM1139.51 153.855H1146.77V155.031H1139.54V157.971H1148.19V157.096H1140.6V155.838H1147.82V153.021H1139.51V153.855ZM1139.65 150.068H1147.93V149.193H1140.73V147.238H1147.81V146.377H1139.65V150.068ZM1157.01 147.307H1150.83V148.182H1155.93C1155.94 149.152 1155.91 150.629 1155.57 152.666L1156.65 152.762C1157 150.506 1157 148.899 1157.01 147.936V147.307ZM1150.15 154.539L1150.28 155.428C1152.46 155.441 1155.31 155.387 1157.87 154.99L1157.82 154.184C1156.55 154.334 1155.17 154.423 1153.82 154.471V150.779H1152.77V154.505C1151.83 154.525 1150.95 154.532 1150.15 154.539ZM1158.58 158.107H1159.65V151.969H1161.62V151.039H1159.65V145.953H1158.58V158.107ZM1171.94 147.744V146.814H1170.82V147.744C1170.81 149.836 1168.45 151.675 1166.35 152.078L1166.84 152.98C1168.68 152.55 1170.6 151.251 1171.39 149.467C1172.18 151.251 1174.11 152.557 1175.95 152.98L1176.44 152.078C1174.33 151.682 1171.95 149.829 1171.94 147.744ZM1165.88 156.453H1177.01V155.564H1165.88V156.453ZM1188.06 145.953H1186.99V150.547H1184.42V151.436H1186.99V158.135H1188.06V145.953ZM1178.54 155.195H1179.47C1181.82 155.195 1183.31 155.113 1185.08 154.826L1184.96 153.938C1183.29 154.238 1181.85 154.3 1179.62 154.307V151.367H1183.68V150.492H1179.62V147.963H1184.22V147.074H1178.54V155.195ZM1200.1 145.953H1199.02V158.135H1200.1V145.953ZM1190.88 155.113H1191.86C1194.32 155.106 1195.92 155.024 1197.81 154.689L1197.7 153.787C1195.87 154.115 1194.32 154.184 1191.96 154.184V148.018H1196.66V147.115H1190.88V155.113ZM1212.04 146.746H1206.34V151.695H1212.04V146.746ZM1207.21 157.232L1207.6 158.066C1209.43 157.813 1211.14 156.979 1211.87 155.831C1212.59 156.952 1214.26 157.813 1216.09 158.066L1216.46 157.232C1214.37 156.973 1212.42 155.79 1212.42 154.607H1216.03V153.773H1212.39V152.584H1211.33V153.773H1207.72V154.607H1211.31C1211.31 155.817 1209.3 157 1207.21 157.232ZM1207.39 150.848V147.621H1210.99V150.848H1207.39ZM1214.66 152.939H1215.72V145.953H1214.66V152.939ZM1225.38 149.221V147.006H1224.33V149.221C1224.32 151.442 1222.91 153.773 1221.13 154.648L1221.81 155.51C1223.18 154.778 1224.33 153.24 1224.87 151.449C1225.41 153.138 1226.53 154.58 1227.87 155.277L1228.53 154.416C1226.8 153.568 1225.38 151.36 1225.38 149.221ZM1229.65 158.107H1230.71V151.818H1232.75V150.889H1230.71V145.953H1229.65V158.107ZM1243.43 145.953H1242.35V158.135H1243.43V145.953ZM1233.86 151.135C1233.87 153.726 1235.15 155.366 1236.96 155.359C1238.77 155.366 1240.07 153.726 1240.07 151.135C1240.07 148.551 1238.77 146.903 1236.96 146.896C1235.15 146.903 1233.87 148.551 1233.86 151.135ZM1234.9 151.135C1234.9 149.159 1235.75 147.86 1236.96 147.854C1238.19 147.86 1239.03 149.159 1239.03 151.135C1239.03 153.11 1238.19 154.409 1236.96 154.402C1235.75 154.409 1234.9 153.11 1234.9 151.135ZM1255.32 151.805H1248V147.977H1255.2V147.088H1246.93V152.693H1255.32V151.805ZM1245.51 156.453H1256.64V155.551H1245.51V156.453ZM1272.25 155.633H1261.12V156.549H1272.25V155.633ZM1262.11 148.072H1264.03V152.324H1262.13V153.199H1271.16V152.324H1269.26V148.072H1271.18V147.184H1262.11V148.072ZM1265.1 152.324V148.072H1268.2V152.324H1265.1ZM1284.35 155.701H1279.28V153.404H1283.23V152.516H1275.68V150.533H1282.94V146.855H1274.59V147.744H1281.89V149.658H1274.62V153.404H1278.22V155.701H1273.22V156.604H1284.35V155.701ZM1293.28 146.227H1292.24V149.098H1290.38V149.986H1292.24V153.281H1293.28V146.227ZM1285.38 152.242L1285.95 153.09C1287.16 152.557 1288 151.538 1288.42 150.355C1288.85 151.401 1289.65 152.311 1290.79 152.789L1291.35 151.969C1289.8 151.326 1288.92 149.884 1288.92 148.564V147.84H1291.06V146.951H1285.61V147.84H1287.88V148.564C1287.88 150.007 1286.95 151.579 1285.38 152.242ZM1287.45 154.799H1294.59V158.107H1295.64V153.924H1287.45V154.799ZM1294.62 153.391H1295.64V145.953H1294.62V153.391ZM1307.26 152.529H1299.95V150.574H1306.87V149.713H1299.95V147.908H1307.13V147.006H1298.86V153.404H1307.26V152.529ZM1297.42 156.521H1308.55V155.633H1297.42V156.521ZM1320.63 151.6H1309.51V152.447H1320.63V151.6ZM1310.85 154.225H1318.17V155.264H1310.86V157.943H1319.64V157.164H1311.94V156.002H1319.24V153.418H1310.85V154.225ZM1310.91 147.102H1318.12V148.1H1310.96V150.684H1319.42V149.904H1312.02V148.838H1319.2V146.322H1310.91V147.102ZM1335.21 145.967H1334.13V148.236H1331.29C1331.39 147.806 1331.45 147.348 1331.45 146.869H1325.91V147.771H1330.28C1330.07 149.877 1328.23 151.524 1325.3 152.393L1325.75 153.24C1328.35 152.468 1330.23 151.053 1331.03 149.098H1334.13V150.738H1330.9V151.627H1334.13V153.268H1335.21V145.967ZM1327.17 155.715C1327.16 157.171 1328.74 158.053 1331.23 158.053C1333.69 158.053 1335.28 157.171 1335.28 155.715C1335.28 154.266 1333.69 153.391 1331.23 153.391C1328.74 153.391 1327.16 154.266 1327.17 155.715ZM1328.22 155.715C1328.23 154.799 1329.4 154.245 1331.23 154.252C1333.04 154.245 1334.2 154.799 1334.21 155.715C1334.2 156.631 1333.04 157.185 1331.23 157.178C1329.4 157.185 1328.23 156.631 1328.22 155.715ZM1347.31 145.953H1346.23V149.658H1344.16V150.547H1346.23V153.322H1347.31V145.953ZM1337.25 148.113H1344.34V147.238H1341.32V145.844H1340.27V147.238H1337.25V148.113ZM1337.97 150.902C1337.97 152.215 1339.14 153.076 1340.79 153.076C1342.44 153.076 1343.6 152.215 1343.62 150.902C1343.6 149.631 1342.44 148.742 1340.79 148.742C1339.14 148.742 1337.97 149.631 1337.97 150.902ZM1339 150.902C1339 150.123 1339.73 149.576 1340.79 149.576C1341.85 149.576 1342.58 150.123 1342.58 150.902C1342.58 151.709 1341.85 152.242 1340.79 152.256C1339.73 152.242 1339 151.709 1339 150.902ZM1339.37 157.943H1347.31V153.979H1339.37V157.943ZM1340.43 157.068V154.84H1346.26V157.068H1340.43ZM1358.83 145.912H1357.77V152.639H1358.83V149.754H1360.68V148.865H1358.83V145.912ZM1349.36 147.922H1356.61V147.061H1353.52V145.83H1352.45V147.061H1349.36V147.922ZM1350.06 150.465C1350.05 151.702 1351.21 152.454 1352.98 152.461C1354.75 152.454 1355.89 151.702 1355.91 150.465C1355.89 149.234 1354.75 148.476 1352.98 148.469C1351.21 148.476 1350.05 149.234 1350.06 150.465ZM1351.08 154.074H1357.77V155.168H1351.11V157.971H1359.29V157.15H1352.16V155.961H1358.83V153.268H1351.08V154.074ZM1351.08 150.465C1351.08 149.74 1351.83 149.269 1352.98 149.262C1354.13 149.269 1354.88 149.74 1354.9 150.465C1354.88 151.196 1354.13 151.654 1352.98 151.654C1351.83 151.654 1351.08 151.196 1351.08 150.465ZM1371.04 147.088V146.391H1369.94V147.088C1369.94 148.831 1367.71 150.28 1365.52 150.588L1365.96 151.463C1367.85 151.148 1369.72 150.116 1370.5 148.612C1371.28 150.103 1373.15 151.148 1375.04 151.463L1375.47 150.588C1373.28 150.28 1371.05 148.804 1371.04 147.088ZM1364.95 153.705H1369.94V158.107H1370.99V153.705H1376.02V152.803H1364.95V153.705ZM1384.67 154.115V153.445H1383.63V154.115C1383.62 155.277 1382.7 156.576 1381.16 157.15L1381.71 157.943C1382.87 157.506 1383.7 156.658 1384.14 155.681C1384.5 156.699 1385.25 157.588 1386.44 158.039C1387.56 157.567 1388.3 156.631 1388.68 155.646C1389.1 156.665 1389.95 157.513 1391.17 157.943L1391.7 157.15C1390.14 156.61 1389.22 155.366 1389.23 154.115V153.445H1388.17V154.115C1388.18 155.052 1387.57 156.269 1386.4 156.986C1385.25 156.33 1384.67 155.188 1384.67 154.115ZM1380.85 149.521C1380.84 151.189 1382.19 152.338 1384.03 152.338C1385.88 152.338 1387.21 151.189 1387.22 149.521C1387.21 147.826 1385.88 146.671 1384.03 146.678C1382.19 146.671 1380.84 147.826 1380.85 149.521ZM1381.9 149.521C1381.88 148.387 1382.78 147.58 1384.03 147.594C1385.27 147.58 1386.16 148.387 1386.16 149.521C1386.16 150.649 1385.27 151.442 1384.03 151.449C1382.78 151.442 1381.88 150.649 1381.9 149.521ZM1389.53 152.912H1390.59V145.967H1389.53V152.912ZM1403.06 145.953H1402.04V158.107H1403.06V145.953ZM1392.67 154.703L1393.3 155.482C1395 154.484 1396.17 153.233 1396.9 151.818H1399.48V157.492H1400.51V146.281H1399.48V150.943H1397.3C1397.72 149.863 1397.91 148.708 1397.91 147.512H1393.19V148.4H1396.84C1396.64 150.943 1395.31 153.138 1392.67 154.703ZM1418.35 145.967H1417.27V147.867H1414.11C1413.54 147.163 1412.65 146.739 1411.62 146.732C1409.8 146.739 1408.46 147.997 1408.46 149.781C1408.46 151.559 1409.8 152.816 1411.62 152.816C1412.66 152.816 1413.56 152.386 1414.12 151.668H1417.27V154.949H1418.35V145.967ZM1409.49 149.781C1409.49 148.571 1410.38 147.696 1411.62 147.689C1412.82 147.696 1413.73 148.571 1413.73 149.781C1413.73 150.998 1412.82 151.866 1411.62 151.859C1410.38 151.866 1409.49 150.998 1409.49 149.781ZM1410.54 157.848H1418.69V156.945H1411.62V154.006H1410.54V157.848ZM1414.59 148.756H1417.27V150.779H1414.6C1414.7 150.472 1414.77 150.137 1414.77 149.781C1414.77 149.412 1414.7 149.07 1414.59 148.756ZM1430.45 145.953H1429.37V147.73H1426.56C1426.63 147.361 1426.67 146.972 1426.67 146.568H1421.19V147.457H1425.49C1425.29 149.419 1423.56 150.868 1420.58 151.559L1420.96 152.447C1423.66 151.798 1425.55 150.506 1426.3 148.592H1429.37V150.055H1426.13V150.902H1429.37V152.174H1430.45V145.953ZM1422.57 153.596H1429.37V154.867H1422.6V157.998H1430.86V157.109H1423.67V155.688H1430.45V152.721H1422.57V153.596ZM1438.54 148.059H1436.04V146.322H1434.97V148.059H1432.44V148.934H1438.54V148.059ZM1432.88 152.516C1432.88 154.149 1433.98 155.298 1435.49 155.305C1437.02 155.298 1438.12 154.149 1438.13 152.516C1438.12 150.902 1437.02 149.761 1435.49 149.754C1433.98 149.761 1432.88 150.902 1432.88 152.516ZM1433.84 152.516C1433.84 151.449 1434.53 150.67 1435.49 150.656C1436.46 150.67 1437.17 151.449 1437.17 152.516C1437.17 153.596 1436.46 154.368 1435.49 154.361C1434.53 154.368 1433.84 153.596 1433.84 152.516ZM1439.17 157.506H1440.18V151.969H1441.79V158.107H1442.82V145.953H1441.79V151.08H1440.18V146.254H1439.17V157.506ZM1454.22 147.676V147.594H1458.11V146.719H1449.12V147.594H1453.02V147.676C1453.01 149.303 1450.85 150.684 1448.74 150.998L1449.16 151.846C1451.03 151.524 1452.88 150.513 1453.62 149.05C1454.36 150.513 1456.21 151.524 1458.11 151.846L1458.5 150.998C1456.38 150.684 1454.22 149.303 1454.22 147.676ZM1448.08 153.773H1453.07V158.107H1454.13V153.773H1459.16V152.885H1448.08V153.773ZM1470.01 149.645H1462.75V146.404H1461.69V150.506H1470.01V149.645ZM1460.17 153.035H1471.3V152.16H1460.17V153.035ZM1461.62 157.807H1470.08V156.918H1462.69V154.279H1461.62V157.807ZM1485.82 146.336H1476.84V147.184H1478.71V149.535H1476.88V150.369H1485.78V149.535H1483.95V147.184H1485.82V146.336ZM1475.8 152.256H1486.87V151.395H1475.8V152.256ZM1477.14 154.156H1484.4V155.209H1477.16V157.971H1485.82V157.15H1478.23V155.988H1485.45V153.35H1477.14V154.156ZM1479.78 149.535V147.184H1482.88V149.535H1479.78ZM1498.22 145.967H1497.19V149.152H1495.48V146.199H1494.49V153.199H1495.48V150.041H1497.19V154.252H1498.22V145.967ZM1488.43 147.799H1492.01V149.494H1488.46V152.994H1489.25C1491.03 152.994 1492.31 152.939 1493.88 152.625L1493.76 151.764C1492.33 152.058 1491.1 152.133 1489.5 152.133V150.314H1493.04V146.91H1488.43V147.799ZM1489.44 157.219L1489.88 158.053C1491.68 157.752 1493.41 156.815 1494.16 155.455C1494.9 156.815 1496.63 157.752 1498.44 158.053L1498.88 157.219C1496.74 156.891 1494.69 155.599 1494.69 153.992V153.678H1493.62V153.992C1493.61 155.599 1491.56 156.891 1489.44 157.219ZM1511.07 152.092H1506.05V150.684H1509.98V149.795H1508.14V147.238H1510.02V146.35H1501.04V147.238H1502.91V149.795H1501.08V150.684H1504.99V152.092H1500V152.967H1511.07V152.092ZM1501.35 157.943H1509.72V154.143H1501.35V157.943ZM1502.42 157.068V154.977H1508.66V157.068H1502.42ZM1503.97 149.795V147.238H1507.08V149.795H1503.97ZM1522.12 145.953H1521.04V158.135H1522.12V145.953ZM1512.55 151.135C1512.55 153.726 1513.84 155.366 1515.65 155.359C1517.46 155.366 1518.76 153.726 1518.75 151.135C1518.76 148.551 1517.46 146.903 1515.65 146.896C1513.84 146.903 1512.55 148.551 1512.55 151.135ZM1513.59 151.135C1513.59 149.159 1514.43 147.86 1515.65 147.854C1516.87 147.86 1517.71 149.159 1517.71 151.135C1517.71 153.11 1516.87 154.409 1515.65 154.402C1514.43 154.409 1513.59 153.11 1513.59 151.135ZM1534.61 145.953H1533.57V158.107H1534.61V145.953ZM1524.35 151.203C1524.35 153.787 1525.38 155.435 1526.96 155.428C1528.45 155.435 1529.47 153.951 1529.58 151.586H1531.14V157.492H1532.17V146.213H1531.14V150.697H1529.57C1529.43 148.407 1528.43 146.985 1526.96 146.979C1525.38 146.985 1524.35 148.619 1524.35 151.203ZM1525.36 151.203C1525.34 149.228 1525.97 147.99 1526.96 147.99C1527.95 147.99 1528.58 149.228 1528.57 151.203C1528.58 153.172 1527.95 154.416 1526.96 154.402C1525.97 154.416 1525.34 153.172 1525.36 151.203ZM1547.42 155.646H1544.66V152.338C1545.67 151.798 1546.28 150.937 1546.28 149.85C1546.28 147.97 1544.43 146.732 1541.83 146.719C1539.23 146.732 1537.39 147.97 1537.39 149.85C1537.39 150.957 1538.02 151.832 1539.06 152.372V155.646H1536.29V156.549H1547.42V155.646ZM1538.43 149.85C1538.42 148.489 1539.84 147.594 1541.83 147.607C1543.81 147.594 1545.24 148.489 1545.24 149.85C1545.24 151.21 1543.81 152.119 1541.83 152.119C1539.84 152.119 1538.42 151.21 1538.43 149.85ZM1540.11 155.646V152.762C1540.63 152.898 1541.21 152.967 1541.83 152.967C1542.47 152.967 1543.06 152.892 1543.58 152.755V155.646H1540.11ZM1550.36 147.102H1549.02L1549.12 154.211H1550.27L1550.36 147.102ZM1548.82 156.193C1548.8 156.679 1549.21 157.075 1549.69 157.082C1550.18 157.075 1550.58 156.679 1550.57 156.193C1550.58 155.715 1550.18 155.318 1549.69 155.318C1549.21 155.318 1548.8 155.715 1548.82 156.193Z" fill="#5A5C5F"/>
<rect x="1009.65" y="185" width="140" height="53" rx="10" fill="#FF9C30"/>
<path d="M1034.18 205.027H1026.88V215.785H1028.19C1031.14 215.803 1033.07 215.715 1035.27 215.293L1035.04 213.482C1033.16 213.825 1031.48 213.931 1029.15 213.957V206.855H1034.18V205.027ZM1033.39 210.986H1037.41V219.652H1039.65V203.621H1037.41V209.158H1033.39V210.986ZM1058.74 204.184H1047.63V205.959H1056.5C1056.49 207.04 1056.45 208.218 1056.14 209.738H1045.83V211.531H1052V213.509C1049.15 213.729 1047.44 214.801 1047.45 216.523C1047.44 218.51 1049.6 219.626 1053.13 219.617C1056.63 219.626 1058.78 218.51 1058.79 216.523C1058.78 214.801 1057.08 213.72 1054.24 213.509V211.531H1060.48V209.738H1058.4C1058.75 208.033 1058.75 206.645 1058.74 205.449V204.184ZM1049.7 216.523C1049.7 215.653 1050.89 215.249 1053.13 215.24C1055.33 215.249 1056.52 215.653 1056.52 216.523C1056.52 217.42 1055.33 217.842 1053.13 217.842C1050.89 217.842 1049.7 217.42 1049.7 216.523ZM1074.29 204.342H1063.18V206.135H1072.06C1072.04 207.26 1072 208.499 1071.66 210.09H1061.39V211.9H1076.03V210.09H1073.92C1074.3 208.253 1074.3 206.873 1074.29 205.625V204.342ZM1063.13 219.441H1074.24V213.588H1063.13V219.441ZM1065.33 217.648V215.346H1072.01V217.648H1065.33ZM1089.57 203.621H1087.35V219.617H1089.57V211.725H1091.92V209.879H1089.57V203.621ZM1076.86 207.805H1086.26V206.012H1082.73V203.867H1080.48V206.012H1076.86V207.805ZM1077.51 212.516C1077.5 214.748 1079.24 216.321 1081.61 216.33C1083.93 216.321 1085.68 214.748 1085.68 212.516C1085.68 210.283 1083.93 208.692 1081.61 208.701C1079.24 208.692 1077.5 210.283 1077.51 212.516ZM1079.65 212.516C1079.65 211.285 1080.47 210.529 1081.61 210.512C1082.72 210.529 1083.54 211.285 1083.54 212.516C1083.54 213.755 1082.72 214.493 1081.61 214.484C1080.47 214.493 1079.65 213.755 1079.65 212.516ZM1105.12 203.621H1102.88V219.652H1105.12V211.391H1107.48V209.562H1105.12V203.621ZM1093.14 215.768H1094.49C1097.31 215.776 1099.49 215.715 1101.98 215.293L1101.73 213.412C1099.61 213.781 1097.69 213.904 1095.37 213.922V206.908H1100.64V205.098H1093.14V215.768ZM1116.32 204.922H1108.73V212.709H1116.32V211.355H1119.31V215.275H1121.54V203.639H1119.31V206.135H1116.32V204.922ZM1110.89 219.336H1121.88V217.543H1113.16V214.168H1110.89V219.336ZM1110.96 210.969V206.697H1114.12V210.969H1110.96ZM1116.32 209.58V207.945H1119.31V209.58H1116.32ZM1126.41 213.992V214.186H1128.73V213.992C1128.74 212.762 1129.18 212.19 1130.17 211.602C1131.33 210.907 1132.07 209.993 1132.07 208.543C1132.07 206.372 1130.34 205.098 1127.89 205.098C1125.64 205.098 1123.8 206.284 1123.76 208.754H1126.25C1126.29 207.726 1127.05 207.181 1127.87 207.172C1128.72 207.181 1129.41 207.752 1129.4 208.631C1129.41 209.439 1128.82 209.984 1128.06 210.477C1127.01 211.136 1126.42 211.804 1126.41 213.992ZM1126.15 216.682C1126.13 217.499 1126.8 218.158 1127.62 218.158C1128.41 218.158 1129.08 217.499 1129.08 216.682C1129.08 215.873 1128.41 215.214 1127.62 215.223C1126.8 215.214 1126.13 215.873 1126.15 216.682Z" fill="white"/>
</svg>
