<svg width="12" height="13" viewBox="0 0 12 13" fill="none" xmlns="http://www.w3.org/2000/svg">
<path d="M3.3835 10.5833L6.00017 9.01667L8.61683 10.6L7.91683 7.63333L10.2168 5.63333L7.1835 5.36667L6.00017 2.56667L4.81683 5.35L1.7835 5.61667L4.0835 7.61667L3.3835 10.5833ZM6.00017 10.1833L2.90017 12.05C2.81128 12.1056 2.71683 12.1306 2.61683 12.125C2.51683 12.1194 2.42795 12.0889 2.35017 12.0333C2.27239 11.9778 2.21406 11.9056 2.17517 11.8167C2.13628 11.7278 2.12795 11.6278 2.15017 11.5167L2.96683 7.98333L0.233501 5.6C0.144612 5.52222 0.0918341 5.43611 0.0751674 5.34167C0.0585007 5.24722 0.0612785 5.15555 0.0835008 5.06667C0.105723 4.97778 0.155723 4.90278 0.233501 4.84167C0.311278 4.78055 0.405723 4.74444 0.516834 4.73333L4.1335 4.41667L5.5335 1.08333C5.57795 0.983333 5.64461 0.908333 5.7335 0.858333C5.82239 0.808333 5.91128 0.783333 6.00017 0.783333C6.08906 0.783333 6.17795 0.808333 6.26683 0.858333C6.35572 0.908333 6.42239 0.983333 6.46683 1.08333L7.86683 4.41667L11.4835 4.73333C11.5946 4.74444 11.6891 4.78055 11.7668 4.84167C11.8446 4.90278 11.8946 4.97778 11.9168 5.06667C11.9391 5.15555 11.9418 5.24722 11.9252 5.34167C11.9085 5.43611 11.8557 5.52222 11.7668 5.6L9.0335 7.98333L9.85017 11.5167C9.87239 11.6278 9.86406 11.7278 9.82517 11.8167C9.78628 11.9056 9.72795 11.9778 9.65017 12.0333C9.57239 12.0889 9.4835 12.1194 9.3835 12.125C9.2835 12.1306 9.18906 12.1056 9.10017 12.05L6.00017 10.1833Z" fill="#868E96"/>
</svg>
