<svg width="24" height="26" viewBox="0 0 24 26" fill="none" xmlns="http://www.w3.org/2000/svg">
<g clip-path="url(#clip0_108_6871)">
<path d="M23.9886 13.2297C23.9886 12.2234 23.9069 11.4891 23.7302 10.7275H12.2391V15.2695H18.9841C18.8482 16.3983 18.1138 18.0982 16.4819 19.2404L16.459 19.3925L20.0923 22.2071L20.344 22.2323C22.6558 20.0972 23.9886 16.9558 23.9886 13.2297Z" fill="#4285F4"/>
<path d="M12.2391 25.1969C15.5436 25.1969 18.3177 24.1089 20.344 22.2323L16.4819 19.2404C15.4484 19.9612 14.0613 20.4644 12.2391 20.4644C9.00254 20.4644 6.25557 18.3294 5.27636 15.3784L5.13282 15.3906L1.35489 18.3144L1.30548 18.4517C3.31811 22.4498 7.4522 25.1969 12.2391 25.1969Z" fill="#34A853"/>
<path d="M5.27634 15.3785C5.01797 14.617 4.86844 13.801 4.86844 12.9579C4.86844 12.1147 5.01797 11.2988 5.26275 10.5372L5.25591 10.375L1.43062 7.4043L1.30547 7.46383C0.475969 9.12292 0 10.986 0 12.9579C0 14.9297 0.475969 16.7927 1.30547 18.4518L5.27634 15.3785Z" fill="#FBBC05"/>
<path d="M12.2391 5.45116C14.5373 5.45116 16.0875 6.44387 16.9715 7.27347L20.4256 3.90091C18.3042 1.92906 15.5436 0.71875 12.2391 0.71875C7.4522 0.71875 3.31811 3.46572 1.30548 7.46378L5.26276 10.5372C6.25558 7.58622 9.00254 5.45116 12.2391 5.45116Z" fill="#EB4335"/>
</g>
<defs>
<clipPath id="clip0_108_6871">
<rect width="24" height="24.5625" fill="white" transform="translate(0 0.71875)"/>
</clipPath>
</defs>
</svg>
