<svg width="142" height="28" viewBox="0 0 142 28" fill="none" xmlns="http://www.w3.org/2000/svg">
<g clip-path="url(#clip0_37_4785)">
<path d="M10.37 28C8.0342 28.0388 5.74811 27.3183 3.85069 25.9453C1.98431 24.5473 0.630223 22.5658 0 20.3104L5.2818 18.9592C5.59046 20.1745 6.29378 21.2508 7.27977 22.0169C8.17724 22.6696 9.26367 23.0051 10.37 22.9711C11.0155 23.0176 11.6635 22.9282 12.2729 22.7088C12.8822 22.4893 13.4396 22.1446 13.9096 21.6965C14.8153 20.7841 15.2923 19.3283 15.2923 17.392V0.431824H20.7815V17.392C20.7815 20.6169 19.8412 23.194 18.0161 25.0537C17.0092 26.0452 15.8112 26.8182 14.4961 27.325C13.181 27.8317 11.7767 28.0615 10.37 28Z" fill="#00C73C"/>
<path d="M38.7078 28C30.4118 28 23.7059 21.7313 23.7059 14C23.7059 6.26866 30.4326 0 38.7078 0C46.9831 0 53.7029 6.26866 53.7029 14C53.7029 21.7313 46.9762 28 38.7078 28ZM38.7078 5.01493C33.4606 5.01493 29.1951 9.04079 29.1951 13.993C29.1951 18.9453 33.4606 22.9642 38.7078 22.9642C43.9551 22.9642 48.2137 18.9453 48.2137 13.993C48.2137 9.04079 43.9482 5.02188 38.7078 5.02188V5.01493Z" fill="#00C73C"/>
<path d="M57.0005 27.5681V0.403961H62.4828V27.5681H57.0005Z" fill="#00C73C"/>
<path d="M90.3851 0.431835V27.596H85.048L77.0977 16.3612C75.1032 13.6182 73.3344 10.7157 71.8089 7.68258C72.3493 10.6687 72.581 13.7031 72.5003 16.7373V27.5542H67.0179V0.390045H72.3482L80.2985 11.6179C82.2908 14.3561 84.0573 17.254 85.5803 20.2826C85.0406 17.2964 84.8089 14.262 84.889 11.2279V0.431835H90.3851Z" fill="#00C73C"/>
<path d="M106.03 28C104.481 28.0127 102.942 27.7534 101.481 27.2338C100.096 26.7414 98.8277 25.966 97.7547 24.9562C96.7167 23.9615 95.9011 22.7553 95.3626 21.4179C94.8156 20.0214 94.5433 18.5311 94.5607 17.0298V0.431824H100.05V17.0298C100.031 17.9318 100.189 18.8287 100.513 19.6696C100.776 20.3497 101.185 20.9632 101.709 21.4667C102.227 21.9573 102.842 22.3323 103.513 22.5671C104.323 22.8481 105.174 22.9849 106.03 22.9711C106.895 22.9864 107.756 22.8497 108.574 22.5671C109.239 22.3376 109.847 21.9671 110.358 21.4806C110.879 20.9688 111.286 20.3516 111.554 19.6696C111.875 18.8278 112.032 17.9316 112.017 17.0298V0.431824H117.506V17.0298C117.525 18.5318 117.25 20.0228 116.697 21.4179C116.163 22.7469 115.358 23.9477 114.333 24.9423C113.263 25.9602 111.994 26.7408 110.607 27.2338C109.137 27.7557 107.588 28.015 106.03 28Z" fill="#00C73C"/>
<path d="M131.658 28H131.008C125.754 27.7632 121.53 24.7473 120.23 20.3383L125.532 19.0428C126.341 21.8289 128.989 22.9154 131.271 23.0129C132.784 23.1575 134.297 22.7306 135.515 21.8149C135.781 21.592 135.992 21.3098 136.131 20.9907C136.271 20.6716 136.334 20.3243 136.317 19.9761C136.255 17.9841 134.465 17.0368 130.953 15.8945C130.503 15.7483 130.095 15.6159 129.75 15.4836L129.176 15.2816C126.763 14.4388 121.108 12.4955 121.571 7.1811C121.944 2.49354 126.597 0.0487671 131.001 0.0487671C135.743 0.0487671 139.249 2.08955 140.873 5.80199L135.778 7.67562C135.294 6.55423 134.264 5.07065 130.994 5.07065C130.842 5.07065 127.233 5.07064 127.04 7.54328C126.936 8.85273 128.471 9.63284 131.188 10.5801L131.879 10.8239C132.162 10.9284 132.501 11.0328 132.868 11.1582C135.737 12.0915 141.703 14.0418 141.855 19.8368C141.89 20.8914 141.688 21.9403 141.265 22.9052C140.841 23.8702 140.206 24.7261 139.408 25.409C137.222 27.1915 134.467 28.1124 131.658 28Z" fill="#00C73C"/>
</g>
<defs>
<clipPath id="clip0_37_4785">
<rect width="141.806" height="28" fill="white"/>
</clipPath>
</defs>
</svg>
