<svg width="142" height="28" viewBox="0 0 142 28" fill="none" xmlns="http://www.w3.org/2000/svg">
<g clip-path="url(#clip0_108_6843)">
<path d="M106.175 28.0001C104.624 28.0128 103.082 27.7535 101.62 27.2339C100.233 26.7415 98.9626 25.9661 97.8881 24.9563C96.8487 23.9616 96.0321 22.7553 95.4928 21.418C94.945 20.0215 94.6723 18.5311 94.6898 17.0299V0.431885H100.186V17.0299C100.168 17.9319 100.326 18.8288 100.65 19.6697C100.914 20.3498 101.323 20.9633 101.848 21.4667C102.367 21.9573 102.982 22.3323 103.655 22.5672C104.465 22.8482 105.318 22.9849 106.175 22.9712C107.041 22.9865 107.903 22.8497 108.722 22.5672C109.388 22.3376 109.997 21.9671 110.508 21.4806C111.03 20.9689 111.438 20.3517 111.706 19.6697C112.027 18.8279 112.185 17.9316 112.17 17.0299V0.431885H117.666V17.0299C117.685 18.5319 117.41 20.0229 116.857 21.418C116.322 22.747 115.515 23.9478 114.489 24.9423C113.418 25.9602 112.147 26.7409 110.758 27.2339C109.286 27.7557 107.735 28.015 106.175 28.0001Z" fill="#FF9C30"/>
<path d="M10.3842 28.0001C8.04517 28.0389 5.75595 27.3184 3.85595 25.9453C1.98701 24.5474 0.631083 22.5659 0 20.3105L5.28901 18.9593C5.59809 20.1746 6.30237 21.2509 7.28971 22.017C8.1884 22.6696 9.27631 23.0051 10.3842 22.9712C11.0305 23.0176 11.6794 22.9283 12.2896 22.7088C12.8998 22.4894 13.458 22.1447 13.9286 21.6966C14.8355 20.7841 15.3132 19.3284 15.3132 17.3921V0.431885H20.8098V17.3921C20.8098 20.617 19.8683 23.1941 18.0407 25.0538C17.0324 26.0453 15.8328 26.8183 14.5159 27.325C13.199 27.8318 11.7928 28.0615 10.3842 28.0001Z" fill="#FF9C30"/>
<path d="M57.0782 27.5681V0.403931H62.568V27.5681H57.0782Z" fill="#FF9C30"/>
<path d="M90.5084 0.431804V27.596H85.164L77.2028 16.3612C75.2057 13.6182 73.4345 10.7156 71.9069 7.68255C72.448 10.6686 72.68 13.7031 72.5992 16.7373V27.5542H67.1094V0.390015H72.4469L80.4081 11.6179C82.4031 14.3561 84.172 17.254 85.6971 20.2826C85.1566 17.2964 84.9246 14.262 85.0048 11.2278V0.431804H90.5084Z" fill="#FF9C30"/>
<path d="M131.837 28H131.187C125.925 27.7631 121.696 24.7472 120.394 20.3383L125.704 19.0427C126.514 21.8288 129.165 22.9154 131.45 23.0129C132.965 23.1575 134.48 22.7305 135.7 21.8149C135.967 21.5919 136.178 21.3097 136.317 20.9906C136.456 20.6715 136.52 20.3242 136.503 19.9761C136.441 17.984 134.648 17.0368 131.131 15.8945C130.681 15.7482 130.273 15.6159 129.927 15.4835L129.352 15.2815C126.936 14.4388 121.273 12.4955 121.737 7.18104C122.111 2.49348 126.77 0.0487061 131.18 0.0487061C135.929 0.0487061 139.439 2.08949 141.065 5.80192L135.963 7.67556C135.479 6.55417 134.447 5.07059 131.173 5.07059C131.02 5.07059 127.407 5.07058 127.213 7.54322C127.109 8.85267 128.646 9.63278 131.367 10.58L132.059 10.8238C132.343 10.9283 132.682 11.0328 133.049 11.1581C135.922 12.0915 141.896 14.0417 142.048 19.8368C142.084 20.8913 141.882 21.9403 141.457 22.9052C141.033 23.8701 140.397 24.726 139.598 25.4089C137.409 27.1914 134.651 28.1123 131.837 28Z" fill="#FF9C30"/>
<path d="M38.7606 28C30.4533 28 23.7382 21.7313 23.7382 14C23.7382 6.26866 30.474 0 38.7606 0C47.0472 0 53.7762 6.26866 53.7762 14C53.7762 21.7313 47.0403 28 38.7606 28ZM38.7606 5.01493C33.5062 5.01493 29.2349 9.04079 29.2349 13.993C29.2349 18.9453 33.5062 22.9642 38.7606 22.9642C44.015 22.9642 48.2794 18.9453 48.2794 13.993C48.2794 9.04079 44.0081 5.02188 38.7606 5.02188V5.01493Z" fill="#FF9C30"/>
</g>
<defs>
<clipPath id="clip0_108_6843">
<rect width="142" height="28" fill="white"/>
</clipPath>
</defs>
</svg>
