<svg width="21" height="21" viewBox="0 0 21 21" fill="none" xmlns="http://www.w3.org/2000/svg">
<path fill-rule="evenodd" clip-rule="evenodd" d="M6.2587 0.5H14.7413C15.5463 0.499988 16.2106 0.499977 16.7518 0.544195C17.3139 0.59012 17.8306 0.688684 18.316 0.935975C19.0686 1.31947 19.6805 1.93139 20.064 2.68404C20.3113 3.16937 20.4099 3.68608 20.4558 4.24817C20.5 4.78936 20.5 5.45372 20.5 6.25868V14.7413C20.5 15.5463 20.5 16.2106 20.4558 16.7518C20.4099 17.3139 20.3113 17.8306 20.064 18.316C19.6805 19.0686 19.0686 19.6805 18.316 20.064C17.8306 20.3113 17.3139 20.4099 16.7518 20.4558C16.2106 20.5 15.5463 20.5 14.7413 20.5H6.25868C5.45372 20.5 4.78936 20.5 4.24817 20.4558C3.68608 20.4099 3.16937 20.3113 2.68404 20.064C1.93139 19.6805 1.31947 19.0686 0.935975 18.316C0.688684 17.8306 0.59012 17.3139 0.544195 16.7518C0.499977 16.2106 0.499988 15.5463 0.5 14.7413V6.2587C0.499988 5.45373 0.499977 4.78937 0.544195 4.24817C0.59012 3.68608 0.688684 3.16937 0.935975 2.68404C1.31947 1.93139 1.93139 1.31947 2.68404 0.935975C3.16937 0.688684 3.68608 0.59012 4.24817 0.544195C4.78937 0.499977 5.45373 0.499988 6.2587 0.5ZM4.41104 2.53755C3.97262 2.57337 3.74842 2.6383 3.59202 2.71799C3.2157 2.90973 2.90973 3.2157 2.71799 3.59202C2.6383 3.74842 2.57337 3.97262 2.53755 4.41104C2.50078 4.86113 2.5 5.44342 2.5 6.3V14.7C2.5 15.5566 2.50078 16.1389 2.53755 16.589C2.57337 17.0274 2.6383 17.2516 2.71799 17.408C2.90973 17.7843 3.2157 18.0903 3.59202 18.282C3.74842 18.3617 3.97262 18.4266 4.41104 18.4624C4.86113 18.4992 5.44342 18.5 6.3 18.5H14.7C15.5566 18.5 16.1389 18.4992 16.589 18.4624C17.0274 18.4266 17.2516 18.3617 17.408 18.282C17.7843 18.0903 18.0903 17.7843 18.282 17.408C18.3617 17.2516 18.4266 17.0274 18.4624 16.589C18.4992 16.1389 18.5 15.5566 18.5 14.7V6.3C18.5 5.44342 18.4992 4.86113 18.4624 4.41104C18.4266 3.97262 18.3617 3.74842 18.282 3.59202C18.0903 3.2157 17.7843 2.90973 17.408 2.71799C17.2516 2.6383 17.0274 2.57337 16.589 2.53755C16.1389 2.50078 15.5566 2.5 14.7 2.5H6.3C5.44342 2.5 4.86113 2.50078 4.41104 2.53755ZM10.5 5.5C11.0523 5.5 11.5 5.94772 11.5 6.5V9.5H14.5C15.0523 9.5 15.5 9.94772 15.5 10.5C15.5 11.0523 15.0523 11.5 14.5 11.5H11.5V14.5C11.5 15.0523 11.0523 15.5 10.5 15.5C9.94772 15.5 9.5 15.0523 9.5 14.5V11.5H6.5C5.94772 11.5 5.5 11.0523 5.5 10.5C5.5 9.94772 5.94772 9.5 6.5 9.5H9.5V6.5C9.5 5.94772 9.94772 5.5 10.5 5.5Z" fill="#FF9C30"/>
</svg>
