<svg width="19" height="24" viewBox="0 0 19 24" fill="none" xmlns="http://www.w3.org/2000/svg">
<path d="M9.03694 23.9915C7.0014 24.0253 5.00918 23.3983 3.35568 22.2034C1.72922 20.9868 0.549207 19.2624 0 17.2996L4.60282 16.1237C4.8718 17.1813 5.48471 18.118 6.34395 18.7847C7.12605 19.3527 8.07282 19.6446 9.03694 19.6151C9.59944 19.6555 10.1642 19.5777 10.6952 19.3868C11.2262 19.1958 11.7119 18.8958 12.1215 18.5058C12.9108 17.7118 13.3265 16.4449 13.3265 14.7598V0H18.11V14.7598C18.11 17.5663 17.2906 19.8091 15.7001 21.4275C14.8226 22.2904 13.7786 22.9631 12.6326 23.4041C11.4865 23.8451 10.2628 24.045 9.03694 23.9915Z" fill="white"/>
</svg>
