<svg width="129" height="99" viewBox="0 0 129 99" fill="none" xmlns="http://www.w3.org/2000/svg">
<path d="M109.273 8.88806C123.729 30.2739 130.868 54.3966 128.199 82.1673C128.188 82.2848 128.127 82.3927 128.031 82.4635C117.084 90.5516 106.477 95.4602 96.0198 98.7154C95.9383 98.7403 95.8512 98.7389 95.7706 98.7115C95.69 98.684 95.6199 98.6319 95.5702 98.5625C93.1542 95.1801 90.959 91.6141 89.0358 87.8695C88.9254 87.649 89.0262 87.3833 89.2534 87.2964C92.7398 85.9747 96.055 84.3905 99.2438 82.515C99.495 82.3669 99.511 82.0047 99.279 81.8308C98.6022 81.3253 97.9318 80.794 97.2902 80.2628C97.1702 80.1646 97.0086 80.1452 96.8726 80.2113C76.1702 89.8304 53.4918 89.8304 32.5447 80.2113C32.4087 80.1501 32.2471 80.171 32.1303 80.2676C31.4903 80.7989 30.8183 81.3253 30.1479 81.8308C29.9159 82.0047 29.9351 82.3669 30.1879 82.515C33.3767 84.3551 36.6919 85.9747 40.1735 87.3028C40.3991 87.3898 40.5063 87.649 40.3943 87.8695C38.5127 91.619 36.3175 95.1849 33.8567 98.5673C33.7495 98.7041 33.5735 98.7669 33.4071 98.7154C22.9991 95.4602 12.3927 90.5516 1.44552 82.4635C1.35432 82.3927 1.28872 82.28 1.27912 82.1624C-0.951272 58.1412 3.59432 33.8189 20.1879 8.88323C20.2279 8.81723 20.2887 8.76571 20.3591 8.73512C28.5239 4.96475 37.2711 2.1909 46.4134 0.606762C46.5798 0.581004 46.7462 0.658279 46.8326 0.806389C47.9622 2.81876 49.2534 5.39942 50.127 7.50838C59.7638 6.02728 69.551 6.02728 79.3894 7.50838C80.263 5.4445 81.5094 2.81876 82.6342 0.806389C82.6742 0.732913 82.7363 0.674048 82.8116 0.638198C82.8869 0.602348 82.9715 0.591346 83.0534 0.606762C92.2006 2.19573 100.948 4.96958 109.106 8.73512C109.178 8.76571 109.237 8.81723 109.273 8.88806ZM55.0262 54.5608C55.127 47.4595 49.9814 41.5834 43.5223 41.5834C37.1159 41.5834 32.0199 47.408 32.0199 54.5608C32.0199 61.7119 37.2167 67.5365 43.5223 67.5365C49.9302 67.5365 55.0262 61.7119 55.0262 54.5608ZM97.5574 54.5608C97.6582 47.4595 92.5126 41.5834 86.055 41.5834C79.647 41.5834 74.551 47.408 74.551 54.5608C74.551 61.7119 79.7478 67.5365 86.055 67.5365C92.5126 67.5365 97.5574 61.7119 97.5574 54.5608Z" fill="#5865F2"/>
</svg>
