<svg width="129" height="177" viewBox="0 0 129 177" fill="none" xmlns="http://www.w3.org/2000/svg">
<path d="M5.05033 115.249L22.4471 3.76632C23.0498 -0.0290505 28.1483 -0.941242 29.9401 2.46319L48.64 37.4522L5.05033 115.249V115.249ZM128.75 142.338L112.151 39.6513C111.646 36.4586 107.656 35.1555 105.359 37.4522L0.75 142.338L58.6416 174.835C60.433 175.821 62.4446 176.337 64.4894 176.337C66.5341 176.337 68.5457 175.821 70.3372 174.835L128.75 142.338V142.338ZM81.7559 52.7477L68.3499 27.2552C66.8513 24.3558 62.7464 24.3558 61.2478 27.2552L2.36263 132.239L81.7559 52.7477V52.7477Z" fill="#F58220"/>
</svg>
