<svg width="129" height="49" viewBox="0 0 129 49" fill="none" xmlns="http://www.w3.org/2000/svg">
<path d="M10.4097 14.9135C10.1604 14.9135 10.0981 14.7889 10.2227 14.6019L11.5315 12.9193C11.6561 12.7323 11.9677 12.6077 12.217 12.6077H34.4657C34.7149 12.6077 34.7773 12.7946 34.6526 12.9816L33.5932 14.6019C33.4685 14.7889 33.1569 14.9759 32.9699 14.9759L10.4097 14.9135Z" fill="#2DBCAF"/>
<path d="M0.999285 20.647C0.750001 20.647 0.687679 20.5224 0.812321 20.3354L2.12107 18.6527C2.24571 18.4658 2.55731 18.3411 2.8066 18.3411H31.225C31.4743 18.3411 31.599 18.5281 31.5366 18.7151L31.0381 20.2108C30.9758 20.46 30.7265 20.5847 30.4772 20.5847L0.999285 20.647Z" fill="#2DBCAF"/>
<path d="M16.0811 26.3807C15.8318 26.3807 15.7695 26.1937 15.8941 26.0068L16.7666 24.4488C16.8912 24.2618 17.1405 24.0748 17.3898 24.0748H29.854C30.1033 24.0748 30.228 24.2618 30.228 24.5111L30.1033 26.0068C30.1033 26.2561 29.854 26.443 29.6671 26.443L16.0811 26.3807Z" fill="#2DBCAF"/>
<path d="M80.7704 13.7917C76.8442 14.7889 74.1644 15.5367 70.3004 16.5338C69.3656 16.7831 69.3033 16.8455 68.4931 15.9106C67.5583 14.8512 66.8728 14.1656 65.564 13.5424C61.6378 11.6105 57.8362 12.1714 54.2839 14.4773C50.0461 17.2194 47.8648 21.2703 47.9271 26.3183C47.9895 31.304 51.4171 35.4172 56.3405 36.1027C60.5783 36.6636 64.1306 35.1679 66.9351 31.9895C67.496 31.304 67.9946 30.5561 68.6178 29.6836C66.3742 29.6836 63.5698 29.6836 56.5898 29.6836C55.281 29.6836 54.9694 28.8734 55.4057 27.814C56.2159 25.882 57.7116 22.6413 58.5841 21.021C58.771 20.647 59.2073 20.0238 60.1421 20.0238C63.3205 20.0238 75.0368 20.0238 82.827 20.0238C82.7023 21.7065 82.7024 23.3892 82.4531 25.0718C81.7675 29.559 80.0849 33.6722 77.3427 37.2868C72.8556 43.2073 66.9974 46.8843 59.5812 47.8814C53.4737 48.6916 47.8025 47.5075 42.8168 43.7682C38.205 40.2782 35.5876 35.6664 34.902 29.9329C34.0919 23.1399 36.0861 17.0324 40.1993 11.6728C44.6241 5.87693 50.4823 2.19998 57.6492 0.891235C63.5074 -0.168225 69.1163 0.517308 74.1644 3.94497C77.4674 6.12621 79.8356 9.11763 81.3936 12.7323C81.7675 13.2931 81.5183 13.6048 80.7704 13.7917Z" fill="#2DBCAF"/>
<path d="M101.399 48.2553C95.7274 48.1306 90.5547 46.5103 86.1923 42.771C82.5153 39.5926 80.2094 35.5417 79.4616 30.743C78.3398 23.7007 80.2717 17.4686 84.5096 11.922C89.059 5.93919 94.5433 2.82313 101.96 1.51439C108.316 0.392608 114.299 1.01582 119.721 4.69277C124.644 8.05811 127.698 12.6076 128.508 18.5904C129.568 27.0037 127.137 33.8591 121.341 39.7173C117.228 43.8928 112.18 46.5103 106.384 47.6944C104.702 48.006 103.019 48.0683 101.399 48.2553ZM116.231 23.0775C116.169 22.2673 116.169 21.6441 116.044 21.0209C114.922 14.8511 109.251 11.3611 103.331 12.7322C97.5347 14.0409 93.7954 17.7179 92.4244 23.5761C91.3026 28.4371 93.6708 33.3605 98.1579 35.3548C101.586 36.8505 105.013 36.6635 108.316 34.9809C113.24 32.4257 115.919 28.4371 116.231 23.0775Z" fill="#2DBCAF"/>
</svg>
