<svg width="129" height="129" viewBox="0 0 129 129" fill="none" xmlns="http://www.w3.org/2000/svg">
<path d="M19.14 97.1965L14.54 94.5395L65.79 5.7785L70.387 8.4345L19.14 97.1965Z" fill="#E434AA"/>
<path d="M13.4841 87.4495H115.98V92.7595H13.4841V87.4495Z" fill="#E434AA"/>
<path d="M66.7811 120.032L15.5161 90.4345L18.1721 85.8325L69.4381 115.434L66.7811 120.032ZM111.316 42.8875L60.0511 13.2855L62.7071 8.68848L113.973 38.2855L111.316 42.8875Z" fill="#E434AA"/>
<path d="M18.1841 42.8675L15.5271 38.2665L66.7971 8.66846L69.4531 13.2665L18.1841 42.8675Z" fill="#E434AA"/>
<path d="M110.371 97.1965L59.125 8.4345L63.723 5.7785L114.973 94.5395L110.371 97.1965ZM17.55 34.7425H22.8631V93.9465H17.5511L17.55 34.7425Z" fill="#E434AA"/>
<path d="M106.637 34.7425H111.949V93.9465H106.637V34.7425Z" fill="#E434AA"/>
<path d="M65.8791 117.786L63.5591 113.766L108.145 88.0205L110.465 92.0405L65.8791 117.786Z" fill="#E434AA"/>
<path d="M118.988 95.6725C115.918 101.016 109.07 102.84 103.727 99.7705C98.3831 96.6965 96.5591 89.8485 99.6291 84.5045C102.703 79.1605 109.551 77.3365 114.895 80.4075C120.27 83.5125 122.094 90.3285 118.988 95.6725ZM29.8401 44.1845C26.7661 49.5285 19.9181 51.3525 14.5741 48.2815C9.2301 45.2075 7.4061 38.3605 10.4771 33.0165C13.5511 27.6725 20.3981 25.8485 25.7421 28.9185C31.0861 32.0245 32.9101 38.8405 29.8401 44.1845ZM10.5121 95.6725C7.4371 90.3285 9.2621 83.5125 14.6051 80.4065C19.9491 77.3365 26.7651 79.1605 29.8711 84.5045C32.9411 89.8485 31.1171 96.6645 25.7731 99.7705C20.3981 102.84 13.5821 101.016 10.5121 95.6725ZM99.6601 44.1845C96.5901 38.8405 98.4141 32.0245 103.758 28.9185C109.102 25.8485 115.918 27.6725 119.023 33.0165C122.093 38.3605 120.27 45.1765 114.926 48.2825C109.582 51.3525 102.734 49.5285 99.6601 44.1845ZM64.7501 127C63.2831 127.002 61.8303 126.714 60.4747 126.153C59.1192 125.592 57.8875 124.77 56.8502 123.732C55.8129 122.695 54.9903 121.463 54.4295 120.108C53.8688 118.752 53.5808 117.299 53.5821 115.832C53.5808 114.366 53.8688 112.913 54.4295 111.557C54.9903 110.202 55.8129 108.97 56.8502 107.933C57.8875 106.895 59.1192 106.073 60.4747 105.512C61.8303 104.951 63.2831 104.663 64.7501 104.664C66.2171 104.663 67.6699 104.951 69.0255 105.512C70.381 106.073 71.6127 106.895 72.65 107.933C73.6873 108.97 74.5099 110.202 75.0707 111.557C75.6314 112.913 75.9194 114.366 75.9181 115.832C75.9181 121.977 70.9261 127 64.7501 127ZM64.7501 24.0245C63.2831 24.0258 61.8303 23.7378 60.4747 23.177C59.1192 22.6163 57.8875 21.7937 56.8502 20.7564C55.8129 19.7191 54.9903 18.4874 54.4295 17.1318C53.8688 15.7763 53.5808 14.3235 53.5821 12.8565C53.5808 11.3895 53.8688 9.93667 54.4295 8.58112C54.9903 7.22556 55.8129 5.99389 56.8502 4.95658C57.8875 3.91927 59.1192 3.09669 60.4747 2.53592C61.8303 1.97514 63.2831 1.68717 64.7501 1.68848C66.2171 1.68717 67.6699 1.97514 69.0255 2.53592C70.381 3.09669 71.6127 3.91927 72.65 4.95658C73.6873 5.99389 74.5099 7.22556 75.0707 8.58112C75.6314 9.93667 75.9194 11.3895 75.9181 12.8565C75.9194 14.3235 75.6314 15.7763 75.0707 17.1318C74.5099 18.4874 73.6873 19.7191 72.65 20.7564C71.6127 21.7937 70.381 22.6163 69.0255 23.177C67.6699 23.7378 66.2171 24.0258 64.7501 24.0245Z" fill="#E434AA"/>
</svg>
