<svg width="129" height="129" viewBox="0 0 129 129" fill="none" xmlns="http://www.w3.org/2000/svg">
<path d="M108.773 16.6666H62.5552C62.5552 28.1866 71.8792 37.5146 83.4022 37.5146H91.9022V45.7406C91.9022 57.2606 101.23 66.5886 112.75 66.5886V20.6436C112.749 19.5891 112.33 18.578 111.584 17.8323C110.839 17.0867 109.828 16.6674 108.773 16.6666Z" fill="#2684FF"/>
<path d="M85.8709 39.7066H39.6519C39.6519 51.2256 48.9769 60.5536 60.4959 60.5536H68.9999V68.7796C68.9999 80.2996 78.3279 89.6276 89.8479 89.6276V43.6826C89.8463 42.6283 89.4268 41.6176 88.6813 40.8722C87.9358 40.1267 86.9251 39.7072 85.8709 39.7056V39.7066Z" fill="url(#paint0_linear_901_30787)"/>
<path d="M62.969 62.7446H16.75C16.75 74.2686 26.074 83.5926 37.598 83.5926H46.098V91.8226C46.098 103.343 55.426 112.667 66.945 112.667V66.7256C66.9439 65.6711 66.5248 64.66 65.7795 63.9139C65.0342 63.1679 64.0235 62.7477 62.969 62.7456V62.7446Z" fill="url(#paint1_linear_901_30787)"/>
<defs>
<linearGradient id="paint0_linear_901_30787" x1="88.8859" y1="39.7586" x2="69.2219" y2="60.0346" gradientUnits="userSpaceOnUse">
<stop offset="0.176" stop-color="#0052CC"/>
<stop offset="1" stop-color="#2684FF"/>
</linearGradient>
<linearGradient id="paint1_linear_901_30787" x1="67.314" y1="62.9226" x2="44.578" y2="85.0426" gradientUnits="userSpaceOnUse">
<stop offset="0.176" stop-color="#0052CC"/>
<stop offset="1" stop-color="#2684FF"/>
</linearGradient>
</defs>
</svg>
