<svg width="128" height="128" viewBox="0 0 128 128" fill="none" xmlns="http://www.w3.org/2000/svg">
<path d="M116.948 97.807C110.085 97.62 104.844 98.259 100.363 100.148C99.09 100.685 97.058 100.7 96.85 102.295C97.55 103.028 97.659 104.124 98.215 105.026C99.285 106.756 101.091 109.078 102.703 110.294C104.465 111.624 106.28 113.045 108.168 114.196C111.526 116.243 115.275 117.413 118.508 119.464C120.414 120.674 122.307 122.197 124.166 123.561C125.086 124.236 125.703 125.285 126.898 125.708V125.514C126.27 124.714 126.108 123.616 125.532 122.781L122.995 120.244C120.515 116.952 117.366 114.06 114.019 111.659C111.35 109.743 105.377 107.155 104.264 104.05L104.069 103.855C105.961 103.641 108.176 102.957 109.923 102.488C112.857 101.702 115.479 101.905 118.508 101.123L122.605 99.952V99.172C121.074 97.601 119.982 95.521 118.313 94.099C113.943 90.379 109.175 86.662 104.265 83.562C101.541 81.844 98.176 80.727 95.289 79.27C94.318 78.779 92.612 78.524 91.971 77.708C90.454 75.776 89.629 73.326 88.46 71.075C86.011 66.358 83.606 61.207 81.436 56.244C79.956 52.86 78.989 49.524 77.143 46.488C68.283 31.921 58.747 23.13 43.974 14.488C40.83 12.65 37.045 11.925 33.045 10.975C30.9 10.846 28.753 10.715 26.607 10.584C25.296 10.038 23.934 8.435 22.705 7.657C17.811 4.565 5.25699 -2.16 1.63299 6.682C-0.656007 12.263 5.05399 17.707 7.09499 20.536C8.52899 22.518 10.364 24.743 11.388 26.974C12.062 28.441 12.178 29.912 12.755 31.463C14.172 35.285 15.407 39.443 17.242 42.974C18.169 44.762 19.191 46.644 20.364 48.242C21.082 49.223 22.315 49.655 22.509 51.169C21.305 52.855 21.236 55.473 20.559 57.609C17.509 67.224 18.66 79.176 23.096 86.292C24.456 88.478 27.663 93.163 32.071 91.365C35.927 89.795 35.066 84.927 36.169 80.633C36.418 79.66 36.265 78.944 36.754 78.292V78.487L40.267 85.511C42.867 89.698 47.479 94.073 51.389 97.025C53.416 98.556 55.012 101.202 57.633 102.098V101.902H57.438C56.93 101.111 56.135 100.783 55.487 100.147C53.96 98.65 52.262 96.789 51 95.074C47.444 90.247 44.302 84.964 41.439 79.465C40.071 76.838 38.882 73.942 37.73 71.269C37.286 70.239 37.292 68.68 36.366 68.147C35.103 70.105 33.244 71.689 32.268 74.001C30.707 77.697 30.506 82.205 29.927 86.879C29.585 87.001 29.737 86.917 29.536 87.073C26.818 86.418 25.864 83.621 24.853 81.22C22.299 75.15 21.824 65.378 24.072 58.391C24.654 56.582 27.282 50.89 26.218 49.219C25.71 47.553 24.034 46.589 23.097 45.316C21.936 43.742 20.778 41.67 19.973 39.852C17.883 35.121 16.907 29.808 14.706 25.024C13.653 22.737 11.874 20.422 10.413 18.39C8.79599 16.137 6.98399 14.478 5.72999 11.755C5.28399 10.787 4.67899 9.237 5.33899 8.242C5.54899 7.571 5.84699 7.291 6.50999 7.072C7.64199 6.199 10.794 7.362 11.972 7.851C15.101 9.151 17.713 10.389 20.364 12.145C21.635 12.989 22.923 14.62 24.461 15.072H26.217C28.964 15.703 32.041 15.267 34.608 16.047C39.144 17.425 43.209 19.57 46.9 21.901C58.146 29.003 67.342 39.111 73.632 51.17C74.644 53.112 75.082 54.964 75.973 57.024C77.771 61.177 80.036 65.45 81.825 69.512C83.611 73.564 85.351 77.653 87.875 81.025C89.202 82.797 94.326 83.748 96.656 84.733C98.288 85.422 100.963 86.142 102.51 87.073C105.463 88.855 108.325 90.976 111.096 92.928C112.479 93.903 116.736 96.044 116.948 97.807ZM29.729 23.466C28.298 23.439 27.286 23.622 26.216 23.855V24.05H26.411C27.094 25.452 28.299 26.356 29.142 27.563C29.792 28.93 30.443 30.295 31.094 31.66L31.288 31.467C32.497 30.614 33.05 29.253 33.043 27.173C32.559 26.664 32.488 26.026 32.068 25.418C31.512 24.607 30.433 24.146 29.729 23.466Z" fill="#00618A"/>
</svg>
