<svg width="129" height="129" viewBox="0 0 129 129" fill="none" xmlns="http://www.w3.org/2000/svg">
<path d="M76.1499 0.64447C75.2499 0.64447 74.3499 0.84447 73.5499 1.14447C75.2499 2.24447 76.1499 3.74447 76.6499 5.44447C76.6499 5.64447 76.7499 5.84447 76.7499 6.04447C76.7499 6.24447 76.8499 6.44447 76.8499 6.64447C76.9499 9.54447 76.0499 9.94447 75.4499 11.6445C74.4499 13.8445 74.7499 16.2445 75.9499 18.1445C76.0499 18.3445 76.1499 18.6445 76.3499 18.8445C75.0499 10.4445 82.0499 9.24447 83.3499 6.64447C83.4499 4.34447 81.5499 2.84447 80.0499 1.74447C78.5499 0.84447 77.3499 0.64447 76.1499 0.64447ZM86.6499 2.44447C86.5499 3.24447 86.6499 3.04447 86.5499 3.44447C86.5499 3.74447 86.5499 4.04447 86.4499 4.34447C86.3499 4.64447 86.3499 4.84447 86.2499 5.14447C86.1499 5.44447 86.0499 5.64447 85.9499 5.94447C85.8499 6.14447 85.7499 6.34447 85.6499 6.64447C85.5499 6.74447 85.4499 6.94447 85.3499 7.04447C85.2499 7.14447 85.2499 7.24447 85.1499 7.34447C84.9499 7.54447 84.8499 7.84447 84.6499 8.04447L84.0499 8.64447C83.8499 8.84447 83.6499 9.04447 83.4499 9.14447C82.7499 9.64447 81.9499 10.0445 81.2499 10.5445C81.0499 10.7445 80.7499 10.8445 80.5499 11.0445C80.3499 11.2445 80.1499 11.3445 79.9499 11.5445L79.3499 12.1445C79.1499 12.3445 78.9499 12.5445 78.8499 12.8445C78.6499 13.0445 78.5499 13.3445 78.3499 13.5445C78.2499 13.8445 78.1499 14.0445 77.9499 14.3445C77.8499 14.6445 77.7499 14.8445 77.6499 15.1445C77.5499 15.4445 77.4499 15.7445 77.4499 15.9445C77.4499 16.0445 77.4499 16.2445 77.3499 16.3445C77.3499 16.4445 77.3499 16.6445 77.2499 16.7445V18.1445C77.2499 18.4445 77.2499 18.6445 77.3499 18.9445C77.3499 19.2445 77.4499 19.4445 77.5499 19.7445C77.6499 20.0445 77.7499 20.2445 77.8499 20.5445C77.9499 20.7445 78.0499 20.8445 78.0499 21.0445L70.4499 18.1445C69.1499 17.7445 67.9499 17.4445 66.6499 17.1445C65.9499 16.9445 65.2499 16.8445 64.5499 16.6445C62.5499 16.2445 60.5499 15.9445 58.5499 15.7445H58.3499C56.3499 15.5445 54.4499 15.4445 52.4499 15.4445C50.9499 15.4445 49.5499 15.5445 48.1499 15.6445C46.1499 15.7445 44.1499 16.0445 42.1499 16.3445L40.6499 16.6445C39.6499 16.8445 38.6499 17.0445 37.6499 17.3445C37.1499 17.4445 36.6499 17.6445 36.1499 17.7445C35.6499 17.9445 35.1499 18.1445 34.7499 18.3445C34.3499 18.5445 34.0499 18.6445 33.6499 18.8445C33.5499 18.8445 33.5499 18.8445 33.4499 18.9445C33.1499 19.1445 32.8499 19.2445 32.5499 19.4445C32.4499 19.4445 32.3499 19.5445 32.3499 19.5445C31.9499 19.7445 31.6499 19.9445 31.3499 20.0445C31.1499 20.1445 30.8499 20.2445 30.6499 20.3445C30.5499 20.4445 30.4499 20.4445 30.3499 20.5445C30.0499 20.7445 29.7499 20.8445 29.4499 21.0445C29.1499 21.2445 28.8499 21.3445 28.6499 21.5445C28.4499 21.7445 28.1499 21.8445 27.9499 22.0445C27.9499 22.0445 27.8499 22.0445 27.8499 22.1445C27.6499 22.2445 27.4499 22.4445 27.2499 22.6445L27.1499 22.7445C26.9499 22.8445 26.8499 23.0445 26.6499 23.1445C26.5499 23.1445 26.5499 23.2445 26.4499 23.2445C26.2499 23.3445 26.1499 23.5445 25.9499 23.6445C25.9499 23.7445 25.8499 23.7445 25.8499 23.7445L25.2499 24.3445L25.1499 24.4445L24.5499 25.0445C24.5499 25.0445 24.5499 25.1445 24.4499 25.1445L23.9499 25.6445C23.8499 25.7445 23.7499 25.7445 23.7499 25.8445L23.1499 26.4445C23.1499 26.5445 23.0499 26.5445 23.0499 26.6445L22.2499 27.4445L22.1499 27.5445C21.6499 28.1445 21.0499 28.6445 20.4499 29.1445C19.8499 29.6445 19.2499 30.1445 18.5499 30.6445C17.8499 31.1445 17.2499 31.5445 16.5499 31.9445C15.8499 32.3445 15.1499 32.6445 14.4499 32.9445C13.7499 33.2445 13.0499 33.5445 12.3499 33.7445C10.9499 34.0445 9.5499 34.6445 8.3499 34.7445C8.3499 34.2445 8.0499 34.3445 7.7499 34.3445C7.4499 34.4445 7.1499 34.4445 6.9499 34.5445C6.6499 34.6445 6.4499 34.7445 6.1499 34.8445C5.8499 34.9445 5.6499 35.0445 5.3499 35.2445C5.1499 35.4445 4.8499 35.5445 4.6499 35.7445C4.4499 35.9445 4.1499 36.1445 3.9499 36.3445C3.7499 36.5445 3.4499 36.7445 3.2499 36.9445C3.0499 37.1445 2.8499 37.3445 2.6499 37.6445C2.4499 37.9445 2.2499 38.1445 2.1499 38.4445C1.9499 38.6445 1.8499 38.9445 1.6499 39.2445C1.5499 39.5445 1.3499 39.8445 1.2499 40.1445L0.949902 41.0445C0.849902 41.3445 0.849902 41.5445 0.749902 41.8445V41.9445C0.649902 42.2445 0.649902 42.6445 0.649902 42.8445C0.749902 42.7445 0.749902 42.9445 0.749902 43.1445V43.5445C0.749902 43.7445 0.849902 43.9445 0.849902 44.1445C0.949902 44.3445 0.949902 44.5445 1.0499 44.7445C1.1499 44.9445 1.2499 45.1445 1.4499 45.3445C1.5499 45.5445 1.7499 45.7445 1.8499 45.9445C2.0499 46.1445 2.2499 46.3445 2.4499 46.4445C2.6499 46.6445 2.8499 46.8445 3.0499 46.9445C3.8499 47.6445 4.0499 47.8445 5.0499 48.4445C5.2499 48.5445 5.3499 48.6445 5.5499 48.7445H5.6499V48.9445C5.6499 49.2445 5.7499 49.4445 5.8499 49.7445C5.9499 50.0445 6.0499 50.3445 6.1499 50.5445L6.4499 51.1445C6.4499 51.2445 6.5499 51.2445 6.5499 51.3445C6.6499 51.6445 6.8499 51.8445 6.9499 52.0445C7.1499 52.2445 7.2499 52.5445 7.4499 52.7445L8.0499 53.3445L8.6499 53.9445H8.7499C8.9499 54.1445 9.1499 54.2445 9.3499 54.4445C9.5499 54.6445 9.8499 54.7445 10.0499 54.8445C10.2499 54.9445 10.5499 55.1445 10.8499 55.2445C11.0499 55.3445 11.2499 55.4445 11.5499 55.4445C11.5499 55.4445 11.6499 55.4445 11.6499 55.5445C11.7499 55.5445 11.9499 55.6445 12.0499 55.6445C11.9499 57.4445 11.9499 59.1445 12.1499 59.7445C12.4499 60.4445 13.9499 58.3445 15.3499 56.0445C15.1499 58.3445 15.0499 61.0445 15.3499 61.8445C15.7499 62.6445 17.6499 60.0445 19.4499 57.2445C42.8499 51.8445 64.2499 68.0445 66.5499 90.9445C66.1499 87.3445 61.7499 85.3445 59.6499 85.8445C58.6499 88.2445 56.9499 91.4445 54.2499 93.3445C54.4499 91.1445 54.3499 88.9445 53.9499 86.7445C53.2499 89.7445 51.8499 92.6445 49.8499 95.0445C46.7499 95.2445 43.5499 93.7445 41.9499 91.4445C41.8499 91.3445 41.7499 91.1445 41.6499 91.0445C41.5499 90.8445 41.4499 90.5445 41.3499 90.3445C41.2499 90.1445 41.1499 89.8445 41.1499 89.6445V88.9445V88.4445C41.1499 88.2445 41.2499 87.9445 41.3499 87.7445C41.4499 87.5445 41.4499 87.2445 41.5499 87.0445C41.6499 86.8445 41.7499 86.5445 41.9499 86.3445C42.5499 84.7445 42.5499 83.4445 41.4499 82.7445L40.8499 82.4445C40.7499 82.4445 40.5499 82.3445 40.4499 82.3445C40.3499 82.3445 40.2499 82.2445 40.1499 82.2445C39.9499 82.1445 39.6499 82.1445 39.4499 82.0445C39.2499 81.9445 38.9499 81.9445 38.7499 81.9445C38.5499 81.9445 38.2499 81.8445 38.0499 81.8445H37.5499C37.2499 81.8445 37.0499 81.8445 36.8499 81.9445C36.6499 81.9445 36.3499 82.0445 36.1499 82.0445C35.9499 82.1445 35.6499 82.1445 35.4499 82.2445C35.2499 82.3445 35.0499 82.4445 34.7499 82.5445L34.1499 82.8445C26.4499 87.8445 31.0499 99.6445 36.2499 103.044C34.2499 103.444 32.2499 103.844 31.6499 104.244L31.5499 104.344C32.9499 105.244 34.4499 105.944 36.0499 106.544C38.1499 107.244 40.4499 107.844 41.4499 108.144C44.1499 108.744 46.9499 108.944 49.7499 108.744C64.3499 107.744 76.3499 96.5445 78.5499 81.9445C78.6499 82.2445 78.6499 82.5445 78.7499 82.8445C78.8499 83.4445 78.9499 84.0445 79.0499 84.7445C79.1499 85.0445 79.1499 85.3445 79.1499 85.6445V85.7445C79.1499 86.0445 79.2499 86.3445 79.2499 86.6445C79.2499 87.0445 79.3499 87.3445 79.3499 87.7445V91.9445C79.3499 92.2445 79.2499 92.4445 79.2499 92.7445V93.0445C79.2499 93.3445 79.1499 93.6445 79.1499 94.0445C79.0499 94.3445 79.0499 94.6445 78.9499 94.9445V95.0445C78.8499 95.3445 78.8499 95.6445 78.7499 95.9445V96.0445C78.6499 96.3445 78.6499 96.6445 78.5499 96.9445V97.0445L78.2499 97.9445V98.0445C78.1499 98.3445 78.0499 98.7445 77.9499 99.0445C77.8499 99.3445 77.7499 99.6445 77.5499 100.044C77.4499 100.344 77.3499 100.744 77.1499 101.044C77.0499 101.344 76.8499 101.644 76.7499 102.044C76.6499 102.344 76.4499 102.644 76.3499 102.944C76.3499 103.044 76.2499 103.144 76.2499 103.144C76.2499 103.144 76.2499 103.244 76.1499 103.244C74.0499 107.544 70.8499 111.344 66.8499 114.344C66.5499 114.544 66.3499 114.744 66.0499 114.944C65.9499 115.044 65.8499 115.044 65.8499 115.144C65.6499 115.344 65.3499 115.444 65.1499 115.644L65.2499 115.844C65.7499 115.744 66.1499 115.744 66.6499 115.644C67.5499 115.544 68.3499 115.344 69.2499 115.144C69.4499 115.144 69.7499 115.044 69.9499 114.944C70.1499 114.944 70.2499 114.844 70.4499 114.844C70.6499 114.844 70.9499 114.744 71.1499 114.744C71.3499 114.644 71.5499 114.644 71.7499 114.544C75.0499 113.744 78.2499 112.644 81.3499 111.344C76.0499 118.544 69.0499 124.344 60.8499 128.144C64.6499 127.844 68.4499 127.244 72.1499 126.144C85.4499 122.244 96.6499 113.244 103.35 101.144C101.95 108.744 98.9499 116.044 94.4499 122.444C97.6499 120.344 100.55 117.844 103.25 115.144C110.65 107.444 115.55 97.5445 117.15 87.0445C118.25 92.2445 118.65 97.6445 118.15 102.944C142.05 69.6445 120.15 35.1445 110.95 26.0445C110.95 25.9445 110.85 25.9445 110.85 25.8445C110.85 26.2445 110.85 26.6445 110.75 27.0445C110.65 27.8445 110.55 28.5445 110.45 29.2445C110.25 29.9445 110.05 30.7445 109.85 31.4445C109.65 32.1445 109.35 32.8445 109.05 33.5445C108.75 34.2445 108.45 34.9445 108.05 35.5445C107.65 36.1445 107.25 36.8445 106.85 37.4445C106.45 38.0445 105.95 38.6445 105.45 39.2445C104.95 39.8445 104.45 40.3445 103.85 40.9445C103.55 41.2445 103.25 41.5445 102.85 41.7445C102.55 41.9445 102.35 42.1445 102.05 42.4445C101.45 42.9445 100.85 43.3445 100.15 43.7445C99.5499 44.1445 98.8499 44.5445 98.1499 44.8445L96.0499 45.7445C95.3499 46.0445 94.6499 46.2445 93.9499 46.4445C93.2499 46.6445 92.4499 46.8445 91.7499 46.9445C90.9499 47.0445 90.2499 47.1445 89.5499 47.2445C89.0499 47.2445 88.4499 47.3445 87.9499 47.3445C87.1499 47.3445 86.4499 47.2445 85.7499 47.2445C84.9499 47.1445 84.2499 47.0445 83.5499 46.9445C82.7499 46.8445 82.0499 46.6445 81.3499 46.3445C82.0499 46.2445 82.8499 46.2445 83.5499 46.0445C84.3499 45.9445 85.0499 45.7445 85.7499 45.5445C86.4499 45.3445 87.2499 45.1445 87.8499 44.8445L89.9499 43.9445C90.6499 43.6445 91.2499 43.2445 91.9499 42.8445C92.5499 42.4445 93.2499 41.9445 93.8499 41.5445C94.4499 41.0445 95.0499 40.5445 95.5499 40.0445C96.1499 39.5445 96.6499 38.9445 97.1499 38.4445C97.6499 37.8445 98.1499 37.2445 98.5499 36.6445C98.6499 36.5445 98.6499 36.4445 98.7499 36.3445C99.0499 35.8445 99.4499 35.2445 99.7499 34.7445C100.15 34.0445 100.45 33.4445 100.75 32.7445C101.05 32.0445 101.35 31.3445 101.55 30.6445L102.15 28.5445C102.25 27.7445 102.45 27.0445 102.45 26.3445C102.55 25.5445 102.55 24.8445 102.55 24.1445C102.55 23.6445 102.55 23.0445 102.45 22.5445C102.35 21.7445 102.25 21.0445 102.15 20.3445C102.05 19.5445 101.85 18.8445 101.65 18.1445C101.45 17.4445 101.15 16.7445 100.95 16.0445C100.65 15.3445 100.35 14.6445 100.05 14.0445C99.6499 13.3445 99.3499 12.7445 98.9499 12.0445C98.5499 11.4445 98.0499 10.8445 97.6499 10.2445C97.1499 9.64447 96.6499 9.14447 96.1499 8.54447C95.8499 8.24447 95.5499 7.94447 95.2499 7.74447C93.7499 6.54447 92.2499 5.54447 90.6499 4.54447C90.4499 4.44447 90.2499 4.34447 89.9499 4.24447C88.6499 3.14447 87.6499 2.84447 86.6499 2.44447Z" fill="#DF234F"/>
</svg>
