<svg width="129" height="134" viewBox="0 0 129 134" fill="none" xmlns="http://www.w3.org/2000/svg">
<path fill-rule="evenodd" clip-rule="evenodd" d="M82.7953 0.304068L8.79629 5.74937C2.82941 6.26574 0.75 10.1555 0.75 14.8188V95.6962C0.75 99.3299 2.04617 102.436 5.16317 106.587L22.5583 129.139C25.4156 132.771 28.0123 133.548 33.4683 133.288L119.403 128.102C126.671 127.586 128.75 124.214 128.75 118.511V27.522C128.75 24.5743 127.583 23.7228 124.142 21.2126C123.953 21.0745 123.756 20.9314 123.553 20.7826L99.9319 4.19281C94.2204 0.046944 91.8824 -0.474742 82.7953 0.304068ZM35.4168 26.0295C28.4008 26.5029 26.8066 26.6104 22.8223 23.3761L12.6902 15.3403C11.6568 14.3012 12.1751 13.005 14.7696 12.7479L85.9113 7.56291C91.8814 7.04335 94.9962 9.12054 97.3343 10.9342L109.536 19.7487C110.056 20.0069 111.352 21.5603 109.793 21.5603L36.3225 25.9686L35.4168 26.0295ZM27.2333 117.732V40.4857C27.2333 37.1164 28.2719 35.5599 31.3857 35.2985L115.764 30.3749C118.626 30.1157 119.922 31.9315 119.922 35.2985V112.027C119.922 115.399 119.402 118.254 114.727 118.511L33.9823 123.18C29.3095 123.437 27.2333 121.884 27.2333 117.732ZM106.944 44.6292C107.461 46.9646 106.944 49.2978 104.603 49.5602L100.712 50.3348V107.363C97.3342 109.177 94.2194 110.214 91.6238 110.214C87.4682 110.214 86.4275 108.917 83.3147 105.031L57.8669 65.1109V103.735L65.9195 105.551C65.9195 105.551 65.9195 110.214 59.4228 110.214L41.5125 111.253C40.9921 110.214 41.5125 107.624 43.3291 107.105L48.0029 105.811V54.7431L41.5135 54.2235C40.9932 51.8882 42.2893 48.5211 45.9268 48.2598L65.1405 46.9656L91.6238 87.4053V51.631L84.8716 50.8565C84.3533 48.0016 86.4275 45.9286 89.024 45.6715L106.944 44.6292Z" fill="black"/>
</svg>
