<svg width="129" height="69" viewBox="0 0 129 69" fill="none" xmlns="http://www.w3.org/2000/svg">
<path d="M0.75 34.3445C0.75 52.9377 29.4044 68.0109 64.7499 68.0109C100.095 68.0109 128.75 52.9377 128.75 34.3445C128.75 15.7515 100.095 0.678116 64.7499 0.678116C29.4044 0.678116 0.75 15.7515 0.75 34.3445Z" fill="url(#paint0_radial_901_30705)"/>
<path d="M64.7499 65.5112C98.7149 65.5112 126.25 51.5573 126.25 34.3444C126.25 17.1317 98.7149 3.17754 64.7499 3.17754C30.7849 3.17754 3.25 17.1317 3.25 34.3444C3.25 51.5573 30.7849 65.5112 64.7499 65.5112Z" fill="#777BB3"/>
<path d="M35.5216 38.2087C38.3145 38.2087 40.3994 37.6937 41.7186 36.6784C43.0237 35.6735 43.9251 33.9325 44.3975 31.5041C44.8381 29.2342 44.6702 27.6492 43.8989 26.7939C43.1103 25.9203 41.4052 25.4772 38.8311 25.4772H34.3679L31.8936 38.2087H35.5216ZM20.9237 53.8915C20.7166 53.8915 20.5198 53.7989 20.3881 53.6388C20.2562 53.4788 20.2027 53.2682 20.2423 53.0647L26.7997 19.3261C26.8631 18.9999 27.149 18.7643 27.4814 18.7643H41.6142C46.0559 18.7643 49.3619 19.9703 51.4399 22.3492C53.529 24.7407 54.1741 28.0835 53.3573 32.2846C53.0248 33.9962 52.4531 35.5858 51.6579 37.0089C50.8619 38.4337 49.8098 39.752 48.5304 40.9279C46.9989 42.3612 45.2656 43.4006 43.3832 44.0122C41.5307 44.6156 39.1515 44.9216 36.3119 44.9216H30.5892L28.955 53.3295C28.8916 53.6559 28.6059 53.8915 28.2735 53.8915H20.9237Z" fill="black"/>
<path d="M34.9405 26.1716H38.8313C41.938 26.1716 43.0171 26.8533 43.3838 27.2595C43.9921 27.9341 44.107 29.3563 43.716 31.3723C43.2766 33.6292 42.4623 35.2294 41.2952 36.128C40.1003 37.0479 38.1577 37.5141 35.5218 37.5141H32.7361L34.9405 26.1716ZM41.6144 18.0697H27.4813C26.8165 18.0697 26.245 18.541 26.1181 19.1936L19.5607 52.9322C19.4815 53.3394 19.5885 53.7604 19.8521 54.0806C20.116 54.4007 20.5091 54.5859 20.9239 54.5859H28.2734C28.9385 54.5859 29.51 54.1146 29.6368 53.462L31.1618 45.616H36.3121C39.2246 45.616 41.6764 45.2984 43.5989 44.6722C45.5759 44.0299 47.3949 42.9408 49.0049 41.4352C50.3363 40.2102 51.4331 38.8352 52.2641 37.3479C53.0954 35.8602 53.6926 34.2012 54.0391 32.4169C54.8991 27.9947 54.2005 24.4535 51.963 21.8924C49.7472 19.3558 46.2653 18.0697 41.6144 18.0697ZM31.0512 38.903H35.5218C38.485 38.903 40.6921 38.3449 42.1424 37.2285C43.5928 36.1118 44.5711 34.2482 45.0794 31.6366C45.5657 29.1292 45.3442 27.3598 44.4148 26.329C43.4843 25.2982 41.6234 24.7827 38.8313 24.7827H33.7956L31.0512 38.903ZM41.6144 19.4586C45.866 19.4586 48.9676 20.5744 50.9171 22.8061C52.8664 25.0378 53.4535 28.1528 52.6757 32.1521C52.3555 33.7996 51.8141 35.3058 51.0518 36.6704C50.2887 38.0359 49.2921 39.2845 48.0607 40.4167C46.5931 41.7901 44.9627 42.7688 43.1688 43.3516C41.3748 43.9361 39.0898 44.2271 36.3121 44.2271H30.0167L28.2734 53.197H20.9239L27.4813 19.4586H41.6144Z" fill="white"/>
<path d="M70.2087 44.9216C70.0013 44.9216 69.8048 44.829 69.6731 44.6689C69.5409 44.5089 69.4874 44.2985 69.527 44.0948L72.4277 29.1668C72.7036 27.7471 72.6356 26.7281 72.2363 26.2976C71.9918 26.0344 71.2576 25.593 69.0865 25.593H63.8314L60.1845 44.3596C60.121 44.686 59.8351 44.9216 59.5027 44.9216H52.2111C52.0037 44.9216 51.8072 44.829 51.6752 44.6689C51.5433 44.5089 51.4898 44.2983 51.5294 44.0948L58.0868 10.3562C58.1502 10.03 58.4361 9.79438 58.7685 9.79438H66.0601C66.2675 9.79438 66.4641 9.88697 66.596 10.0469C66.728 10.2071 66.7814 10.4175 66.7418 10.6212L65.1594 18.7643H70.8127C75.1194 18.7643 78.0397 19.5235 79.7407 21.0856C81.4745 22.6791 82.0154 25.227 81.3488 28.6594L78.2978 44.3596C78.2344 44.686 77.9488 44.9216 77.6161 44.9216H70.2087Z" fill="black"/>
<path d="M66.0603 9.09977H58.7686C58.1036 9.09977 57.5321 9.57106 57.4052 10.2236L50.8478 43.9622C50.7686 44.3694 50.8756 44.7904 51.1395 45.1106C51.4034 45.4307 51.7964 45.6159 52.2112 45.6159H59.5029C60.1677 45.6159 60.7395 45.1446 60.8663 44.4921L64.404 26.2872H69.0867C71.254 26.2872 71.7089 26.7502 71.7272 26.7701C71.8587 26.9115 72.0316 27.5666 71.7461 29.0342L68.8455 43.9622C68.7663 44.3694 68.8732 44.7904 69.1371 45.1106C69.401 45.4307 69.7941 45.6159 70.2089 45.6159H77.6163C78.2811 45.6159 78.8528 45.1446 78.9797 44.4921L82.0304 28.7919C82.7464 25.1065 82.1339 22.3419 80.2107 20.5743C78.3755 18.8889 75.3015 18.0697 70.8128 18.0697H66.0017L67.4237 10.7537C67.5026 10.3465 67.3959 9.92523 67.132 9.60532C66.8682 9.28518 66.4751 9.09977 66.0603 9.09977ZM66.0603 10.4887L64.317 19.4585H70.8128C74.9001 19.4585 77.7193 20.172 79.2709 21.597C80.8225 23.0229 81.2873 25.3333 80.6672 28.527L77.6163 44.227H70.2089L73.1096 29.2993C73.4397 27.6011 73.3184 26.4428 72.7452 25.8252C72.1718 25.2076 70.9522 24.8983 69.0867 24.8983H63.2589L59.5029 44.227H52.2112L58.7686 10.4887H66.0603Z" fill="white"/>
<path d="M92.8864 38.2087C95.6792 38.2087 97.7641 37.6937 99.0833 36.6784C100.388 35.6737 101.29 33.9328 101.762 31.5041C102.203 29.2342 102.035 27.6492 101.264 26.7939C100.475 25.9203 98.7699 25.4772 96.1958 25.4772H91.7327L89.2584 38.2087H92.8864ZM78.2887 53.8915C78.0815 53.8915 77.8848 53.7989 77.753 53.6388C77.6211 53.4788 77.5674 53.2682 77.607 53.0647L84.1644 19.3261C84.228 18.9999 84.5137 18.7643 84.8463 18.7643H98.9789C103.421 18.7643 106.727 19.9703 108.805 22.3492C110.894 24.7404 111.539 28.0833 110.722 32.2846C110.389 33.9962 109.818 35.5858 109.023 37.0089C108.227 38.4337 107.175 39.752 105.895 40.9279C104.364 42.3612 102.63 43.4006 100.748 44.0122C98.8954 44.6156 96.5162 44.9216 93.6766 44.9216H87.9537L86.3202 53.3295C86.2565 53.6559 85.9709 53.8915 85.6382 53.8915H78.2887Z" fill="black"/>
<path d="M92.3051 26.1715H96.1958C99.3025 26.1715 100.382 26.8532 100.748 27.2595C101.357 27.934 101.472 29.3562 101.08 31.372C100.641 33.6291 99.8266 35.2294 98.6597 36.128C97.4648 37.0479 95.5222 37.5141 92.8863 37.5141H90.1009L92.3051 26.1715ZM98.9789 18.0697H84.846C84.1812 18.0697 83.6097 18.541 83.4828 19.1935L76.9254 52.9321C76.8463 53.3393 76.9532 53.7604 77.2169 54.0805C77.4808 54.4006 77.8738 54.5858 78.2886 54.5858H85.6382C86.303 54.5858 86.8747 54.1145 87.0016 53.462L88.5264 45.6159H93.6766C96.5891 45.6159 99.0409 45.2983 100.963 44.6722C102.94 44.0298 104.76 42.9405 106.37 41.4347C107.701 40.2099 108.798 38.8351 109.629 37.3479C110.46 35.8602 111.057 34.2011 111.404 32.4169C112.264 27.9944 111.565 24.4532 109.327 21.8921C107.112 19.3558 103.63 18.0697 98.9789 18.0697ZM88.4159 38.903H92.8863C95.8495 38.903 98.0567 38.3449 99.5069 37.2284C100.958 36.1118 101.936 34.2481 102.444 31.6366C102.93 29.1291 102.709 27.3597 101.779 26.3289C100.849 25.2981 98.9879 24.7826 96.1958 24.7826H91.1601L88.4159 38.903ZM98.9789 19.4586C103.23 19.4586 106.332 20.5743 108.282 22.806C110.231 25.0377 110.818 28.1528 110.04 32.1521C109.72 33.7995 109.179 35.3058 108.416 36.6703C107.653 38.0358 106.657 39.2845 105.425 40.4166C103.958 41.79 102.327 42.7687 100.533 43.3516C98.7393 43.9361 96.4543 44.227 93.6766 44.227H87.3812L85.6382 53.1969H78.2886L84.846 19.4586H98.9789Z" fill="white"/>
<defs>
<radialGradient id="paint0_radial_901_30705" cx="0" cy="0" r="1" gradientUnits="userSpaceOnUse" gradientTransform="translate(39.1759 12.5142) scale(84.041 84.041)">
<stop stop-color="#AEB2D5"/>
<stop offset="0.3" stop-color="#AEB2D5"/>
<stop offset="0.75" stop-color="#484C89"/>
<stop offset="1" stop-color="#484C89"/>
</radialGradient>
</defs>
</svg>
