<svg width="129" height="129" viewBox="0 0 129 129" fill="none" xmlns="http://www.w3.org/2000/svg">
<path d="M64.2886 0.677673C31.7942 0.677676 33.8234 14.7692 33.8234 14.7692L33.8596 29.3678H64.8682V33.7511H21.5431C21.5431 33.7511 0.75 31.3929 0.75 64.18C0.749998 96.9671 18.8987 95.8044 18.8987 95.8044H29.73V80.5899C29.73 80.5899 29.1461 62.4412 47.5889 62.4412C66.0316 62.4412 78.3439 62.4412 78.3439 62.4412C78.3439 62.4412 95.6232 62.7206 95.6232 45.7415C95.6232 28.7625 95.6232 17.6672 95.6232 17.6672C95.6232 17.6672 98.2467 0.677673 64.2886 0.677673ZM47.1904 10.4946C50.2755 10.4946 52.769 12.9882 52.769 16.0733C52.769 19.1584 50.2755 21.6519 47.1904 21.6519C44.1053 21.6519 41.6118 19.1584 41.6118 16.0733C41.6118 12.9882 44.1053 10.4946 47.1904 10.4946Z" fill="url(#paint0_linear_901_30701)"/>
<path d="M65.2114 128.011C97.7058 128.011 95.6766 113.92 95.6766 113.92L95.6404 99.3211H64.6318V94.9379H107.957C107.957 94.9379 128.75 97.296 128.75 64.5089C128.75 31.7218 110.601 32.8845 110.601 32.8845H99.77V48.099C99.77 48.099 100.354 66.2477 81.9111 66.2477C63.4684 66.2477 51.1561 66.2477 51.1561 66.2477C51.1561 66.2477 33.8768 65.9684 33.8768 82.9474C33.8768 99.9264 33.8768 111.022 33.8768 111.022C33.8768 111.022 31.2533 128.011 65.2114 128.011ZM82.3096 118.194C79.2245 118.194 76.731 115.701 76.731 112.616C76.731 109.531 79.2245 107.037 82.3096 107.037C85.3947 107.037 87.8882 109.531 87.8882 112.616C87.8883 115.701 85.3947 118.194 82.3096 118.194Z" fill="url(#paint1_linear_901_30701)"/>
<defs>
<linearGradient id="paint0_linear_901_30701" x1="13.051" y1="11.8078" x2="76.3433" y2="75.3117" gradientUnits="userSpaceOnUse">
<stop stop-color="#387EB8"/>
<stop offset="1" stop-color="#366994"/>
</linearGradient>
<linearGradient id="paint1_linear_901_30701" x1="51.9857" y1="52.2062" x2="119.962" y2="117.331" gradientUnits="userSpaceOnUse">
<stop stop-color="#FFE052"/>
<stop offset="1" stop-color="#FFC331"/>
</linearGradient>
</defs>
</svg>
