<svg width="129" height="129" viewBox="0 0 129 129" fill="none" xmlns="http://www.w3.org/2000/svg">
<path d="M64.7502 57.1422C69.8864 57.1422 74.0502 52.9784 74.0502 47.8422C74.0502 42.7059 69.8864 38.5422 64.7502 38.5422C59.6139 38.5422 55.4502 42.7059 55.4502 47.8422C55.4502 52.9784 59.6139 57.1422 64.7502 57.1422Z" fill="#61DAFB"/>
<path d="M64.7501 82.0422C72.0501 89.1422 79.2501 93.3422 85.0501 93.3422C86.9501 93.3422 88.7501 92.9422 90.2501 92.0422C95.4501 89.0422 97.3501 81.5422 95.5501 70.8422C95.2501 68.9422 94.8501 67.0422 94.3501 65.0422C96.3501 64.4422 98.1501 63.8422 99.9501 63.2422C110.05 59.3422 115.65 53.9422 115.65 48.0422C115.65 42.0422 110.05 36.6422 99.9501 32.8422C98.1501 32.1422 96.3501 31.5422 94.3501 31.0422C94.8501 29.0422 95.2501 27.1422 95.5501 25.2422C97.2501 14.3422 95.3501 6.7422 90.1501 3.7422C88.6501 2.8422 86.8501 2.4422 84.9501 2.4422C79.2501 2.4422 71.9501 6.6422 64.6501 13.7422C57.4501 6.6422 50.2501 2.4422 44.4501 2.4422C42.5501 2.4422 40.7501 2.8422 39.2501 3.7422C34.0501 6.7422 32.1501 14.2422 33.9501 24.9422C34.2501 26.8422 34.6501 28.7422 35.1501 30.7422C33.1501 31.3422 31.3501 31.9422 29.5501 32.5422C19.4501 36.4422 13.8501 41.8422 13.8501 47.7422C13.8501 53.7422 19.4501 59.1422 29.5501 62.9422C31.3501 63.6422 33.1501 64.2422 35.1501 64.7422C34.6501 66.7422 34.2501 68.6422 33.9501 70.5422C32.2501 81.2422 34.1501 88.8422 39.2501 91.7422C40.7501 92.6422 42.5501 93.0422 44.4501 93.0422C50.2501 93.2422 57.4501 89.0422 64.7501 82.0422ZM59.1501 68.5422C60.9501 68.6422 62.8501 68.6422 64.7501 68.6422C66.6501 68.6422 68.5501 68.6422 70.3501 68.5422C68.5501 70.9422 66.6501 73.1422 64.7501 75.2422C62.8501 73.1422 60.9501 70.9422 59.1501 68.5422ZM46.7501 58.2422C47.7501 59.9422 48.6501 61.5422 49.7501 63.1422C46.6501 62.7422 43.7501 62.2422 40.9501 61.6422C41.8501 58.9422 42.8501 56.1422 44.0501 53.3422C44.8501 54.9422 45.7501 56.6422 46.7501 58.2422ZM40.9501 34.1422C43.7501 33.5422 46.6501 33.0422 49.7501 32.6422C48.7501 34.2422 47.7501 35.8422 46.7501 37.5422C45.7501 39.2422 44.8501 40.8422 44.0501 42.5422C42.7501 39.6422 41.7501 36.8422 40.9501 34.1422ZM46.4501 47.8422C47.7501 45.1422 49.1501 42.4422 50.7501 39.7422C52.2501 37.1422 53.9501 34.5422 55.6501 31.9422C58.6501 31.7422 61.6501 31.6422 64.7501 31.6422C67.9501 31.6422 70.9501 31.7422 73.8501 31.9422C75.6501 34.5422 77.2501 37.1422 78.7501 39.7422C80.3501 42.4422 81.7501 45.1422 83.0501 47.8422C81.7501 50.5422 80.3501 53.2422 78.7501 55.9422C77.2501 58.5422 75.5501 61.1422 73.8501 63.7422C70.8501 63.9422 67.8501 64.0422 64.7501 64.0422C61.5501 64.0422 58.5501 63.9422 55.6501 63.7422C53.8501 61.1422 52.2501 58.5422 50.7501 55.9422C49.1501 53.2422 47.7501 50.5422 46.4501 47.8422ZM85.5501 42.4422L82.8501 37.4422C81.8501 35.7422 80.9501 34.1422 79.8501 32.5422C82.9501 32.9422 85.8501 33.4422 88.6501 34.0422C87.7501 36.8422 86.7501 39.6422 85.5501 42.4422ZM85.5501 53.2422C86.7501 56.0422 87.7501 58.8422 88.6501 61.5422C85.8501 62.1422 82.9501 62.6422 79.8501 63.0422C80.8501 61.4422 81.8501 59.8422 82.8501 58.1422C83.7501 56.6422 84.6501 54.9422 85.5501 53.2422ZM87.8501 87.9422C87.0501 88.4422 86.0501 88.6422 84.9501 88.6422C80.0501 88.6422 73.9501 84.6422 67.9501 78.6422C70.8501 75.5422 73.6501 72.0422 76.4501 68.1422C81.1501 67.7422 85.6501 67.0422 89.8501 66.0422C90.3501 67.8422 90.6501 69.6422 90.9501 71.4422C92.3501 79.9422 91.2501 86.0422 87.8501 87.9422ZM93.0501 35.2422C104.25 38.4422 110.95 43.3422 110.95 47.8422C110.95 51.7422 106.35 55.6422 98.2501 58.7422C96.6501 59.3422 94.8501 59.9422 93.0501 60.4422C91.7501 56.3422 90.1501 52.1422 88.1501 47.8422C90.1501 43.5422 91.8501 39.3422 93.0501 35.2422ZM85.0501 7.0422C86.1501 7.0422 87.0501 7.2422 87.9501 7.7422C91.2501 9.6422 92.4501 15.6422 91.0501 24.2422C90.7501 25.9422 90.3501 27.7422 89.9501 29.6422C85.7501 28.7422 81.2501 28.0422 76.5501 27.5422C73.8501 23.6422 70.9501 20.1422 68.0501 17.0422C74.0501 11.1422 80.1501 7.0422 85.0501 7.0422ZM70.3501 27.1422C68.5501 27.0422 66.6501 27.0422 64.7501 27.0422C62.8501 27.0422 60.9501 27.0422 59.1501 27.1422C60.9501 24.7422 62.8501 22.5422 64.7501 20.4422C66.6501 22.5422 68.5501 24.8422 70.3501 27.1422ZM41.6501 7.7422C42.4501 7.2422 43.4501 7.0422 44.5501 7.0422C49.4501 7.0422 55.5501 11.0422 61.5501 17.0422C58.6501 20.1422 55.8501 23.6422 53.0501 27.5422C48.3501 27.9422 43.8501 28.6422 39.6501 29.6422C39.1501 27.8422 38.8501 26.0422 38.5501 24.2422C37.1501 15.7422 38.2501 9.7422 41.6501 7.7422ZM36.4501 60.4422C25.2501 57.2422 18.5501 52.3422 18.5501 47.8422C18.5501 43.9422 23.1501 40.0422 31.2501 36.9422C32.8501 36.3422 34.6501 35.7422 36.4501 35.2422C37.7501 39.3422 39.3501 43.5422 41.3501 47.8422C39.3501 52.1422 37.6501 56.4422 36.4501 60.4422ZM38.5501 71.4422C38.8501 69.7422 39.2501 67.9422 39.6501 66.0422C43.8501 66.9422 48.3501 67.6422 53.0501 68.1422C55.7501 72.0422 58.6501 75.5422 61.5501 78.6422C55.5501 84.5422 49.4501 88.6422 44.5501 88.6422C43.4501 88.6422 42.5501 88.4422 41.6501 87.9422C38.2501 86.0422 37.1501 79.9422 38.5501 71.4422ZM34.3501 112.642C36.5501 109.942 36.6501 106.942 35.4501 103.942C34.2501 100.942 31.7501 99.5422 28.6501 99.4422C24.9501 99.3422 21.1501 99.4422 17.4501 99.4422H16.7501V125.342H19.7501V115.542H24.4501C25.0501 115.542 25.5501 115.742 25.8501 116.242L31.8501 125.542C31.9501 125.742 32.2501 126.042 32.4501 126.042H36.3501C33.9501 122.342 31.6501 118.842 29.2501 115.242C31.3501 114.942 33.1501 114.242 34.3501 112.642ZM19.7501 112.442V102.542H20.8501C23.1501 102.542 25.5501 102.442 27.8501 102.642C30.5501 102.742 32.4501 104.842 32.4501 107.542C32.4501 110.242 30.2501 112.342 27.5501 112.442C25.1501 112.542 22.7501 112.442 19.7501 112.442ZM58.4501 113.742C56.8501 106.742 50.4501 104.942 45.5501 107.142C41.7501 108.842 40.0501 112.142 39.9501 116.242C39.8501 119.342 40.7501 122.142 43.1501 124.242C45.8501 126.642 49.1501 126.942 52.5501 126.342C54.4501 125.942 56.1501 125.042 57.4501 123.642C56.9501 122.942 56.4501 122.242 55.9501 121.642C53.1501 124.042 50.0501 124.842 46.6501 123.242C44.4501 122.142 43.3501 119.442 43.1501 117.442H58.6501V116.142C58.7501 115.242 58.6501 114.442 58.4501 113.742ZM43.3501 115.342C43.0501 112.342 46.0501 109.142 49.3501 109.142C53.1501 109.042 55.5501 111.342 55.6501 115.342H43.3501ZM74.0501 106.642C72.5501 106.342 70.9501 106.242 69.4501 106.342C67.0501 106.542 64.9501 107.642 63.2501 109.442C63.7501 110.142 64.1501 110.842 64.7501 111.642C64.9501 111.442 65.1501 111.242 65.3501 111.142C66.9501 109.642 68.8501 108.842 71.1501 109.042C72.9501 109.142 74.6501 109.742 75.1501 111.542C75.5501 112.942 75.4501 114.442 75.5501 115.942C75.2501 115.942 75.1501 115.842 75.0501 115.742C72.6501 113.742 69.9501 113.342 67.0501 114.042C64.3501 114.742 62.6501 116.842 62.4501 119.542C62.2501 122.642 63.6501 124.942 66.3501 126.042C68.0501 126.742 69.9501 126.742 71.7501 126.342C73.1501 126.042 73.7501 125.242 75.7501 124.142V125.442H78.5501C78.5501 121.442 78.6501 116.542 78.5501 111.942C78.5501 109.042 76.8501 107.242 74.0501 106.642ZM75.4501 119.242C75.3501 119.542 75.4501 119.842 75.4501 120.142C75.4501 122.242 74.9501 122.942 72.9501 123.742C71.5501 124.242 70.0501 124.442 68.5501 123.942C66.8501 123.442 65.6501 121.942 65.6501 120.242C65.5501 118.542 66.6501 116.842 68.3501 116.342C70.6501 115.542 72.7501 116.042 74.6501 117.442C75.2501 117.942 75.6501 118.442 75.4501 119.242ZM91.0501 109.342C93.6501 108.542 96.0501 109.042 97.8501 111.242L98.1501 111.442C98.8501 110.842 99.4501 110.242 100.25 109.542C99.9501 109.242 99.8501 109.042 99.6501 108.742C96.7501 105.642 91.0501 105.242 87.5501 107.742C82.6501 111.342 82.7501 118.342 85.1501 122.042C87.4501 125.542 90.7501 126.742 94.6501 126.242C96.9501 125.942 98.8501 124.842 100.35 122.942C99.6501 122.342 98.9501 121.742 98.2501 121.042C98.0501 121.242 97.9501 121.342 97.8501 121.542C95.1501 124.542 90.6501 124.242 88.2501 121.042C86.8501 119.142 86.5501 116.942 86.9501 114.742C87.1501 112.242 88.4501 110.242 91.0501 109.342ZM111.85 122.942C111.65 123.042 111.55 123.142 111.55 123.142C110.75 123.742 109.95 123.842 109.05 123.542C108.15 123.142 108.05 122.342 107.95 121.542V110.142C107.95 109.942 107.95 110.342 108.05 109.342H111.85V106.342H107.85V101.342H104.85V106.742H102.25C102.05 106.742 101.75 106.942 101.75 107.142C101.65 107.842 101.75 108.342 101.75 109.342H104.95V122.142C104.95 123.742 105.35 125.142 106.75 125.942C108.25 126.842 111.15 126.642 112.45 125.542C112.65 125.442 112.75 125.042 112.75 124.942C112.45 124.342 112.15 123.642 111.85 122.942Z" fill="#61DAFB"/>
</svg>
