<svg width="129" height="129" viewBox="0 0 129 129" fill="none" xmlns="http://www.w3.org/2000/svg">
<path d="M27.7351 81.5838C27.7351 89.0233 21.7271 95.036 14.2936 95.036C6.86001 95.036 0.852051 89.0233 0.852051 81.5838C0.852051 74.1443 6.86001 68.1316 14.2936 68.1316H27.7351V81.5838ZM34.4559 81.5838C34.4559 74.1443 40.4638 68.1316 47.8974 68.1316C55.331 68.1316 61.3389 74.1443 61.3389 81.5838V115.214C61.3389 122.654 55.331 128.667 47.8974 128.667C40.4638 128.667 34.4559 122.654 34.4559 115.214V81.5838Z" fill="#E01E5A"/>
<path d="M47.8972 27.5711C40.4636 27.5711 34.4556 21.5583 34.4556 14.1189C34.4556 6.67936 40.4636 0.666626 47.8972 0.666626C55.3307 0.666626 61.3387 6.67936 61.3387 14.1189V27.5711H47.8972ZM47.8972 34.3991C55.3307 34.3991 61.3387 40.4118 61.3387 47.8513C61.3387 55.2908 55.3307 61.3036 47.8972 61.3036H14.1915C6.75795 61.3036 0.75 55.2908 0.75 47.8513C0.75 40.4118 6.75795 34.3991 14.1915 34.3991H47.8972Z" fill="#36C5F0"/>
<path d="M101.765 47.8513C101.765 40.4118 107.773 34.3991 115.206 34.3991C122.64 34.3991 128.648 40.4118 128.648 47.8513C128.648 55.2908 122.64 61.3036 115.206 61.3036H101.765V47.8513ZM95.0442 47.8513C95.0442 55.2908 89.0362 61.3036 81.6027 61.3036C74.1691 61.3036 68.1611 55.2908 68.1611 47.8513V14.1189C68.1611 6.67936 74.1691 0.666626 81.6027 0.666626C89.0362 0.666626 95.0442 6.67936 95.0442 14.1189V47.8513Z" fill="#2EB67D"/>
<path d="M81.6027 101.762C89.0362 101.762 95.0442 107.775 95.0442 115.214C95.0442 122.654 89.0362 128.667 81.6027 128.667C74.1691 128.667 68.1611 122.654 68.1611 115.214V101.762H81.6027ZM81.6027 95.036C74.1691 95.036 68.1611 89.0233 68.1611 81.5838C68.1611 74.1443 74.1691 68.1316 81.6027 68.1316H115.308C122.742 68.1316 128.75 74.1443 128.75 81.5838C128.75 89.0233 122.742 95.036 115.308 95.036H81.6027Z" fill="#ECB22E"/>
</svg>
