<svg width="129" height="129" viewBox="0 0 129 129" fill="none" xmlns="http://www.w3.org/2000/svg">
<path d="M120.588 17.2782C106.303 0.26622 78.086 -4.77578 57.692 6.03822L21.863 25.0382C17.016 27.5672 12.857 30.9092 9.65096 34.8522C6.44496 38.7952 4.26396 43.2512 3.24696 47.9352C2.79383 50.0372 2.56323 52.181 2.55896 54.3312C2.58096 60.1622 4.29896 65.9022 7.56596 71.0612C4.50296 74.9332 2.41196 79.2812 1.41996 83.8432C0.403849 88.6113 0.546163 93.5535 1.83496 98.2552C3.12496 102.988 5.53696 107.459 8.93096 111.407C23.215 128.418 51.495 133.46 71.826 122.647L107.618 103.646C112.462 101.114 116.616 97.7682 119.814 93.8212C123.011 89.8742 125.181 85.4142 126.184 80.7282C126.644 78.6212 126.875 76.4842 126.872 74.3422C126.863 68.5222 125.167 62.7912 121.927 57.6332C124.989 53.7642 127.08 49.4202 128.074 44.8622C128.518 42.7532 128.744 40.6172 128.75 38.4762C128.752 30.8812 125.898 23.4762 120.588 17.2982V17.2782Z" fill="#FF3E00"/>
<path d="M54.19 113.009C51.8367 113.514 49.4367 113.768 47.03 113.769C42.435 113.77 37.908 112.844 33.837 111.069C29.767 109.295 26.274 106.726 23.658 103.582C20.464 99.8662 18.748 95.4113 18.751 90.8423C18.7529 89.5543 18.8869 88.2699 19.151 87.0093C19.3659 86.0607 19.6552 85.1305 20.016 84.2273L20.692 82.5193L22.519 83.6753C26.762 86.2663 31.503 88.2393 36.539 89.5093L37.867 89.8423L37.742 90.9463V91.5193C37.739 92.9003 38.256 94.2493 39.219 95.3733C39.997 96.3313 41.045 97.1173 42.271 97.6613C43.5267 98.2121 44.8828 98.4971 46.254 98.4983C46.9779 98.5007 47.6998 98.4239 48.407 98.2693C49.1743 98.1021 49.9157 97.8323 50.611 97.4673L86.401 78.3732C87.474 77.8073 88.358 77.0242 88.969 76.0972C89.579 75.1702 89.897 74.1292 89.893 73.0712C89.883 71.6902 89.353 70.3463 88.378 69.2273C87.588 68.2813 86.534 67.5093 85.307 66.9753C84.0506 66.4362 82.6971 66.1605 81.33 66.1652C80.6061 66.1631 79.8841 66.2402 79.177 66.3953C78.4131 66.5584 77.6759 66.8281 76.987 67.1962L63.342 74.4462C61.0457 75.6493 58.6001 76.5424 56.069 77.1023C53.729 77.6043 51.324 77.8602 48.908 77.8622C44.314 77.8622 39.789 76.9362 35.719 75.1642C31.649 73.3923 28.155 70.8263 25.536 67.6863C22.346 63.9683 20.63 59.5143 20.629 54.9463C20.631 53.6613 20.765 52.3792 21.029 51.1133C21.642 48.2972 22.95 45.6182 24.873 43.2463C26.795 40.8733 29.289 38.8593 32.196 37.3323L68.024 18.3423C70.272 17.1523 72.724 16.2523 75.297 15.6753C77.637 15.1763 80.042 14.9253 82.457 14.9253C87.062 14.9153 91.601 15.8353 95.685 17.6063C99.769 19.3763 103.275 21.9463 105.904 25.0923C109.075 28.8193 110.769 33.2763 110.749 37.8423C110.747 39.1339 110.612 40.4219 110.348 41.6863C110.133 42.6345 109.844 43.5644 109.484 44.4673L108.808 46.1753L106.981 45.0613C102.741 42.4663 97.999 40.4932 92.961 39.2272L91.633 38.8843L91.758 37.7793V37.2073C91.758 35.8223 91.242 34.4722 90.281 33.3423C89.492 32.3973 88.441 31.6263 87.215 31.0923C85.9611 30.5529 84.61 30.2762 83.245 30.2793C82.5283 30.2922 81.8151 30.3831 81.118 30.5503C80.349 30.7107 79.6071 30.9808 78.915 31.3523L43.087 50.3423C42.237 50.7832 41.4855 51.3922 40.878 52.1323C40.3114 52.8231 39.9148 53.6373 39.72 54.5093C39.6318 54.8715 39.5772 55.241 39.557 55.6133C39.556 56.9912 40.072 58.3353 41.034 59.4573C41.822 60.4023 42.874 61.1743 44.099 61.7073C45.3529 62.2466 46.704 62.5229 48.069 62.5192C48.7929 62.5214 49.5149 62.4443 50.222 62.2892C50.9907 62.1273 51.7327 61.8576 52.426 61.4883L66.096 54.1963C68.3913 52.9912 70.8372 52.098 73.369 51.5403C75.7224 51.0365 78.1223 50.7817 80.529 50.7803C85.125 50.7803 89.652 51.7052 93.724 53.4772C97.796 55.2492 101.293 57.8163 103.914 60.9573C107.104 64.6743 108.82 69.1283 108.821 73.6973C108.824 74.9963 108.686 76.2932 108.408 77.5712C107.799 80.3882 106.491 83.0683 104.569 85.4413C102.646 87.8133 100.151 89.8263 97.241 91.3523L61.476 110.342C59.1769 111.551 56.727 112.448 54.191 113.009H54.19Z" fill="white"/>
</svg>
