<svg width="129" height="129" viewBox="0 0 129 129" fill="none" xmlns="http://www.w3.org/2000/svg">
<path d="M127.08 34.0644C127.079 31.4345 126.815 28.8114 126.29 26.2344C125.765 23.5963 124.873 21.0448 123.64 18.6544C122.351 16.339 120.75 14.2124 118.88 12.3344C116.952 10.4478 114.712 8.90847 112.26 7.78439C109.84 6.56409 107.252 5.71138 104.58 5.25438C101.93 4.74439 99.0202 4.74438 96.3702 4.49438H31.0002C28.9611 4.52759 26.9265 4.69797 24.9102 5.00438C22.9093 5.23994 20.9507 5.75146 19.0902 6.52438C18.5602 6.77438 17.7702 7.03439 17.2402 7.28439C15.4799 8.22794 13.8067 9.32556 12.2402 10.5644C11.7102 11.0744 11.1802 11.3244 10.6502 11.8244C8.70126 13.6321 7.08947 15.7721 5.8902 18.1444C4.58052 20.5012 3.68423 23.0649 3.2402 25.7244C2.84612 28.3195 2.58245 30.9328 2.4502 33.5544V93.9444C2.45102 96.5742 2.71568 99.1974 3.2402 101.774C3.76498 104.412 4.65699 106.964 5.8902 109.354C7.17898 111.67 8.78072 113.796 10.6502 115.674C12.5784 117.561 14.818 119.1 17.2702 120.224C19.6902 121.445 22.2787 122.297 24.9502 122.754C27.6002 123.264 30.5102 123.264 33.1602 123.514H96.3802C99.1343 123.512 101.882 123.258 104.59 122.754C107.262 122.297 109.85 121.445 112.27 120.224C114.67 119.01 116.897 117.48 118.89 115.674C120.839 113.867 122.451 111.727 123.65 109.354C124.96 106.998 125.856 104.434 126.3 101.774C126.694 99.1792 126.958 96.566 127.09 93.9444V34.0644H127.08Z" fill="#F05138"/>
<path d="M85.7498 96.5044C74.6398 102.634 59.3698 103.264 43.9998 96.9744C32.016 92.112 21.7697 83.761 14.5898 73.0044C17.9266 75.5586 21.572 77.682 25.4398 79.3244C41.3098 86.4244 57.1698 85.9344 68.3398 79.3244C52.4398 67.6644 38.9398 52.5044 28.8798 40.1244C26.8946 38.0322 25.1226 35.7476 23.5898 33.3044C35.7498 43.9144 55.0898 57.3044 61.9698 61.0944C52.1466 51.0293 43.1195 40.2168 34.9698 28.7544C48.5169 41.9193 63.4239 53.6081 79.4398 63.6244C80.1498 64.0044 80.6998 64.3244 81.1398 64.6244C81.6093 63.4783 82.0133 62.3064 82.3498 61.1144C86.0598 48.2244 81.8198 33.5744 72.5598 21.4444C93.9998 33.8144 106.75 57.0544 101.41 76.5144C101.27 77.0444 101.12 77.5144 100.96 78.0644L101.15 78.2844C111.74 90.9144 108.83 104.284 107.5 101.784C101.75 91.0044 91.1199 94.3344 85.7498 96.5044Z" fill="#FEFEFE"/>
</svg>
