<svg width="129" height="129" viewBox="0 0 129 129" fill="none" xmlns="http://www.w3.org/2000/svg">
<path d="M0.75 64.3422V128.342H128.75V0.342224H0.75V64.3422ZM103.898 59.2222C106.963 59.9337 109.75 61.5371 111.905 63.8302C113.092 65.0656 114.123 66.4411 114.977 67.9262C114.977 68.0901 109.448 71.8277 106.079 73.9166C105.956 73.9985 105.464 73.4661 104.922 72.6571C104.307 71.5959 103.433 70.7078 102.382 70.0757C101.33 69.4436 100.136 69.0881 98.9106 69.0424C95.0297 68.7761 92.5311 70.8139 92.5516 74.1624C92.5195 74.9961 92.7104 75.8232 93.1046 76.5585C93.9545 78.3301 95.5417 79.3848 100.518 81.5352C109.683 85.4776 113.605 88.0785 116.042 91.7752C118.766 95.8712 119.37 102.486 117.527 107.381C115.479 112.706 110.461 116.32 103.365 117.519C100.124 117.89 96.8492 117.855 93.6166 117.416C88.6831 116.616 84.1321 114.267 80.622 110.709C79.4444 109.408 77.1506 106.019 77.294 105.773C77.6678 105.496 78.0614 105.246 78.4716 105.026L83.182 102.322L86.8582 100.192L87.6262 101.329C88.9223 103.183 90.5718 104.763 92.4799 105.978C96.5759 108.128 102.167 107.832 104.932 105.343C105.86 104.431 106.439 103.223 106.568 101.928C106.697 100.633 106.368 99.3343 105.638 98.2571C104.614 96.8337 102.566 95.6357 96.8422 93.1371C90.2374 90.2904 87.3906 88.5291 84.7897 85.7233C83.166 83.8718 81.9671 81.6874 81.2774 79.3233C80.7628 76.6225 80.6868 73.8564 81.0521 71.1313C82.414 64.7518 87.1961 60.2974 94.1798 58.9765C97.414 58.5763 100.69 58.666 103.898 59.2427V59.2222ZM73.8534 64.588V69.8309H57.2338V117.17H45.4476V69.8206H28.7871V64.7006C28.7424 62.9381 28.7903 61.1743 28.9305 59.4168C28.9919 59.3349 39.1705 59.2939 51.4585 59.3144H73.7919L73.8534 64.588Z" fill="#007ACC"/>
</svg>
