<svg width="17" height="16" viewBox="0 0 17 16" fill="none" xmlns="http://www.w3.org/2000/svg">
<path d="M8.92805 12.816L5.05024 15.1547C4.87893 15.2639 4.69983 15.3106 4.51295 15.295C4.32607 15.2795 4.16255 15.2171 4.02239 15.108C3.88222 14.9988 3.77321 14.8625 3.69534 14.6992C3.61747 14.5351 3.6019 14.3518 3.64862 14.1491L4.67647 9.72896L1.24251 6.75882C1.08678 6.6185 0.989598 6.45853 0.950975 6.27892C0.91173 6.09993 0.923254 5.92469 0.985548 5.75319C1.04784 5.58168 1.14128 5.44136 1.26587 5.33222C1.39046 5.22308 1.56177 5.15292 1.7798 5.12174L6.31169 4.72416L8.06372 0.561287C8.14158 0.374191 8.26243 0.233869 8.42627 0.140322C8.58948 0.0467739 8.75674 0 8.92805 0C9.09935 0 9.26693 0.0467739 9.43076 0.140322C9.59397 0.233869 9.71451 0.374191 9.79238 0.561287L11.5444 4.72416L16.0763 5.12174C16.2943 5.15292 16.4656 5.22308 16.5902 5.33222C16.7148 5.44136 16.8082 5.58168 16.8705 5.75319C16.9328 5.92469 16.9447 6.09993 16.9061 6.27892C16.8668 6.45853 16.7693 6.6185 16.6136 6.75882L13.1796 9.72896L14.2075 14.1491C14.2542 14.3518 14.2386 14.5351 14.1608 14.6992C14.0829 14.8625 13.9739 14.9988 13.8337 15.108C13.6935 15.2171 13.53 15.2795 13.3431 15.295C13.1563 15.3106 12.9772 15.2639 12.8059 15.1547L8.92805 12.816Z" fill="#FF9C30"/>
</svg>
