<svg width="7" height="7" viewBox="0 0 7 7" fill="none" xmlns="http://www.w3.org/2000/svg">
<path fill-rule="evenodd" clip-rule="evenodd" d="M0.646447 0.79879C0.841709 0.603528 1.15829 0.603528 1.35355 0.79879L3.5 2.94524L5.64645 0.79879C5.84171 0.603528 6.15829 0.603528 6.35355 0.79879C6.54882 0.994052 6.54882 1.31064 6.35355 1.5059L4.20711 3.65234L6.35355 5.79879C6.54882 5.99405 6.54882 6.31064 6.35355 6.5059C6.15829 6.70116 5.84171 6.70116 5.64645 6.5059L3.5 4.35945L1.35355 6.5059C1.15829 6.70116 0.841709 6.70116 0.646447 6.5059C0.451184 6.31064 0.451184 5.99405 0.646447 5.79879L2.79289 3.65234L0.646447 1.5059C0.451184 1.31064 0.451184 0.994052 0.646447 0.79879Z" fill="#3E4145"/>
</svg>
