<svg width="74" height="75" viewBox="0 0 74 75" fill="none" xmlns="http://www.w3.org/2000/svg">
<path d="M32.7046 42.566L52.0635 23.2071M32.9398 43.1708L37.7853 55.6306C38.2122 56.7282 38.4256 57.277 38.7331 57.4373C38.9997 57.5762 39.3173 57.5764 39.5841 57.4378C39.8918 57.2779 40.1059 56.7293 40.534 55.6322L52.6847 24.4962C53.0711 23.5058 53.2644 23.0106 53.1587 22.6942C53.0669 22.4194 52.8512 22.2037 52.5764 22.1119C52.26 22.0062 51.7648 22.1994 50.7744 22.5859L19.6384 34.7366C18.5412 35.1647 17.9927 35.3788 17.8328 35.6865C17.6942 35.9533 17.6944 36.2709 17.8333 36.5375C17.9935 36.845 18.5424 37.0584 19.64 37.4853L32.0998 42.3307C32.3226 42.4174 32.434 42.4607 32.5278 42.5276C32.6109 42.5869 32.6836 42.6597 32.743 42.7428C32.8099 42.8366 32.8532 42.948 32.9398 43.1708Z" stroke="#FF9C30" stroke-width="3" stroke-linecap="round" stroke-linejoin="round"/>
<rect x="1.5" y="2" width="71" height="71" rx="35.5" stroke="#FF9C30" stroke-width="3"/>
</svg>
