<svg width="16" height="11" viewBox="0 0 16 11" fill="none" xmlns="http://www.w3.org/2000/svg">
<path d="M7.99984 8.49999C8.78873 8.49999 9.45817 8.22499 10.0082 7.67499C10.5582 7.12499 10.8332 6.45555 10.8332 5.66666C10.8332 4.87777 10.5582 4.20832 10.0082 3.65832C9.45817 3.10832 8.78873 2.83332 7.99984 2.83332C7.21095 2.83332 6.5415 3.10832 5.9915 3.65832C5.4415 4.20832 5.1665 4.87777 5.1665 5.66666C5.1665 6.45555 5.4415 7.12499 5.9915 7.67499C6.5415 8.22499 7.21095 8.49999 7.99984 8.49999ZM7.99984 7.53332C7.47762 7.53332 7.03595 7.35277 6.67484 6.99166C6.31373 6.63055 6.13317 6.18888 6.13317 5.66666C6.13317 5.14443 6.31373 4.70277 6.67484 4.34166C7.03595 3.98055 7.47762 3.79999 7.99984 3.79999C8.52206 3.79999 8.96373 3.98055 9.32484 4.34166C9.68595 4.70277 9.8665 5.14443 9.8665 5.66666C9.8665 6.18888 9.68595 6.63055 9.32484 6.99166C8.96373 7.35277 8.52206 7.53332 7.99984 7.53332ZM7.99984 10.6667C6.37761 10.6667 4.91095 10.2055 3.59984 9.28332C2.28873 8.3611 1.31095 7.15555 0.666504 5.66666C1.31095 4.17777 2.28873 2.97221 3.59984 2.04999C4.91095 1.12777 6.37761 0.666656 7.99984 0.666656C9.62206 0.666656 11.0887 1.12777 12.3998 2.04999C13.7109 2.97221 14.6887 4.17777 15.3332 5.66666C14.6887 7.15555 13.7109 8.3611 12.3998 9.28332C11.0887 10.2055 9.62206 10.6667 7.99984 10.6667ZM7.99984 9.66666C9.34428 9.66666 10.5804 9.30277 11.7082 8.57499C12.8359 7.84721 13.6943 6.87777 14.2832 5.66666C13.6943 4.45555 12.8359 3.4861 11.7082 2.75832C10.5804 2.03055 9.34428 1.66666 7.99984 1.66666C6.65539 1.66666 5.41928 2.03055 4.2915 2.75832C3.16373 3.4861 2.29984 4.45555 1.69984 5.66666C2.29984 6.87777 3.16373 7.84721 4.2915 8.57499C5.41928 9.30277 6.65539 9.66666 7.99984 9.66666Z" fill="#868E96"/>
</svg>
