<svg width="25" height="24" viewBox="0 0 25 24" fill="none" xmlns="http://www.w3.org/2000/svg">
<path d="M6.2 14.7112H13.82C14.06 14.7112 14.265 14.6262 14.435 14.4562C14.605 14.2862 14.69 14.0712 14.69 13.8112C14.69 13.5512 14.605 13.3362 14.435 13.1662C14.265 12.9962 14.05 12.9112 13.79 12.9112H6.17C5.93 12.9112 5.725 12.9962 5.555 13.1662C5.385 13.3362 5.3 13.5512 5.3 13.8112C5.3 14.0712 5.385 14.2862 5.555 14.4562C5.725 14.6262 5.94 14.7112 6.2 14.7112ZM6.2 10.8112H18.83C19.07 10.8112 19.275 10.7262 19.445 10.5562C19.615 10.3862 19.7 10.1712 19.7 9.91125C19.7 9.65125 19.615 9.43625 19.445 9.26625C19.275 9.09625 19.06 9.01125 18.8 9.01125H6.17C5.93 9.01125 5.725 9.09625 5.555 9.26625C5.385 9.43625 5.3 9.65125 5.3 9.91125C5.3 10.1712 5.385 10.3862 5.555 10.5562C5.725 10.7262 5.94 10.8112 6.2 10.8112ZM6.2 6.91125H18.83C19.07 6.91125 19.275 6.82625 19.445 6.65625C19.615 6.48625 19.7 6.27125 19.7 6.01125C19.7 5.75125 19.615 5.53625 19.445 5.36625C19.275 5.19625 19.06 5.11125 18.8 5.11125H6.17C5.93 5.11125 5.725 5.19625 5.555 5.36625C5.385 5.53625 5.3 5.75125 5.3 6.01125C5.3 6.27125 5.385 6.48625 5.555 6.65625C5.725 6.82625 5.94 6.91125 6.2 6.91125ZM0.5 22.1212V2.08125C0.5 1.62125 0.68 1.20625 1.04 0.83625C1.4 0.46625 1.82 0.28125 2.3 0.28125H22.7C23.16 0.28125 23.575 0.46625 23.945 0.83625C24.315 1.20625 24.5 1.62125 24.5 2.08125V17.6812C24.5 18.1412 24.315 18.5562 23.945 18.9262C23.575 19.2962 23.16 19.4812 22.7 19.4812H5.3L2.03 22.7512C1.75 23.0312 1.425 23.0962 1.055 22.9462C0.685 22.7962 0.5 22.5212 0.5 22.1212ZM2.3 19.9312L4.55 17.6812H22.7V2.08125H2.3V19.9312Z" fill="#FF9C30"/>
</svg>
