<svg width="129" height="129" viewBox="0 0 129 129" fill="none" xmlns="http://www.w3.org/2000/svg">
<g clip-path="url(#clip0_902_27053)">
<path fill-rule="evenodd" clip-rule="evenodd" d="M20.479 83.7574L13.7829 86.1619L13.4233 105.743L36.6031 97.4192C28.6527 94.7942 22.8468 90.1756 20.479 83.7574Z" fill="#FDBD39"/>
<path fill-rule="evenodd" clip-rule="evenodd" d="M23.9834 63.0474L0.75 71.3901L13.783 86.1619L20.4791 83.7574C18.1182 77.358 19.5741 70.124 23.9834 63.0474Z" fill="#F69833"/>
<path fill-rule="evenodd" clip-rule="evenodd" d="M63.081 34.7935C33.4956 45.4171 14.422 67.3391 20.4792 83.7575L127.618 45.2859C121.561 28.8673 92.6666 24.1698 63.081 34.7935Z" fill="#FECF33"/>
<path fill-rule="evenodd" clip-rule="evenodd" d="M85.0157 94.2497C114.601 83.626 133.711 61.8013 127.618 45.2856L20.479 83.7573C26.572 100.273 55.4302 104.873 85.0157 94.2497Z" fill="#EE6723"/>
<path fill-rule="evenodd" clip-rule="evenodd" d="M127.618 45.2856L20.479 83.7573C22.5769 89.4439 30.5771 92.2455 41.8024 92.2455C52.7461 92.2455 66.755 89.5847 81.3599 84.3402C110.945 73.7166 131.761 56.5162 127.618 45.2856Z" fill="#F69833"/>
<path fill-rule="evenodd" clip-rule="evenodd" d="M106.294 36.7974C95.3506 36.7974 81.3418 39.4583 66.7367 44.7027C37.1513 55.3264 16.3358 72.5266 20.4791 83.7573L127.618 45.2856C125.52 39.599 117.52 36.7974 106.294 36.7974Z" fill="#FDBD39"/>
<path fill-rule="evenodd" clip-rule="evenodd" d="M100.378 106.78H100.377C97.2246 106.78 92.5742 103.981 86.5545 98.4611C79.4328 91.9307 71.275 82.366 63.5834 71.5288C55.8921 60.692 49.5721 49.8578 45.7876 41.0218C41.6643 31.3927 41.0764 25.4721 44.0402 23.4243C44.69 22.9758 45.4734 22.7485 46.3683 22.7485C48.7792 22.7485 53.4766 24.5128 62.163 32.9184L62.353 33.1021L62.3273 33.3634C62.2679 33.9672 62.2132 34.5765 62.1644 35.1745L62.0675 36.3619L61.2154 35.518C51.8561 26.2497 47.7361 25.2491 46.3991 25.2491C46.0178 25.2491 45.7141 25.3253 45.4964 25.4758C44.2109 26.3637 44.1281 30.7125 48.1257 40.0469C51.8427 48.7255 58.0708 59.3958 65.6628 70.0922C73.255 80.7897 81.288 90.2131 88.2823 96.6266C95.8246 103.542 99.2234 104.289 100.335 104.289C100.718 104.289 101.03 104.208 101.261 104.048C102.618 103.112 102.619 98.4529 98.1611 88.406L97.9565 87.9448L98.4045 87.7037C98.8525 87.4626 99.2859 87.2252 99.6922 86.9981L100.229 86.6983L100.476 87.2555C103.637 94.3745 106.592 103.423 102.718 106.1C102.064 106.551 101.277 106.78 100.378 106.78ZM100.377 105.681H100.378L100.377 106.23L100.377 105.681Z" fill="#EE6723"/>
<path fill-rule="evenodd" clip-rule="evenodd" d="M85.7339 93.9502L85.6888 94.4974C84.9409 103.595 82.9715 114.532 77.8366 114.974C77.7333 114.983 77.6261 114.988 77.519 114.988C74.0307 114.988 70.7305 110.075 67.7102 100.386C64.8525 91.2195 62.6351 78.912 61.4662 65.7307C60.2972 52.5522 60.3148 40.0518 61.5155 30.5325C62.8243 20.1594 65.3159 14.7422 68.9208 14.4313C69.0273 14.4216 69.1378 14.4166 69.2469 14.4166C71.7774 14.4166 75.5912 17.2331 79.4955 30.352L76.9462 30.8357C75.6426 26.4517 74.222 22.8861 72.8117 20.436C71.507 18.1698 70.2386 16.9218 69.2396 16.9218C69.2068 16.9218 69.1737 16.9231 69.1411 16.9258C67.5786 17.0607 65.3031 20.7863 64.0345 30.8418C62.8551 40.1904 62.8409 52.5034 63.9944 65.5128C65.1486 78.5241 67.3299 90.6477 70.1362 99.65C71.393 103.682 72.7716 107.005 74.1228 109.26C75.3689 111.339 76.5747 112.484 77.5182 112.484C77.5507 112.484 77.583 112.482 77.6152 112.48C79.1102 112.351 81.9277 108.474 83.1135 94.8341L85.7339 93.9502Z" fill="#EE6723"/>
</g>
<defs>
<clipPath id="clip0_902_27053">
<rect width="128" height="128" fill="white" transform="translate(0.75 0.666626)"/>
</clipPath>
</defs>
</svg>
