<svg width="1921" height="321" viewBox="0 0 1921 321" fill="none" xmlns="http://www.w3.org/2000/svg">
<rect width="1920" height="320" transform="translate(0.419922 0.480469)" fill="#D4CFF7"/>
<g clip-path="url(#clip0_1121_37145)">
<path d="M590.114 99.7292C588.453 95.6709 584.459 92.7994 579.801 92.7994C576.43 92.7994 573.416 94.3015 571.374 96.6668C568.567 90.293 562.207 85.8363 554.793 85.8363C552.177 85.8363 549.694 86.4007 547.444 87.3966C543.683 81.4045 537.032 77.4043 529.427 77.4043C518.383 77.4043 509.308 85.8114 508.254 96.5755C506.211 94.2683 503.239 92.7994 499.909 92.7994C495.243 92.7994 491.257 95.6626 489.597 99.7292H590.114Z" fill="#E4E0FF"/>
<path d="M552.301 150.48C552.301 150.48 562.622 153.003 566.425 160.979C570.228 168.955 584.974 174.05 584.974 174.05C584.974 174.05 586.884 187.536 584.974 187.304C583.064 187.072 556.943 180.134 553.414 175.602C549.885 171.071 552.293 150.48 552.293 150.48H552.301Z" fill="#E4E0FF"/>
<path d="M632.833 36.7876C632.833 36.7876 648.642 41.8418 670.363 41.6924C679.48 41.626 677.039 42.4892 678.052 47.1865C679.056 51.8922 666.701 56.5812 655.783 56.241C644.864 55.909 631.596 55.1538 629.578 51.1204C627.561 47.0869 632.833 36.7793 632.833 36.7793V36.7876Z" fill="#4A3D6D"/>
<path d="M603.025 74.442C603.025 74.442 588.287 50.4074 593.701 45.8429C603.291 37.7511 627.179 33.4438 633.979 37.303C636.055 38.4815 634.942 47.0795 634.311 49.0049C625.452 76.1682 648.219 76.2097 629.578 78.3841C610.938 80.5668 603.025 74.442 603.025 74.442Z" fill="#4A3D6D"/>
<path d="M609.003 30.3887L605.009 39.8166C605.009 39.8166 607.401 43.3521 611.129 42.1902C614.857 41.0283 615.87 37.941 615.87 37.941L609.003 30.3887Z" fill="#FFC09C"/>
<path d="M609.36 30.8539C609.36 30.8539 608.63 30.8207 608.43 30.4223C608.24 30.0157 609.228 25.8909 609.618 25.7084C610.016 25.5258 610.78 25.5673 611.087 26.2395C611.403 26.9035 609.352 30.8539 609.352 30.8539H609.36Z" fill="#FFD8BC"/>
<path d="M624.97 26.1563C624.97 26.1563 625.128 28.8867 624.646 30.4221C624.173 31.9574 621.998 32.5135 620.362 36.9203C620.03 37.8167 616.401 41.1198 614.857 41.0368C612.657 40.9123 610.747 39.8915 610.182 39.3852C609.618 38.879 608.048 37.9163 608.787 31.3433C609.02 29.2851 613.23 19.4339 614.035 19.2513C614.84 19.0687 625.311 21.1352 624.962 26.1646L624.97 26.1563Z" fill="#FFD8BC"/>
<path d="M614.035 19.2433C614.035 19.2433 613.122 18.5544 611.76 20.5296C610.83 21.8824 610.074 27.418 610.033 27.808C609.991 28.2064 609.867 28.9782 609.867 28.9782C609.867 28.9782 610.622 28.638 611.037 28.14C611.453 27.6421 612.034 24.3224 613.819 22.7787C615.604 21.2351 616.816 20.7371 615.961 19.7827C615.106 18.8283 614.035 19.2433 614.035 19.2433Z" fill="#4A3D6D"/>
<path d="M623.592 20.5381C621.159 18.1479 617.165 17.8491 615.488 18.2724C613.811 18.6956 613.47 20.4053 613.47 20.4053L614.965 21.3265C614.301 21.7083 613.935 22.2062 613.827 22.7706C612.607 29.3352 620.262 31.7752 624.488 31.8416C627.204 31.8831 627.71 29.5676 627.71 29.5676C627.71 29.5676 626.033 22.9365 623.592 20.5381Z" fill="#4A3D6D"/>
<path d="M611.129 25.8338C611.129 25.8338 613.952 26.282 615.264 24.4893C616.576 22.6884 613.786 21.3771 613.47 21.5182C613.155 21.6593 611.129 25.8421 611.129 25.8421V25.8338Z" fill="#4A3D6D"/>
<path d="M495.475 288.529H830.92C830.92 288.529 828.122 269.333 810.685 270.163C793.249 270.992 801.203 249.655 779.241 229.397C763.05 214.458 728.368 214.176 708.292 233.787C688.215 253.398 594.199 227.944 566.848 242.883C539.49 257.822 550.284 271.93 530.356 269.44C510.429 266.951 497.144 278.586 495.483 288.537L495.475 288.529Z" fill="#E4E0FF"/>
<path d="M670.363 41.6939V44.1339C670.363 44.1339 672.804 46.6569 674 46.9059C675.196 47.1548 678.301 47.1963 678.301 47.1963C678.301 47.1963 678.799 46.0012 677.803 45.7108C676.815 45.4203 675.154 44.8144 675.154 44.8144L674.822 44.1339H684.288C684.288 44.1339 684.288 43.4368 683.789 43.2293C683.291 43.0218 679.115 41.7437 678.5 41.6607C677.886 41.5778 670.355 41.6939 670.355 41.6939H670.363Z" fill="#FFD8BC"/>
<path d="M552.617 302.846C576.265 302.846 595.436 300.378 595.436 297.335C595.436 294.291 576.265 291.824 552.617 291.824C528.969 291.824 509.798 294.291 509.798 297.335C509.798 300.378 528.969 302.846 552.617 302.846Z" fill="#E4E0FF"/>
<path d="M765.816 302.846C789.464 302.846 808.635 300.378 808.635 297.335C808.635 294.291 789.464 291.824 765.816 291.824C742.167 291.824 722.997 294.291 722.997 297.335C722.997 300.378 742.167 302.846 765.816 302.846Z" fill="#E4E0FF"/>
<path d="M775.063 33.7329C776.104 29.3488 773.391 24.9521 769.005 23.9125C764.619 22.873 760.22 25.5842 759.18 29.9682C758.14 34.3523 760.852 38.749 765.239 39.7886C769.625 40.8281 774.023 38.1169 775.063 33.7329Z" fill="#FFCC26"/>
<path d="M799.41 41.6021C796.039 41.6021 793.025 43.1042 790.982 45.4695C788.176 39.0957 781.816 34.639 774.401 34.639C771.785 34.639 769.303 35.2034 767.053 36.1993C763.291 30.2073 756.641 26.207 749.035 26.207C737.992 26.207 728.917 34.6141 727.862 45.3782C725.82 43.0711 722.847 41.6021 719.517 41.6021C714.851 41.6021 710.866 44.4653 709.205 48.5319H809.722C808.062 44.4736 804.068 41.6021 799.41 41.6021Z" fill="#E4E0FF"/>
<path d="M744.136 286.869V63.6618C744.136 62.7451 743.393 62.002 742.476 62.002L577.792 62.002C576.875 62.002 576.132 62.7451 576.132 63.6618V286.869C576.132 287.786 576.875 288.529 577.792 288.529H742.476C743.393 288.529 744.136 287.786 744.136 286.869Z" fill="#A59DE3"/>
<path d="M735.816 280.204V72.2832L586.427 72.2832V280.204H735.816Z" fill="#8D81E3"/>
<path d="M733.857 278.253V72.2832L586.427 72.2832V278.253H733.857Z" fill="white"/>
<path d="M689.568 62.001L689.294 60.615L689.161 59.9594L688.73 57.7767L686.795 48.0334C686.313 45.6017 685.018 43.9668 683.565 43.9668H636.719C635.266 43.9668 633.971 45.6017 633.481 48.0334L631.546 57.7767L631.115 59.9594L630.982 60.615L630.708 62.001L630.002 65.5614H690.282L689.568 62.001ZM660.134 55.2454C658.689 55.2454 657.51 54.0753 657.51 52.6229C657.51 51.1705 658.689 49.992 660.134 49.992C661.579 49.992 662.766 51.1705 662.766 52.6229C662.766 54.0753 661.587 55.2454 660.134 55.2454Z" fill="#A59DE3"/>
<path d="M689.568 62.0006H630.708L630.982 60.6146L631.114 59.959H689.161L689.294 60.6146L689.568 62.0006Z" fill="#8D81E3"/>
<path d="M688.206 132.594H602.402V146.96H688.206V132.594Z" fill="#E4E0FF"/>
<path d="M715.515 132.594H701.051V147.051H715.515V132.594Z" fill="#E4E0FF"/>
<path d="M688.206 168.074H602.402V182.44H688.206V168.074Z" fill="#E4E0FF"/>
<path d="M715.515 168.074H701.051V182.531H715.515V168.074Z" fill="#E4E0FF"/>
<path d="M688.206 203.553H602.402V217.919H688.206V203.553Z" fill="#E4E0FF"/>
<path d="M715.515 203.553H701.051V218.01H715.515V203.553Z" fill="#E4E0FF"/>
<path d="M688.206 239.031H602.402V253.397H688.206V239.031Z" fill="#E4E0FF"/>
<path d="M715.515 239.031H701.051V253.488H715.515V239.031Z" fill="#E4E0FF"/>
<path d="M689.607 82.2792L605.365 98.5703L608.095 112.675L692.337 96.3836L689.607 82.2792Z" fill="#E4E0FF"/>
<path d="M602.867 46.5066C601.348 43.5604 594.805 42.6723 591.774 48.2328C585.314 60.0841 589.823 74.8816 593.344 82.3094C597.91 91.9282 620.926 97.4721 620.926 97.4721C620.926 97.4721 623.276 89.2476 623.11 88.5753C622.944 87.9031 603.623 81.7451 605.74 61.6029C606.462 54.7643 604.603 49.8678 602.867 46.5066Z" fill="#4A3D6D"/>
<path d="M621.4 95.7882C621.4 95.7882 623.027 96.892 625.128 97.4729C627.229 98.0622 631.845 96.7509 632.02 96.3608C632.186 95.9625 631.903 90.3688 631.081 89.9787C630.259 89.5887 623.119 88.5762 623.119 88.5762L621.408 95.7882H621.4Z" fill="#FFD8BC"/>
<path d="M788.931 258.369H742.699C741.329 258.369 740.217 257.249 740.217 255.888C740.217 254.518 741.338 253.406 742.699 253.406H788.931C790.301 253.406 791.414 254.527 791.414 255.888C791.414 257.257 790.293 258.369 788.931 258.369Z" fill="#FFBB00"/>
<path d="M752.663 258.369H747.889V295.16H752.663V258.369Z" fill="#4A3D6D"/>
<path d="M784.007 258.369H779.233V295.16H784.007V258.369Z" fill="#4A3D6D"/>
<path d="M513.477 191.536C513.477 191.536 517.005 194.972 519.92 195.155C522.834 195.329 525.566 192.806 525.566 192.806L521.24 189.154L513.477 191.536Z" fill="#FFBF9D"/>
<path d="M564.748 290.695C563.668 290.613 563.444 291.509 560.173 290.488C560.115 290.48 560.057 290.463 560.007 290.438C560.007 290.438 551.114 244.336 545.186 222.675C542.869 247.058 539.573 290.438 539.573 290.438C539.515 290.463 539.465 290.48 539.407 290.488C536.135 291.501 535.903 290.613 534.823 290.695C534.3 290.737 528.289 242.079 531.104 209.629L558.878 208.467C563.328 240.892 565.304 290.729 564.748 290.695Z" fill="#4A3D6D"/>
<path d="M560.073 289.318C560.073 289.318 559.924 293.327 560.289 294.605C560.654 295.875 563.602 296.057 564.424 296.414C565.246 296.771 567.048 297.651 571.382 298.165C572.603 298.306 572.769 297.435 571.299 296.68C566.417 294.19 564.848 289.974 564.848 289.974L560.082 289.318H560.073Z" fill="#321707"/>
<path d="M539.565 289.318C539.565 289.318 539.714 293.327 539.349 294.605C538.984 295.875 536.036 296.057 535.214 296.414C534.392 296.771 532.59 297.651 528.256 298.165C527.036 298.306 526.87 297.435 528.339 296.68C533.221 294.19 534.791 289.974 534.791 289.974L539.557 289.318H539.565Z" fill="#321707"/>
<path d="M561.85 207.304C561.792 208.333 560.937 208.923 559.94 209.213C556.362 210.275 545.842 211.197 538.311 211.329C533.669 211.412 530.165 211.205 530.099 210.549C529.692 206.3 529.194 201.901 528.663 197.528C526.055 176.083 522.427 154.82 524.328 153.749C532.681 149.044 543.152 149.558 552.293 150.479C555.905 150.845 560.231 160.978 559.998 171.261C559.7 184.224 562.224 199.86 561.833 207.304H561.85Z" fill="#E4E0FF"/>
<path d="M537.871 141.832C537.871 141.832 537.124 142.023 536.808 141.683C536.493 141.334 536.219 136.886 536.567 136.587C536.908 136.289 537.688 136.098 538.211 136.67C538.735 137.243 537.879 141.841 537.879 141.841L537.871 141.832Z" fill="#FFD8BC"/>
<path d="M541.126 153.965C540.113 153.649 539.332 152.952 538.859 152.446C538.544 152.106 538.394 151.649 538.444 151.185L539.283 143.674L548.648 143.076L548.806 151.467C547.478 154.098 543.708 154.77 541.126 153.965Z" fill="#FFC09C"/>
<path d="M552.119 132.338C552.119 132.338 553.199 133.799 552.177 136.537C550.575 140.811 551.895 139.824 550.782 144.554C550.55 145.534 548.574 149.252 546.863 150.223C544.854 151.368 542.023 150.472 541.3 150.131C540.578 149.799 538.71 149.31 537.448 142.471C537.049 140.33 538.27 129.143 539.025 128.719C539.781 128.288 550.94 127.167 552.119 132.33V132.338Z" fill="#FFD8BC"/>
<path d="M539.025 128.727C539.025 128.727 538.062 128.644 537.904 130.353C537.746 132.071 537.547 138.146 537.622 138.553C537.696 138.968 537.663 139.823 537.663 139.823C537.663 139.823 538.195 139.823 538.469 139.2C538.743 138.578 538.568 134.428 539.897 132.337C541.217 130.245 542.28 129.366 541.134 128.669C539.988 127.971 539.033 128.718 539.033 128.718L539.025 128.727Z" fill="#4A3D6D"/>
<path d="M487.222 179.254L493.126 162.605L572.337 190.989L566.434 207.637L487.222 179.254Z" fill="#FFBB00"/>
<path d="M488.891 174.541L491.448 167.32L570.668 195.704L568.103 202.924L488.891 174.541Z" fill="#FFCC26"/>
<path d="M566.434 207.637L572.337 190.988L582.425 199.254L586.685 202.74L592.514 207.512L584.983 207.545L579.478 207.578L566.434 207.637Z" fill="#FFBF9D"/>
<path d="M584.982 207.545L586.685 202.74L592.513 207.512L584.982 207.545Z" fill="#4A3D6D"/>
<path d="M490.261 180.334L484.125 178.159C481.626 177.271 480.314 174.524 481.202 172.018L484.2 163.578C484.225 163.503 484.258 163.428 484.291 163.354C485.088 161.47 487.23 160.515 489.182 161.212L496.173 163.694L491.938 175.612L490.261 180.342V180.334Z" fill="#E4E0FF"/>
<path d="M491.938 175.602L485.811 173.428C483.311 172.54 481.999 169.793 482.888 167.286L484.291 163.336C485.088 161.452 487.23 160.498 489.182 161.195L496.173 163.676L491.938 175.594V175.602Z" fill="#EFEDFF"/>
<path d="M524.337 153.75C524.337 153.75 500.565 171.56 500.756 176.54C500.947 181.519 504.849 188.557 511.185 192.275C511.185 192.275 515.826 194.217 519.006 190.64C519.006 190.64 513.701 180.764 514.539 179.926C516.183 178.283 531.22 171.477 531.22 171.477C531.22 171.477 536.434 154.206 524.337 153.75Z" fill="#E4E0FF"/>
<path d="M539.2 131.383C539.2 131.383 539.432 136.247 543.143 134.429C544.298 133.865 545.701 134.213 546.44 135.267C547.893 137.342 548.864 138.479 550.807 137.118C552.75 135.749 552.069 138.936 554.56 137.716C556.146 136.935 555.789 135.309 554.818 134.321C554.544 134.039 554.419 133.641 554.444 133.251C554.552 131.724 554.461 128.163 551.339 127.591C550.874 127.508 550.459 127.532 550.085 127.607C549.196 127.79 548.283 127.491 547.752 126.752C546.764 125.391 544.804 123.756 541.367 124.661C533.703 126.678 536.875 135.5 537.622 138.562C538.12 140.62 539.208 131.383 539.208 131.383H539.2Z" fill="#4A3D6D"/>
<path d="M759.762 115.44C759.762 115.44 756.317 124.088 759.945 127.64C763.574 131.192 770.025 126.727 770.573 126.179C771.121 125.631 759.762 115.432 759.762 115.432V115.44Z" fill="#FFD8BC"/>
<path d="M759.555 177.61C759.555 177.61 746.843 174.597 747.175 178.066C750.446 212.159 754.349 253.216 754.756 253.49C756.242 254.494 757.72 253.058 757.77 253.041C757.77 253.041 763.092 187.104 759.563 177.61H759.555Z" fill="#FFBF9D"/>
<path d="M777.273 179.476C777.273 179.476 765.192 174.496 764.976 177.974C762.818 212.158 760.185 253.314 760.543 253.646C761.846 254.874 763.532 253.688 763.59 253.679C763.59 253.679 779.266 189.41 777.282 179.476H777.273Z" fill="#FFBF9D"/>
<path d="M775.779 133.822C773.728 132.868 771.104 131.855 767.932 131.042C768.281 130.818 758.757 131.432 759.613 131.241C756.026 132.179 753.402 133.358 751.393 134.42C750.247 135.026 752.92 136.254 753.078 137.54L759.031 164.247L749.591 172.231C749.591 173.352 751.426 174.273 752.871 174.264L759.571 174.248C761.979 174.049 763.208 173.069 763.656 172.115C764.271 172.878 765.45 173.551 767.418 173.708H774.118C775.563 173.708 774.691 176.771 774.691 175.65L769.634 164.056L776.219 138.495C776.509 136.71 777.423 134.586 775.779 133.822Z" fill="#FFCC26"/>
<path d="M755.204 144.098C755.204 144.098 747.158 165.651 729.431 205.985C729.431 205.985 750.986 224.75 791.862 211.736C791.862 211.736 786.448 175.029 771.926 156.87L755.196 144.098H755.204Z" fill="#FFCC26"/>
<path d="M723.32 118.021C721.377 114.411 713.846 115.075 713.846 114.469C713.846 113.863 713.971 113.257 714.693 113.133C715.424 113.008 726.475 112.643 726.841 113.133C727.206 113.622 727.978 116.195 727.978 116.195C727.978 116.195 723.91 119.125 723.32 118.021Z" fill="#FFD8BC"/>
<path d="M765.923 107.854C765.923 107.854 755.752 109.489 760.119 120.054C764.686 131.075 764.18 133.117 761.489 142.728C759.281 150.62 758.251 159.782 766.679 162.853C775.181 165.949 791.339 157.658 787.445 143.068C784.904 133.532 783.202 135.54 781.259 127.324C779.972 121.888 780.985 117.863 778.386 113.257C775.995 109.024 772.059 106.759 765.932 107.854H765.923Z" fill="#4A3D6D"/>
<path d="M754.341 250.75C754.341 250.75 746.918 252.144 746.735 252.816L746.552 253.489H758.608C758.608 253.489 758.916 253.115 758.608 251.721C758.301 250.327 758.118 250.02 757.878 250.02C757.637 250.02 754.341 250.742 754.341 250.742V250.75Z" fill="#383266"/>
<path d="M761.157 250.75C761.157 250.75 753.734 252.144 753.551 252.816L753.369 253.489H765.425C765.425 253.489 765.732 253.115 765.425 251.721C765.118 250.327 764.935 250.02 764.694 250.02C764.453 250.02 761.157 250.742 761.157 250.742V250.75Z" fill="#383266"/>
<path d="M755.204 144.098C755.204 144.098 733.666 141.915 731.407 139.542C729.149 137.176 722.772 117.988 723.32 118.022C723.868 118.055 728.991 115.499 729.431 115.864C729.879 116.229 736.439 132.985 738.988 133.35C741.537 133.715 759.031 131.4 759.031 131.4L755.204 144.098Z" fill="#FFCC26"/>
<path d="M727.414 98.2285H712.95V112.686H727.414V98.2285Z" fill="#E4E0FF"/>
</g>
<path d="M1105.73 66.418H1101.76V70.668H1096.42V73.8242H1101.76V80.8867H1105.73V66.418ZM1081.54 77.9492L1083.61 81.1055C1086.94 80.0586 1089.17 77.9336 1090.42 75.1992C1091.65 77.6367 1093.78 79.543 1096.83 80.5117L1098.92 77.4492C1094.39 76.1055 1092.4 72.8086 1092.42 69.418V67.3555H1088.39V69.418C1088.37 73.0898 1086.26 76.5586 1081.54 77.9492ZM1086.83 85.1367H1101.79V86.7617H1086.86V94.543H1106.54V91.418H1090.79V89.668H1105.73V82.0742H1086.83V85.1367ZM1135.42 80.4805H1109.39V83.6367H1120.76V88.543H1124.7V83.6367H1135.42V80.4805ZM1112.45 94.3555H1132.54V91.168H1116.42V86.0742H1112.45V94.3555ZM1112.64 78.1367H1132.08V67.668H1112.64V78.1367ZM1116.54 75.043V70.7617H1128.17V75.043H1116.54ZM1170.48 88.3242H1159.45V81.9805H1155.45V88.3242H1144.45V91.543H1170.48V88.3242ZM1145.51 80.0742L1147.08 83.2305C1151.98 82.3398 1155.64 79.8242 1157.44 76.4023C1159.28 79.7773 1162.97 82.1992 1167.95 83.0742L1169.51 79.918C1163.42 79.0273 1159.86 75.543 1159.54 71.793H1168.2V68.5742H1146.61V71.793H1155.29C1154.95 75.5586 1151.42 79.1211 1145.51 80.0742ZM1182.58 72.8555V68.6055H1178.58V72.8555C1178.58 78.1367 1176.31 83.5742 1171.48 85.793L1173.95 89.0117C1177.17 87.418 1179.36 84.4023 1180.61 80.7305C1181.78 84.1523 1183.84 86.9648 1186.89 88.4805L1189.29 85.293C1184.73 83.0898 1182.56 77.9492 1182.58 72.8555ZM1190.54 94.8555H1194.54V80.7617H1198.73V77.3867H1194.54V66.418H1190.54V94.8555ZM1230.95 66.418H1226.92V94.918H1230.95V66.418ZM1207.98 78.543C1207.97 84.793 1211.14 88.6992 1215.51 88.6992C1219.79 88.6992 1222.98 84.793 1222.98 78.543C1222.98 72.3398 1219.79 68.418 1215.51 68.418C1211.14 68.418 1207.97 72.3398 1207.98 78.543ZM1211.83 78.543C1211.81 74.3242 1213.29 72.0117 1215.51 72.0117C1217.67 72.0117 1219.12 74.3242 1219.14 78.543C1219.12 82.7773 1217.67 85.0898 1215.51 85.0742C1213.29 85.0898 1211.81 82.7773 1211.83 78.543ZM1259.23 66.418H1255.45V87.918H1259.23V66.418ZM1235.79 82.9805H1247.14V77.4805H1249.7V87.0117H1253.45V66.8555H1249.7V74.293H1247.14V68.6055H1243.45V72.9492H1239.58V68.6055H1235.79V82.9805ZM1239.58 79.7617V75.9805H1243.45V79.7617H1239.58ZM1239.95 94.3555H1259.95V91.168H1243.95V85.0742H1239.95V94.3555ZM1285.64 81.1055H1269.58V77.8555H1284.76V74.7305H1269.58V71.7305H1285.42V68.5117H1265.51V84.2617H1285.64V81.1055ZM1262.45 91.543H1288.48V88.293H1262.45V91.543ZM1296.58 69.3555H1291.76L1292.17 85.1992H1296.17L1296.58 69.3555ZM1291.58 89.6367C1291.54 91.0898 1292.73 92.2617 1294.2 92.2617C1295.59 92.2617 1296.79 91.0898 1296.79 89.6367C1296.79 88.1992 1295.59 87.0273 1294.2 87.043C1292.73 87.0273 1291.54 88.1992 1291.58 89.6367Z" fill="black"/>
<path d="M1091.46 122.088H1090.38V109.934H1091.46V122.088ZM1081.56 118.93C1083.18 118.16 1084.43 117.202 1085.29 116.059C1086.15 114.915 1086.65 113.607 1086.77 112.135H1082.12V111.26H1087.87C1087.86 113.092 1087.39 114.739 1086.47 116.202C1085.55 117.665 1084.11 118.866 1082.15 119.805L1081.56 118.93ZM1103.01 113.639H1104.85V114.541H1103.01V118.834H1101.93V109.934H1103.01V113.639ZM1093.53 116.564C1094.5 116.259 1095.35 115.869 1096.08 115.396C1096.81 114.922 1097.39 114.377 1097.81 113.762C1098.24 113.146 1098.49 112.486 1098.56 111.779H1094.03V110.877H1099.73C1099.73 111.902 1099.5 112.843 1099.04 113.7C1098.57 114.557 1097.91 115.3 1097.05 115.929C1096.18 116.558 1095.17 117.057 1093.99 117.426L1093.53 116.564ZM1095.4 117.932H1096.46V120.926H1103.57V121.828H1095.4V117.932ZM1106.9 121.062C1106.74 121.062 1106.59 121.021 1106.45 120.939C1106.32 120.857 1106.21 120.75 1106.13 120.618C1106.05 120.481 1106.02 120.333 1106.02 120.174C1106.02 120.019 1106.05 119.875 1106.13 119.743C1106.21 119.606 1106.32 119.499 1106.45 119.422C1106.59 119.34 1106.74 119.299 1106.9 119.299C1107.05 119.299 1107.19 119.338 1107.33 119.415C1107.46 119.493 1107.57 119.597 1107.65 119.729C1107.73 119.862 1107.77 120.005 1107.77 120.16C1107.77 120.406 1107.69 120.618 1107.52 120.796C1107.35 120.969 1107.14 121.058 1106.9 121.062ZM1106.91 115.566C1106.75 115.566 1106.6 115.525 1106.47 115.443C1106.33 115.361 1106.23 115.254 1106.14 115.122C1106.07 114.985 1106.03 114.837 1106.04 114.678C1106.03 114.523 1106.07 114.379 1106.14 114.247C1106.23 114.11 1106.33 114.003 1106.47 113.926C1106.6 113.844 1106.75 113.803 1106.91 113.803C1107.07 113.803 1107.21 113.841 1107.34 113.919C1107.48 113.996 1107.58 114.101 1107.66 114.233C1107.74 114.366 1107.79 114.509 1107.79 114.664C1107.79 114.91 1107.7 115.122 1107.53 115.3C1107.36 115.473 1107.16 115.562 1106.91 115.566ZM1113.84 111.082L1116.56 115.676H1116.69L1119.41 111.082H1120.83L1117.25 116.92V120.98H1116V116.92L1112.43 111.082H1113.84ZM1122.71 111.082L1125.44 115.676H1125.56L1128.28 111.082H1129.7L1126.12 116.92V120.98H1124.88V116.92L1121.31 111.082H1122.71ZM1131.59 111.082L1134.31 115.676H1134.43L1137.15 111.082H1138.57L1134.99 116.92V120.98H1133.75V116.92L1130.18 111.082H1131.59ZM1140.46 111.082L1143.18 115.676H1143.3L1146.03 111.082H1147.45L1143.87 116.92V120.98H1142.62V116.92L1139.05 111.082H1140.46ZM1148.96 121.062C1148.81 121.062 1148.66 121.021 1148.52 120.939C1148.39 120.857 1148.28 120.75 1148.2 120.618C1148.12 120.481 1148.09 120.333 1148.09 120.174C1148.09 120.019 1148.12 119.875 1148.2 119.743C1148.28 119.606 1148.39 119.499 1148.52 119.422C1148.66 119.34 1148.81 119.299 1148.96 119.299C1149.12 119.299 1149.26 119.338 1149.4 119.415C1149.53 119.493 1149.64 119.597 1149.72 119.729C1149.8 119.862 1149.84 120.005 1149.84 120.16C1149.84 120.406 1149.76 120.618 1149.59 120.796C1149.42 120.969 1149.21 121.058 1148.96 121.062ZM1151.84 120.98V111.082H1155.04C1155.99 111.082 1156.81 111.28 1157.5 111.677C1158.19 112.069 1158.72 112.636 1159.08 113.379C1159.45 114.117 1159.63 114.997 1159.63 116.018C1159.63 117.048 1159.44 117.934 1159.08 118.677C1158.71 119.42 1158.17 119.989 1157.46 120.386C1156.76 120.782 1155.91 120.98 1154.91 120.98H1151.84ZM1154.83 119.887C1156.02 119.887 1156.92 119.549 1157.52 118.875C1158.12 118.196 1158.43 117.243 1158.43 116.018C1158.43 115.215 1158.3 114.527 1158.04 113.953C1157.78 113.379 1157.39 112.939 1156.87 112.634C1156.35 112.328 1155.71 112.176 1154.95 112.176H1153.07V119.887H1154.83ZM1161.43 120.98V111.082H1164.63C1165.59 111.082 1166.41 111.28 1167.1 111.677C1167.79 112.069 1168.32 112.636 1168.68 113.379C1169.04 114.117 1169.23 114.997 1169.23 116.018C1169.23 117.048 1169.04 117.934 1168.67 118.677C1168.3 119.42 1167.77 119.989 1167.06 120.386C1166.35 120.782 1165.5 120.98 1164.51 120.98H1161.43ZM1164.43 119.887C1165.62 119.887 1166.51 119.549 1167.11 118.875C1167.72 118.196 1168.02 117.243 1168.02 116.018C1168.02 115.215 1167.89 114.527 1167.63 113.953C1167.37 113.379 1166.98 112.939 1166.46 112.634C1165.95 112.328 1165.31 112.176 1164.55 112.176H1162.66V119.887H1164.43ZM1171.09 121.062C1170.93 121.062 1170.78 121.021 1170.64 120.939C1170.51 120.857 1170.4 120.75 1170.32 120.618C1170.24 120.481 1170.21 120.333 1170.21 120.174C1170.21 120.019 1170.24 119.875 1170.32 119.743C1170.4 119.606 1170.51 119.499 1170.64 119.422C1170.78 119.34 1170.93 119.299 1171.09 119.299C1171.24 119.299 1171.38 119.338 1171.52 119.415C1171.65 119.493 1171.76 119.597 1171.84 119.729C1171.92 119.862 1171.96 120.005 1171.96 120.16C1171.96 120.406 1171.88 120.618 1171.71 120.796C1171.54 120.969 1171.33 121.058 1171.09 121.062ZM1173.96 120.98V111.082H1177.16C1178.11 111.082 1178.94 111.28 1179.62 111.677C1180.31 112.069 1180.84 112.636 1181.2 113.379C1181.57 114.117 1181.75 114.997 1181.75 116.018C1181.75 117.048 1181.57 117.934 1181.2 118.677C1180.83 119.42 1180.29 119.989 1179.58 120.386C1178.88 120.782 1178.03 120.98 1177.03 120.98H1173.96ZM1176.95 119.887C1178.14 119.887 1179.04 119.549 1179.64 118.875C1180.24 118.196 1180.55 117.243 1180.55 116.018C1180.55 115.215 1180.42 114.527 1180.16 113.953C1179.9 113.379 1179.51 112.939 1178.99 112.634C1178.47 112.328 1177.83 112.176 1177.07 112.176H1175.19V119.887H1176.95ZM1183.55 120.98V111.082H1186.75C1187.71 111.082 1188.53 111.28 1189.22 111.677C1189.91 112.069 1190.44 112.636 1190.8 113.379C1191.17 114.117 1191.35 114.997 1191.35 116.018C1191.35 117.048 1191.16 117.934 1190.79 118.677C1190.42 119.42 1189.89 119.989 1189.18 120.386C1188.47 120.782 1187.62 120.98 1186.63 120.98H1183.55ZM1186.55 119.887C1187.74 119.887 1188.63 119.549 1189.24 118.875C1189.84 118.196 1190.14 117.243 1190.14 116.018C1190.14 115.215 1190.01 114.527 1189.75 113.953C1189.5 113.379 1189.11 112.939 1188.59 112.634C1188.07 112.328 1187.43 112.176 1186.67 112.176H1184.79V119.887H1186.55ZM1193.07 118.055C1193.06 117.544 1193.14 117.12 1193.32 116.783C1193.49 116.446 1193.72 116.2 1194.01 116.045C1194.31 115.89 1194.62 115.812 1194.97 115.812C1195.29 115.812 1195.59 115.879 1195.86 116.011C1196.13 116.143 1196.46 116.368 1196.83 116.688C1197.09 116.906 1197.28 117.054 1197.42 117.132C1197.55 117.209 1197.71 117.248 1197.87 117.248C1198.15 117.248 1198.37 117.148 1198.53 116.947C1198.68 116.742 1198.76 116.451 1198.74 116.072H1199.82C1199.83 116.583 1199.75 117.007 1199.57 117.344C1199.39 117.681 1199.16 117.929 1198.86 118.089C1198.57 118.244 1198.25 118.324 1197.9 118.328C1197.58 118.324 1197.28 118.253 1197.01 118.116C1196.75 117.979 1196.43 117.749 1196.06 117.426C1195.8 117.212 1195.61 117.066 1195.47 116.988C1195.33 116.911 1195.18 116.87 1195.03 116.865C1194.75 116.87 1194.53 116.97 1194.36 117.166C1194.2 117.357 1194.13 117.654 1194.14 118.055H1193.07ZM1201.42 111.082L1204.14 115.676H1204.27L1206.99 111.082H1208.41L1204.83 116.92V120.98H1203.58V116.92L1200.02 111.082H1201.42ZM1210.3 111.082L1213.02 115.676H1213.14L1215.86 111.082H1217.28L1213.7 116.92V120.98H1212.46V116.92L1208.89 111.082H1210.3ZM1219.17 111.082L1221.89 115.676H1222.01L1224.73 111.082H1226.16L1222.57 116.92V120.98H1221.33V116.92L1217.76 111.082H1219.17ZM1228.04 111.082L1230.76 115.676H1230.89L1233.61 111.082H1235.03L1231.45 116.92V120.98H1230.2V116.92L1226.63 111.082H1228.04ZM1236.55 121.062C1236.39 121.062 1236.24 121.021 1236.1 120.939C1235.97 120.857 1235.86 120.75 1235.78 120.618C1235.7 120.481 1235.67 120.333 1235.67 120.174C1235.67 120.019 1235.7 119.875 1235.78 119.743C1235.86 119.606 1235.97 119.499 1236.1 119.422C1236.24 119.34 1236.39 119.299 1236.55 119.299C1236.7 119.299 1236.85 119.338 1236.98 119.415C1237.11 119.493 1237.22 119.597 1237.3 119.729C1237.38 119.862 1237.42 120.005 1237.42 120.16C1237.42 120.406 1237.34 120.618 1237.17 120.796C1237 120.969 1236.79 121.058 1236.55 121.062ZM1239.42 120.98V111.082H1242.62C1243.57 111.082 1244.4 111.28 1245.08 111.677C1245.77 112.069 1246.3 112.636 1246.66 113.379C1247.03 114.117 1247.21 114.997 1247.21 116.018C1247.21 117.048 1247.03 117.934 1246.66 118.677C1246.29 119.42 1245.75 119.989 1245.04 120.386C1244.34 120.782 1243.49 120.98 1242.49 120.98H1239.42ZM1242.41 119.887C1243.6 119.887 1244.5 119.549 1245.1 118.875C1245.7 118.196 1246.01 117.243 1246.01 116.018C1246.01 115.215 1245.88 114.527 1245.62 113.953C1245.36 113.379 1244.97 112.939 1244.45 112.634C1243.93 112.328 1243.29 112.176 1242.54 112.176H1240.65V119.887H1242.41ZM1249.02 120.98V111.082H1252.21C1253.17 111.082 1253.99 111.28 1254.68 111.677C1255.37 112.069 1255.9 112.636 1256.26 113.379C1256.63 114.117 1256.81 114.997 1256.81 116.018C1256.81 117.048 1256.62 117.934 1256.25 118.677C1255.89 119.42 1255.35 119.989 1254.64 120.386C1253.94 120.782 1253.09 120.98 1252.09 120.98H1249.02ZM1252.01 119.887C1253.2 119.887 1254.09 119.549 1254.7 118.875C1255.3 118.196 1255.61 117.243 1255.61 116.018C1255.61 115.215 1255.48 114.527 1255.22 113.953C1254.96 113.379 1254.57 112.939 1254.05 112.634C1253.53 112.328 1252.89 112.176 1252.13 112.176H1250.25V119.887H1252.01ZM1258.67 121.062C1258.51 121.062 1258.36 121.021 1258.22 120.939C1258.09 120.857 1257.98 120.75 1257.9 120.618C1257.82 120.481 1257.79 120.333 1257.79 120.174C1257.79 120.019 1257.82 119.875 1257.9 119.743C1257.98 119.606 1258.09 119.499 1258.22 119.422C1258.36 119.34 1258.51 119.299 1258.67 119.299C1258.82 119.299 1258.97 119.338 1259.1 119.415C1259.24 119.493 1259.34 119.597 1259.42 119.729C1259.5 119.862 1259.54 120.005 1259.54 120.16C1259.54 120.406 1259.46 120.618 1259.29 120.796C1259.12 120.969 1258.91 121.058 1258.67 121.062ZM1261.54 120.98V111.082H1264.74C1265.7 111.082 1266.52 111.28 1267.21 111.677C1267.89 112.069 1268.42 112.636 1268.79 113.379C1269.15 114.117 1269.33 114.997 1269.33 116.018C1269.33 117.048 1269.15 117.934 1268.78 118.677C1268.41 119.42 1267.87 119.989 1267.17 120.386C1266.46 120.782 1265.61 120.98 1264.62 120.98H1261.54ZM1264.53 119.887C1265.72 119.887 1266.62 119.549 1267.22 118.875C1267.83 118.196 1268.13 117.243 1268.13 116.018C1268.13 115.215 1268 114.527 1267.74 113.953C1267.48 113.379 1267.09 112.939 1266.57 112.634C1266.05 112.328 1265.41 112.176 1264.66 112.176H1262.77V119.887H1264.53ZM1271.14 120.98V111.082H1274.34C1275.29 111.082 1276.12 111.28 1276.8 111.677C1277.49 112.069 1278.02 112.636 1278.38 113.379C1278.75 114.117 1278.93 114.997 1278.93 116.018C1278.93 117.048 1278.75 117.934 1278.38 118.677C1278.01 119.42 1277.47 119.989 1276.76 120.386C1276.06 120.782 1275.21 120.98 1274.21 120.98H1271.14ZM1274.13 119.887C1275.32 119.887 1276.22 119.549 1276.82 118.875C1277.42 118.196 1277.73 117.243 1277.73 116.018C1277.73 115.215 1277.6 114.527 1277.34 113.953C1277.08 113.379 1276.69 112.939 1276.17 112.634C1275.65 112.328 1275.01 112.176 1274.25 112.176H1272.37V119.887H1274.13Z" fill="#838485"/>
<path d="M1092.54 161.529H1081.41V160.627H1086.43V157.674H1087.51V160.627H1092.54V161.529ZM1081.96 157.236C1082.66 157.118 1083.35 156.863 1084.04 156.471C1084.73 156.074 1085.3 155.593 1085.74 155.028C1086.18 154.459 1086.4 153.864 1086.4 153.244V152.943H1082.33V152.041H1091.58V152.943H1087.51V153.244C1087.51 153.864 1087.73 154.456 1088.18 155.021C1088.63 155.582 1089.2 156.056 1089.89 156.443C1090.59 156.831 1091.29 157.081 1092.01 157.195L1091.57 158.043C1090.94 157.915 1090.31 157.703 1089.7 157.407C1089.1 157.106 1088.55 156.735 1088.07 156.293C1087.59 155.846 1087.22 155.352 1086.97 154.81C1086.72 155.356 1086.35 155.858 1085.87 156.313C1085.39 156.765 1084.85 157.143 1084.24 157.448C1083.64 157.754 1083.03 157.97 1082.41 158.098L1081.96 157.236ZM1103.55 159.834H1102.48V150.947H1103.55V159.834ZM1093.8 154.775C1093.8 154.201 1093.94 153.688 1094.21 153.237C1094.49 152.786 1094.87 152.433 1095.35 152.178C1095.84 151.923 1096.38 151.795 1096.98 151.795C1097.59 151.795 1098.13 151.923 1098.61 152.178C1099.09 152.433 1099.47 152.786 1099.75 153.237C1100.03 153.688 1100.17 154.201 1100.17 154.775C1100.17 155.354 1100.03 155.871 1099.75 156.327C1099.47 156.783 1099.09 157.138 1098.61 157.394C1098.13 157.644 1097.59 157.77 1096.98 157.77C1096.38 157.77 1095.84 157.644 1095.35 157.394C1094.87 157.138 1094.49 156.783 1094.21 156.327C1093.94 155.871 1093.8 155.354 1093.8 154.775ZM1094.85 154.775C1094.85 155.172 1094.94 155.527 1095.12 155.842C1095.31 156.152 1095.56 156.393 1095.88 156.566C1096.21 156.74 1096.58 156.826 1096.98 156.826C1097.39 156.826 1097.75 156.74 1098.07 156.566C1098.39 156.393 1098.65 156.152 1098.84 155.842C1099.02 155.527 1099.12 155.172 1099.12 154.775C1099.12 154.383 1099.02 154.035 1098.84 153.729C1098.65 153.42 1098.39 153.178 1098.07 153.005C1097.75 152.827 1097.39 152.738 1096.98 152.738C1096.58 152.738 1096.21 152.825 1095.88 152.998C1095.56 153.171 1095.31 153.413 1095.12 153.723C1094.94 154.033 1094.85 154.383 1094.85 154.775ZM1095.7 158.932H1096.77V161.926H1103.93V162.828H1095.7V158.932ZM1108.88 151.877C1109.43 151.877 1109.92 152.03 1110.36 152.335C1110.79 152.636 1111.14 153.066 1111.41 153.627C1111.68 154.183 1111.84 154.835 1111.89 155.582H1114.62V150.934H1115.69V163.115H1114.62V156.471H1111.91C1111.87 157.255 1111.72 157.94 1111.45 158.528C1111.18 159.112 1110.83 159.561 1110.38 159.875C1109.94 160.185 1109.44 160.34 1108.88 160.34C1108.28 160.34 1107.75 160.169 1107.29 159.827C1106.83 159.481 1106.47 158.989 1106.21 158.351C1105.96 157.713 1105.83 156.967 1105.83 156.115C1105.83 155.268 1105.96 154.525 1106.21 153.887C1106.47 153.244 1106.83 152.75 1107.29 152.403C1107.75 152.052 1108.28 151.877 1108.88 151.877ZM1106.86 156.115C1106.86 156.767 1106.94 157.341 1107.11 157.838C1107.28 158.33 1107.52 158.711 1107.83 158.979C1108.13 159.248 1108.48 159.383 1108.88 159.383C1109.27 159.383 1109.62 159.248 1109.92 158.979C1110.23 158.711 1110.47 158.328 1110.64 157.831C1110.82 157.334 1110.9 156.762 1110.9 156.115C1110.9 155.468 1110.82 154.896 1110.64 154.399C1110.47 153.903 1110.23 153.518 1109.92 153.244C1109.62 152.971 1109.27 152.834 1108.88 152.834C1108.48 152.834 1108.13 152.971 1107.83 153.244C1107.52 153.518 1107.28 153.903 1107.11 154.399C1106.94 154.892 1106.86 155.464 1106.86 156.115ZM1123.77 152.725C1123.77 153.39 1123.99 154.03 1124.44 154.646C1124.88 155.261 1125.45 155.785 1126.15 156.218C1126.84 156.646 1127.55 156.926 1128.27 157.059L1127.77 157.961C1127.15 157.815 1126.54 157.578 1125.93 157.25C1125.34 156.922 1124.8 156.516 1124.32 156.033C1123.84 155.55 1123.48 155.021 1123.22 154.447C1122.97 155.021 1122.6 155.55 1122.12 156.033C1121.64 156.512 1121.1 156.917 1120.5 157.25C1119.9 157.578 1119.29 157.815 1118.67 157.961L1118.18 157.059C1118.89 156.922 1119.59 156.639 1120.28 156.211C1120.97 155.783 1121.54 155.261 1121.98 154.646C1122.43 154.03 1122.65 153.39 1122.65 152.725V151.795H1123.77V152.725ZM1117.71 160.545H1128.84V161.434H1117.71V160.545ZM1140.23 163.088H1139.19V150.934H1140.23V163.088ZM1129.96 156.184C1129.96 155.331 1130.07 154.589 1130.28 153.955C1130.5 153.317 1130.81 152.825 1131.2 152.479C1131.59 152.132 1132.05 151.959 1132.57 151.959C1133.06 151.959 1133.49 152.112 1133.87 152.417C1134.25 152.718 1134.55 153.148 1134.77 153.709C1135 154.265 1135.14 154.921 1135.18 155.678H1136.76V151.193H1137.78V162.473H1136.76V156.566H1135.19C1135.16 157.346 1135.03 158.027 1134.8 158.61C1134.58 159.189 1134.27 159.633 1133.89 159.943C1133.51 160.253 1133.07 160.408 1132.57 160.408C1132.05 160.408 1131.59 160.237 1131.2 159.896C1130.81 159.549 1130.5 159.057 1130.28 158.419C1130.07 157.781 1129.96 157.036 1129.96 156.184ZM1130.97 156.184C1130.97 156.835 1131.03 157.403 1131.16 157.886C1131.29 158.369 1131.48 158.74 1131.72 159C1131.96 159.26 1132.25 159.387 1132.57 159.383C1132.9 159.387 1133.18 159.262 1133.42 159.007C1133.67 158.747 1133.86 158.378 1133.99 157.899C1134.12 157.421 1134.19 156.86 1134.19 156.218C1134.19 155.557 1134.12 154.983 1133.99 154.495C1133.86 154.007 1133.67 153.632 1133.43 153.367C1133.19 153.103 1132.9 152.971 1132.57 152.971C1132.24 152.971 1131.96 153.103 1131.72 153.367C1131.48 153.627 1131.29 153.998 1131.16 154.481C1131.03 154.965 1130.97 155.532 1130.97 156.184ZM1155.81 163.088H1154.79V156.717H1153V162.459H1152.01V151.207H1153V155.828H1154.79V150.934H1155.81V163.088ZM1145.88 152.424H1150.43V153.312H1146.94V159.164C1147.84 159.16 1148.6 159.134 1149.22 159.089C1149.85 159.039 1150.48 158.95 1151.12 158.822L1151.22 159.725C1150.54 159.866 1149.86 159.959 1149.2 160.005C1148.53 160.05 1147.68 160.076 1146.65 160.08H1145.88V152.424ZM1167.03 154.953H1168.86V155.855H1167.03V160.053H1165.96V150.947H1167.03V154.953ZM1157.55 152.438H1160.64V150.947H1161.71V152.438H1164.8V153.312H1157.55V152.438ZM1158.25 156.252C1158.25 155.796 1158.37 155.397 1158.61 155.056C1158.85 154.714 1159.19 154.45 1159.64 154.263C1160.08 154.076 1160.59 153.982 1161.17 153.982C1161.75 153.982 1162.25 154.076 1162.69 154.263C1163.13 154.45 1163.48 154.714 1163.72 155.056C1163.97 155.397 1164.1 155.796 1164.1 156.252C1164.1 156.703 1163.97 157.1 1163.72 157.441C1163.48 157.779 1163.13 158.038 1162.69 158.221C1162.25 158.403 1161.75 158.494 1161.17 158.494C1160.59 158.494 1160.08 158.403 1159.64 158.221C1159.19 158.038 1158.85 157.779 1158.61 157.441C1158.37 157.1 1158.25 156.703 1158.25 156.252ZM1159.27 156.252C1159.27 156.535 1159.35 156.783 1159.51 156.997C1159.66 157.207 1159.88 157.368 1160.17 157.482C1160.46 157.596 1160.8 157.651 1161.17 157.646C1161.55 157.651 1161.88 157.596 1162.17 157.482C1162.46 157.368 1162.68 157.207 1162.84 156.997C1163 156.783 1163.08 156.535 1163.09 156.252C1163.08 155.969 1163 155.721 1162.84 155.507C1162.68 155.288 1162.46 155.122 1162.17 155.008C1161.89 154.889 1161.56 154.83 1161.19 154.83C1160.81 154.83 1160.47 154.889 1160.18 155.008C1159.89 155.122 1159.67 155.286 1159.51 155.5C1159.35 155.714 1159.27 155.965 1159.27 156.252ZM1159.42 159.328H1160.48V161.926H1167.59V162.828H1159.42V159.328ZM1177.42 154.201C1177.42 154.921 1177.56 155.632 1177.83 156.334C1178.12 157.036 1178.5 157.66 1178.98 158.207C1179.47 158.749 1180 159.155 1180.59 159.424L1179.95 160.299C1179.25 159.943 1178.64 159.424 1178.09 158.74C1177.56 158.052 1177.15 157.275 1176.88 156.409C1176.61 157.325 1176.2 158.148 1175.66 158.877C1175.12 159.606 1174.51 160.153 1173.82 160.518L1173.12 159.656C1173.71 159.369 1174.25 158.938 1174.74 158.364C1175.22 157.785 1175.61 157.132 1175.89 156.402C1176.18 155.669 1176.32 154.935 1176.32 154.201V151.986H1177.42V154.201ZM1179.26 155.09H1182.15V150.934H1183.21V163.115H1182.15V155.965H1179.26V155.09ZM1195.26 163.115H1194.18V150.934H1195.26V163.115ZM1185.95 151.973H1187.01V155.186H1190.64V151.973H1191.69V160.176H1185.95V151.973ZM1190.64 159.273V156.047H1187.01V159.273H1190.64ZM1203.39 152.725C1203.39 153.39 1203.62 154.03 1204.06 154.646C1204.51 155.261 1205.08 155.785 1205.77 156.218C1206.47 156.646 1207.18 156.926 1207.89 157.059L1207.4 157.961C1206.77 157.815 1206.16 157.578 1205.56 157.25C1204.96 156.922 1204.42 156.516 1203.95 156.033C1203.47 155.55 1203.1 155.021 1202.85 154.447C1202.59 155.021 1202.22 155.55 1201.75 156.033C1201.27 156.512 1200.73 156.917 1200.12 157.25C1199.53 157.578 1198.92 157.815 1198.29 157.961L1197.8 157.059C1198.52 156.922 1199.22 156.639 1199.91 156.211C1200.6 155.783 1201.17 155.261 1201.61 154.646C1202.05 154.03 1202.27 153.39 1202.27 152.725V151.795H1203.39V152.725ZM1197.34 160.545H1208.46V161.434H1197.34V160.545ZM1223.03 157.223H1221.95V154.064H1219.24V153.176H1221.95V150.934H1223.03V157.223ZM1212.94 156.389C1213.54 156.188 1214.08 155.894 1214.54 155.507C1215.01 155.115 1215.38 154.659 1215.64 154.14C1215.9 153.616 1216.03 153.062 1216.04 152.479V151.33H1217.09V152.479C1217.09 153.003 1217.21 153.506 1217.47 153.989C1217.72 154.472 1218.08 154.901 1218.54 155.274C1219 155.644 1219.53 155.924 1220.11 156.115L1219.54 156.949C1218.86 156.708 1218.27 156.357 1217.75 155.896C1217.24 155.436 1216.85 154.898 1216.58 154.283C1216.32 154.976 1215.93 155.58 1215.4 156.095C1214.87 156.605 1214.24 156.99 1213.52 157.25L1212.94 156.389ZM1215.15 157.838H1223.03V160.736H1216.23V162.062H1223.48V162.924H1215.18V159.916H1221.96V158.699H1215.15V157.838ZM1236.16 158.043H1231.21V160.531H1230.15V158.043H1225.04V157.154H1236.16V158.043ZM1226.46 159.328H1227.54V161.926H1234.92V162.828H1226.46V159.328ZM1226.48 151.535H1234.71V155.76H1226.48V151.535ZM1233.65 154.898V152.383H1227.54V154.898H1233.65ZM1251.79 161.529H1240.66V160.627H1245.68V157.674H1246.76V160.627H1251.79V161.529ZM1241.21 157.236C1241.91 157.118 1242.6 156.863 1243.29 156.471C1243.98 156.074 1244.55 155.593 1244.99 155.028C1245.43 154.459 1245.65 153.864 1245.65 153.244V152.943H1241.58V152.041H1250.83V152.943H1246.76V153.244C1246.76 153.864 1246.98 154.456 1247.43 155.021C1247.88 155.582 1248.45 156.056 1249.14 156.443C1249.84 156.831 1250.54 157.081 1251.26 157.195L1250.82 158.043C1250.19 157.915 1249.56 157.703 1248.95 157.407C1248.35 157.106 1247.8 156.735 1247.32 156.293C1246.84 155.846 1246.47 155.352 1246.22 154.81C1245.97 155.356 1245.6 155.858 1245.12 156.313C1244.64 156.765 1244.1 157.143 1243.49 157.448C1242.89 157.754 1242.28 157.97 1241.66 158.098L1241.21 157.236ZM1256.84 154.201C1256.84 154.898 1256.97 155.596 1257.25 156.293C1257.54 156.986 1257.92 157.605 1258.39 158.152C1258.88 158.699 1259.41 159.114 1259.98 159.396L1259.32 160.258C1258.65 159.911 1258.05 159.399 1257.52 158.72C1256.99 158.041 1256.59 157.277 1256.32 156.43C1256.05 157.327 1255.65 158.139 1255.11 158.863C1254.56 159.583 1253.95 160.126 1253.27 160.49L1252.58 159.629C1253.17 159.342 1253.71 158.911 1254.19 158.337C1254.68 157.763 1255.06 157.113 1255.35 156.389C1255.63 155.66 1255.78 154.93 1255.78 154.201V151.986H1256.84V154.201ZM1261.1 150.934H1262.17V155.869H1264.21V156.799H1262.17V163.088H1261.1V150.934ZM1278.4 163.115H1277.32V150.934H1278.4V163.115ZM1268.83 156.115C1268.83 155.268 1268.96 154.525 1269.22 153.887C1269.49 153.244 1269.85 152.75 1270.32 152.403C1270.79 152.052 1271.33 151.877 1271.93 151.877C1272.53 151.877 1273.07 152.052 1273.54 152.403C1274.01 152.75 1274.37 153.244 1274.64 153.887C1274.9 154.525 1275.03 155.268 1275.03 156.115C1275.03 156.963 1274.9 157.708 1274.64 158.351C1274.37 158.989 1274.01 159.481 1273.54 159.827C1273.07 160.169 1272.53 160.34 1271.93 160.34C1271.33 160.34 1270.79 160.169 1270.32 159.827C1269.85 159.481 1269.49 158.989 1269.22 158.351C1268.96 157.708 1268.83 156.963 1268.83 156.115ZM1269.87 156.115C1269.87 156.767 1269.95 157.341 1270.12 157.838C1270.3 158.33 1270.54 158.711 1270.86 158.979C1271.17 159.248 1271.53 159.383 1271.93 159.383C1272.34 159.383 1272.69 159.248 1273 158.979C1273.32 158.711 1273.56 158.33 1273.73 157.838C1273.91 157.341 1273.99 156.767 1273.99 156.115C1273.99 155.464 1273.91 154.892 1273.73 154.399C1273.56 153.903 1273.32 153.518 1273 153.244C1272.69 152.971 1272.34 152.834 1271.93 152.834C1271.53 152.834 1271.17 152.971 1270.86 153.244C1270.54 153.518 1270.3 153.903 1270.12 154.399C1269.95 154.896 1269.87 155.468 1269.87 156.115ZM1290.8 160.176H1289.77V150.934H1290.8V160.176ZM1281.04 151.918H1282.05V153.969H1284.75V151.918H1285.77V154.475H1287.45V151.18H1288.47V159.807H1287.45V155.363H1285.77V157.865H1281.04V151.918ZM1284.75 156.977V154.816H1282.05V156.977H1284.75ZM1282.83 158.932H1283.89V161.926H1291.17V162.828H1282.83V158.932ZM1302.42 158.385H1294.01V151.986H1302.28V152.889H1295.1V154.693H1302.02V155.555H1295.1V157.51H1302.42V158.385ZM1292.57 160.613H1303.7V161.502H1292.57V160.613ZM1315.79 157.428H1304.66V156.58H1315.79V157.428ZM1306 158.398H1314.39V160.982H1307.09V162.145H1314.79V162.924H1306.01V160.244H1313.33V159.205H1306V158.398ZM1306.07 151.303H1314.35V153.818H1307.18V154.885H1314.57V155.664H1306.11V153.08H1313.27V152.082H1306.07V151.303ZM1330.31 157.236H1329.26V150.934H1330.31V157.236ZM1320.37 156.266C1320.98 156.056 1321.52 155.746 1321.99 155.336C1322.46 154.926 1322.83 154.452 1323.1 153.914C1323.37 153.372 1323.5 152.807 1323.5 152.219V151.289H1324.59V152.219C1324.59 152.779 1324.72 153.317 1324.98 153.832C1325.25 154.342 1325.61 154.791 1326.08 155.179C1326.56 155.562 1327.1 155.851 1327.7 156.047L1327.16 156.881C1326.45 156.639 1325.82 156.275 1325.28 155.787C1324.74 155.295 1324.33 154.721 1324.06 154.064C1323.79 154.771 1323.38 155.391 1322.83 155.924C1322.28 156.457 1321.65 156.854 1320.93 157.113L1320.37 156.266ZM1322.42 157.852H1330.32V160.764H1323.5V162.076H1330.76V162.951H1322.45V159.93H1329.26V158.713H1322.42V157.852ZM1336.71 154.201C1336.71 154.921 1336.86 155.637 1337.15 156.348C1337.45 157.054 1337.85 157.683 1338.35 158.234C1338.85 158.786 1339.4 159.196 1340 159.465L1339.35 160.312C1338.65 159.975 1338.02 159.467 1337.46 158.788C1336.9 158.104 1336.47 157.332 1336.18 156.471C1335.9 157.387 1335.48 158.207 1334.92 158.932C1334.35 159.656 1333.71 160.199 1333 160.559L1332.32 159.656C1332.92 159.383 1333.47 158.961 1333.98 158.392C1334.49 157.822 1334.89 157.17 1335.18 156.437C1335.48 155.698 1335.64 154.953 1335.64 154.201V151.986H1336.71V154.201ZM1341.33 150.934H1342.41V163.115H1341.33V150.934ZM1353.99 154.051H1355.82V154.967H1353.99V158.002H1352.92V150.934H1353.99V154.051ZM1344.51 152.191H1347.6V150.824H1348.67V152.191H1351.76V153.08H1344.51V152.191ZM1345.21 155.773C1345.21 155.345 1345.33 154.971 1345.57 154.652C1345.81 154.329 1346.16 154.08 1346.6 153.907C1347.04 153.729 1347.55 153.641 1348.14 153.641C1348.72 153.641 1349.22 153.729 1349.66 153.907C1350.1 154.08 1350.44 154.329 1350.69 154.652C1350.93 154.971 1351.06 155.345 1351.06 155.773C1351.06 156.202 1350.93 156.578 1350.69 156.901C1350.44 157.225 1350.1 157.473 1349.66 157.646C1349.22 157.82 1348.71 157.906 1348.14 157.906C1347.55 157.906 1347.04 157.82 1346.6 157.646C1346.16 157.473 1345.81 157.225 1345.57 156.901C1345.33 156.578 1345.21 156.202 1345.21 155.773ZM1346.24 155.773C1346.24 156.033 1346.31 156.263 1346.47 156.464C1346.62 156.66 1346.84 156.812 1347.13 156.922C1347.42 157.031 1347.76 157.086 1348.14 157.086C1348.51 157.086 1348.84 157.031 1349.13 156.922C1349.42 156.812 1349.65 156.66 1349.8 156.464C1349.96 156.263 1350.05 156.033 1350.05 155.773C1350.05 155.514 1349.96 155.286 1349.8 155.09C1349.64 154.889 1349.42 154.737 1349.13 154.632C1348.84 154.522 1348.51 154.47 1348.14 154.475C1347.76 154.47 1347.43 154.522 1347.14 154.632C1346.85 154.737 1346.63 154.889 1346.47 155.09C1346.31 155.286 1346.24 155.514 1346.24 155.773ZM1346.3 158.535H1347.37V159.834H1352.92V158.535H1353.99V162.924H1346.3V158.535ZM1352.92 162.062V160.682H1347.37V162.062H1352.92ZM1366.61 163.088H1365.54V150.934H1366.61V163.088ZM1357.38 152.137H1358.43V159.027C1359.43 159.018 1360.41 158.97 1361.36 158.884C1362.32 158.793 1363.28 158.645 1364.24 158.439L1364.39 159.355C1363.36 159.57 1362.35 159.725 1361.37 159.82C1360.4 159.911 1359.39 159.957 1358.36 159.957H1357.38V152.137ZM1378.09 155.746H1380.13V156.648H1378.09V163.115H1377.03V150.934H1378.09V155.746ZM1369.22 152.123H1374.89V153.012H1370.29V159.164C1371.43 159.16 1372.43 159.125 1373.27 159.062C1374.12 158.998 1374.97 158.886 1375.85 158.727L1375.99 159.656C1375.08 159.82 1374.2 159.93 1373.33 159.984C1372.47 160.039 1371.42 160.066 1370.18 160.066H1369.22V152.123ZM1382.07 162.062C1381.91 162.062 1381.76 162.021 1381.63 161.939C1381.49 161.857 1381.39 161.75 1381.3 161.618C1381.23 161.481 1381.19 161.333 1381.2 161.174C1381.19 161.019 1381.23 160.875 1381.3 160.743C1381.39 160.606 1381.49 160.499 1381.63 160.422C1381.76 160.34 1381.91 160.299 1382.07 160.299C1382.23 160.299 1382.37 160.338 1382.5 160.415C1382.64 160.493 1382.74 160.597 1382.82 160.729C1382.9 160.862 1382.95 161.005 1382.95 161.16C1382.95 161.406 1382.86 161.618 1382.69 161.796C1382.52 161.969 1382.32 162.058 1382.07 162.062ZM1092.49 176.191H1087.47V180.115H1086.42V176.191H1081.41V175.289H1092.49V176.191ZM1082.11 173.484C1082.84 173.384 1083.53 173.181 1084.19 172.876C1084.86 172.566 1085.39 172.19 1085.8 171.748C1086.21 171.301 1086.42 170.832 1086.42 170.34V170.326H1082.49V169.451H1086.42V167.934H1087.47V169.451H1091.42V170.326H1087.48V170.34C1087.48 170.827 1087.69 171.295 1088.09 171.741C1088.5 172.188 1089.03 172.566 1089.69 172.876C1090.35 173.181 1091.05 173.384 1091.78 173.484L1091.38 174.346C1090.75 174.25 1090.14 174.086 1089.56 173.854C1088.98 173.617 1088.46 173.323 1088.01 172.972C1087.56 172.616 1087.21 172.224 1086.96 171.796C1086.71 172.229 1086.35 172.621 1085.89 172.972C1085.43 173.323 1084.91 173.617 1084.33 173.854C1083.75 174.086 1083.14 174.25 1082.51 174.346L1082.11 173.484ZM1097.65 170.518C1097.65 171.014 1097.79 171.486 1098.05 171.933C1098.32 172.375 1098.69 172.762 1099.16 173.095C1099.63 173.427 1100.16 173.68 1100.76 173.854L1100.27 174.701C1099.55 174.487 1098.91 174.163 1098.37 173.73C1097.83 173.293 1097.42 172.78 1097.15 172.192C1096.88 172.83 1096.48 173.389 1095.94 173.867C1095.4 174.341 1094.77 174.697 1094.04 174.934L1093.51 174.1C1094.11 173.917 1094.65 173.648 1095.11 173.293C1095.58 172.933 1095.95 172.514 1096.21 172.035C1096.47 171.557 1096.6 171.051 1096.6 170.518V170.244H1093.85V169.383H1096.6V167.879H1097.68V169.383H1100.4V170.244H1097.65V170.518ZM1095.64 175.768H1103.59V179.924H1095.64V175.768ZM1102.54 179.049V176.643H1096.71V179.049H1102.54ZM1100.05 171.352H1102.51V167.934H1103.59V175.139H1102.51V172.24H1100.05V171.352ZM1111.15 168.152C1112.05 168.152 1112.82 168.234 1113.46 168.398C1114.1 168.558 1114.59 168.795 1114.93 169.109C1115.27 169.419 1115.44 169.798 1115.44 170.244C1115.44 170.7 1115.27 171.087 1114.93 171.406C1114.59 171.725 1114.1 171.967 1113.46 172.131C1112.82 172.29 1112.05 172.372 1111.15 172.377C1110.24 172.372 1109.47 172.29 1108.82 172.131C1108.18 171.967 1107.69 171.725 1107.35 171.406C1107.01 171.087 1106.84 170.7 1106.84 170.244C1106.84 169.798 1107.01 169.419 1107.35 169.109C1107.69 168.795 1108.18 168.558 1108.82 168.398C1109.47 168.234 1110.25 168.152 1111.15 168.152ZM1105.61 173.197H1116.69V174.072H1105.61V173.197ZM1106.95 175.125H1115.26V177.846H1108.04V179.104H1115.63V179.951H1106.98V177.053H1114.21V175.945H1106.95V175.125ZM1107.96 170.244C1107.96 170.663 1108.23 170.987 1108.79 171.215C1109.35 171.443 1110.13 171.557 1111.15 171.557C1112.16 171.557 1112.94 171.445 1113.5 171.222C1114.06 170.994 1114.34 170.668 1114.35 170.244C1114.35 169.98 1114.22 169.752 1113.96 169.561C1113.71 169.369 1113.35 169.221 1112.86 169.116C1112.39 169.011 1111.81 168.959 1111.15 168.959C1110.48 168.959 1109.9 169.011 1109.43 169.116C1108.95 169.221 1108.58 169.369 1108.33 169.561C1108.08 169.752 1107.96 169.98 1107.96 170.244ZM1132.3 175.262H1121.21V174.387H1126.21V173.184H1122.69V168.289H1130.92V169.164H1123.77V170.299H1130.59V171.119H1123.77V172.322H1130.99V173.184H1127.28V174.387H1132.3V175.262ZM1122.56 178.119C1122.56 177.486 1122.92 177.003 1123.64 176.67C1124.37 176.333 1125.41 176.169 1126.76 176.178C1128.1 176.169 1129.13 176.333 1129.85 176.67C1130.58 177.003 1130.94 177.486 1130.95 178.119C1130.94 178.753 1130.58 179.233 1129.86 179.562C1129.14 179.894 1128.11 180.061 1126.76 180.061C1125.4 180.061 1124.36 179.894 1123.64 179.562C1122.92 179.233 1122.56 178.753 1122.56 178.119ZM1123.64 178.119C1123.64 178.488 1123.9 178.769 1124.44 178.96C1124.98 179.147 1125.75 179.236 1126.76 179.227C1127.76 179.236 1128.53 179.147 1129.06 178.96C1129.59 178.769 1129.86 178.488 1129.87 178.119C1129.86 177.759 1129.59 177.481 1129.05 177.285C1128.52 177.089 1127.76 176.989 1126.76 176.984C1125.75 176.989 1124.98 177.089 1124.44 177.285C1123.91 177.481 1123.64 177.759 1123.64 178.119ZM1139.39 170.914H1133.3V170.039H1135.83V168.303H1136.89V170.039H1139.39V170.914ZM1133.73 174.496C1133.73 173.967 1133.85 173.493 1134.07 173.074C1134.3 172.655 1134.61 172.327 1135.01 172.09C1135.4 171.853 1135.85 171.734 1136.35 171.734C1136.85 171.734 1137.3 171.853 1137.7 172.09C1138.1 172.327 1138.41 172.655 1138.64 173.074C1138.86 173.489 1138.98 173.963 1138.98 174.496C1138.98 175.034 1138.86 175.515 1138.64 175.938C1138.41 176.358 1138.1 176.688 1137.7 176.93C1137.3 177.167 1136.85 177.285 1136.35 177.285C1135.85 177.285 1135.4 177.167 1135 176.93C1134.6 176.688 1134.29 176.358 1134.07 175.938C1133.85 175.515 1133.73 175.034 1133.73 174.496ZM1134.69 174.496C1134.69 174.852 1134.76 175.171 1134.9 175.453C1135.04 175.731 1135.24 175.95 1135.49 176.109C1135.74 176.264 1136.03 176.342 1136.35 176.342C1136.66 176.342 1136.95 176.264 1137.21 176.109C1137.46 175.95 1137.66 175.731 1137.81 175.453C1137.95 175.171 1138.03 174.852 1138.03 174.496C1138.03 174.145 1137.95 173.831 1137.81 173.553C1137.66 173.27 1137.46 173.049 1137.21 172.89C1136.95 172.726 1136.66 172.641 1136.35 172.637C1136.03 172.641 1135.74 172.726 1135.49 172.89C1135.24 173.049 1135.04 173.27 1134.9 173.553C1134.76 173.831 1134.69 174.145 1134.69 174.496ZM1140.02 168.234H1141.04V173.061H1142.65V167.934H1143.67V180.088H1142.65V173.949H1141.04V179.486H1140.02V168.234ZM1160.07 178.502H1148.94V177.613H1153.91V174.633H1154.97V177.613H1160.07V178.502ZM1149.38 173.881C1150.1 173.758 1150.8 173.491 1151.49 173.081C1152.19 172.671 1152.76 172.167 1153.2 171.57C1153.65 170.973 1153.87 170.349 1153.87 169.697V168.768H1154.99V169.697C1154.99 170.344 1155.22 170.966 1155.66 171.563C1156.12 172.16 1156.69 172.666 1157.39 173.081C1158.1 173.491 1158.8 173.758 1159.52 173.881L1159.04 174.77C1158.41 174.637 1157.79 174.416 1157.19 174.106C1156.58 173.792 1156.04 173.402 1155.55 172.938C1155.07 172.468 1154.7 171.951 1154.45 171.386C1154.19 171.951 1153.82 172.466 1153.33 172.931C1152.85 173.396 1152.31 173.787 1151.71 174.106C1151.1 174.421 1150.48 174.642 1149.85 174.77L1149.38 173.881ZM1171.11 175.18H1170.03V171.994H1167.59V171.105H1170.03V167.934H1171.11V175.18ZM1161.09 174.209C1161.69 173.995 1162.22 173.68 1162.68 173.266C1163.15 172.851 1163.52 172.375 1163.79 171.837C1164.05 171.299 1164.18 170.745 1164.18 170.176V169.725H1161.43V168.822H1167.98V169.725H1165.26V170.162C1165.26 170.686 1165.39 171.194 1165.64 171.687C1165.89 172.179 1166.24 172.616 1166.7 172.999C1167.15 173.377 1167.67 173.667 1168.26 173.867L1167.7 174.729C1167.02 174.482 1166.43 174.118 1165.91 173.635C1165.4 173.152 1165.01 172.593 1164.75 171.96C1164.49 172.671 1164.09 173.298 1163.55 173.84C1163.01 174.382 1162.38 174.792 1161.65 175.07L1161.09 174.209ZM1163.01 177.818C1163.01 177.344 1163.17 176.939 1163.49 176.602C1163.82 176.264 1164.29 176.007 1164.9 175.829C1165.51 175.651 1166.24 175.562 1167.08 175.562C1167.92 175.562 1168.64 175.651 1169.25 175.829C1169.86 176.007 1170.33 176.264 1170.66 176.602C1170.99 176.939 1171.15 177.344 1171.15 177.818C1171.15 178.292 1170.99 178.698 1170.66 179.035C1170.33 179.372 1169.86 179.63 1169.25 179.808C1168.64 179.99 1167.92 180.083 1167.08 180.088C1166.24 180.083 1165.51 179.99 1164.9 179.808C1164.29 179.63 1163.82 179.372 1163.49 179.035C1163.17 178.698 1163.01 178.292 1163.01 177.818ZM1164.07 177.818C1164.07 178.105 1164.19 178.356 1164.43 178.57C1164.66 178.78 1165.01 178.942 1165.45 179.056C1165.9 179.17 1166.44 179.227 1167.05 179.227C1167.67 179.227 1168.21 179.17 1168.67 179.056C1169.12 178.946 1169.47 178.787 1169.72 178.577C1169.96 178.363 1170.09 178.11 1170.09 177.818C1170.09 177.527 1169.97 177.274 1169.73 177.06C1169.48 176.845 1169.14 176.681 1168.68 176.567C1168.23 176.453 1167.7 176.396 1167.08 176.396C1166.46 176.396 1165.92 176.453 1165.47 176.567C1165.02 176.681 1164.68 176.845 1164.43 177.06C1164.19 177.274 1164.07 177.527 1164.07 177.818ZM1177.12 168.822C1177.74 168.822 1178.3 168.943 1178.8 169.185C1179.29 169.426 1179.68 169.763 1179.96 170.196C1180.24 170.629 1180.38 171.124 1180.38 171.68C1180.38 172.236 1180.24 172.73 1179.96 173.163C1179.68 173.596 1179.29 173.933 1178.8 174.175C1178.3 174.416 1177.74 174.537 1177.12 174.537C1176.48 174.537 1175.91 174.416 1175.41 174.175C1174.92 173.933 1174.53 173.596 1174.25 173.163C1173.97 172.73 1173.83 172.236 1173.83 171.68C1173.83 171.124 1173.97 170.629 1174.25 170.196C1174.53 169.763 1174.92 169.426 1175.41 169.185C1175.91 168.943 1176.48 168.822 1177.12 168.822ZM1173.77 176.52C1175.15 176.52 1176.46 176.492 1177.7 176.438C1178.95 176.383 1180.12 176.273 1181.23 176.109L1181.31 176.902C1180.09 177.13 1178.84 177.276 1177.57 177.34C1176.31 177.404 1174.9 177.436 1173.36 177.436L1173.21 176.52H1173.77ZM1174.89 171.68C1174.89 172.053 1174.98 172.386 1175.17 172.678C1175.36 172.965 1175.62 173.19 1175.96 173.354C1176.3 173.514 1176.69 173.594 1177.12 173.594C1177.54 173.594 1177.92 173.514 1178.26 173.354C1178.59 173.19 1178.86 172.965 1179.04 172.678C1179.23 172.386 1179.33 172.053 1179.33 171.68C1179.33 171.311 1179.23 170.98 1179.04 170.688C1178.86 170.397 1178.59 170.171 1178.26 170.012C1177.92 169.848 1177.54 169.766 1177.12 169.766C1176.69 169.766 1176.3 169.848 1175.96 170.012C1175.62 170.171 1175.36 170.397 1175.17 170.688C1174.98 170.98 1174.89 171.311 1174.89 171.68ZM1182.04 167.934H1183.1V180.115H1182.04V167.934ZM1192.81 169.902C1192.81 170.445 1192.94 170.969 1193.19 171.475C1193.45 171.976 1193.81 172.418 1194.27 172.801C1194.73 173.184 1195.25 173.475 1195.83 173.676L1195.24 174.523C1194.57 174.277 1193.98 173.915 1193.47 173.437C1192.97 172.953 1192.58 172.393 1192.31 171.755C1192.05 172.475 1191.66 173.104 1191.14 173.642C1190.61 174.179 1189.99 174.587 1189.28 174.865L1188.71 174.004C1189.31 173.781 1189.84 173.459 1190.3 173.04C1190.76 172.621 1191.12 172.135 1191.38 171.584C1191.63 171.028 1191.76 170.44 1191.76 169.82V168.562H1192.81V169.902ZM1190.32 177.846C1190.32 177.385 1190.48 176.991 1190.81 176.663C1191.13 176.33 1191.6 176.077 1192.2 175.904C1192.81 175.731 1193.53 175.645 1194.36 175.645C1195.18 175.645 1195.9 175.731 1196.5 175.904C1197.1 176.077 1197.56 176.33 1197.88 176.663C1198.2 176.991 1198.36 177.385 1198.36 177.846C1198.36 178.315 1198.2 178.714 1197.88 179.042C1197.56 179.375 1197.1 179.628 1196.5 179.801C1195.9 179.974 1195.18 180.061 1194.36 180.061C1193.52 180.061 1192.8 179.974 1192.2 179.801C1191.59 179.628 1191.13 179.375 1190.81 179.042C1190.48 178.709 1190.32 178.311 1190.32 177.846ZM1191.4 177.846C1191.4 178.128 1191.51 178.372 1191.75 178.577C1191.99 178.782 1192.33 178.939 1192.77 179.049C1193.22 179.158 1193.74 179.213 1194.36 179.213C1194.97 179.213 1195.49 179.158 1195.93 179.049C1196.38 178.939 1196.72 178.782 1196.96 178.577C1197.2 178.372 1197.32 178.128 1197.32 177.846C1197.32 177.572 1197.2 177.335 1196.96 177.135C1196.72 176.93 1196.38 176.775 1195.93 176.67C1195.49 176.561 1194.96 176.506 1194.36 176.506C1193.75 176.506 1193.22 176.561 1192.78 176.67C1192.33 176.779 1191.99 176.934 1191.75 177.135C1191.51 177.335 1191.4 177.572 1191.4 177.846ZM1197.19 167.934H1198.25V171.105H1200.08V172.008H1198.25V175.33H1197.19V167.934ZM1211.92 174.701H1206.91V176.137H1210.57V179.924H1202.2V176.137H1205.85V174.701H1200.85V173.812H1211.92V174.701ZM1201.89 168.33H1210.87V169.219H1209V171.775H1210.83V172.664H1201.93V171.775H1203.76V169.219H1201.89V168.33ZM1209.52 179.049V176.984H1203.27V179.049H1209.52ZM1207.93 171.775V169.219H1204.83V171.775H1207.93ZM1218.49 168.152C1219.38 168.152 1220.15 168.234 1220.8 168.398C1221.44 168.558 1221.93 168.795 1222.27 169.109C1222.61 169.419 1222.78 169.798 1222.78 170.244C1222.78 170.7 1222.61 171.087 1222.27 171.406C1221.93 171.725 1221.44 171.967 1220.8 172.131C1220.16 172.29 1219.39 172.372 1218.49 172.377C1217.58 172.372 1216.8 172.29 1216.16 172.131C1215.52 171.967 1215.03 171.725 1214.69 171.406C1214.35 171.087 1214.18 170.7 1214.18 170.244C1214.18 169.798 1214.35 169.419 1214.69 169.109C1215.03 168.795 1215.52 168.558 1216.16 168.398C1216.81 168.234 1217.58 168.152 1218.49 168.152ZM1212.95 173.197H1224.02V174.072H1212.95V173.197ZM1214.29 175.125H1222.6V177.846H1215.38V179.104H1222.97V179.951H1214.32V177.053H1221.55V175.945H1214.29V175.125ZM1215.3 170.244C1215.3 170.663 1215.57 170.987 1216.13 171.215C1216.68 171.443 1217.47 171.557 1218.49 171.557C1219.5 171.557 1220.28 171.445 1220.84 171.222C1221.4 170.994 1221.68 170.668 1221.69 170.244C1221.69 169.98 1221.56 169.752 1221.3 169.561C1221.05 169.369 1220.69 169.221 1220.2 169.116C1219.72 169.011 1219.15 168.959 1218.49 168.959C1217.82 168.959 1217.24 169.011 1216.76 169.116C1216.29 169.221 1215.92 169.369 1215.67 169.561C1215.42 169.752 1215.3 169.98 1215.3 170.244ZM1234.8 169.451C1234.8 169.934 1234.99 170.388 1235.38 170.812C1235.77 171.231 1236.29 171.586 1236.93 171.878C1237.57 172.165 1238.26 172.359 1238.98 172.459L1238.56 173.307C1237.9 173.211 1237.26 173.04 1236.66 172.794C1236.07 172.548 1235.54 172.24 1235.09 171.871C1234.64 171.497 1234.31 171.08 1234.1 170.62C1233.89 171.08 1233.55 171.497 1233.1 171.871C1232.65 172.24 1232.13 172.548 1231.54 172.794C1230.94 173.04 1230.31 173.211 1229.64 173.307L1229.25 172.459C1229.97 172.359 1230.65 172.165 1231.28 171.878C1231.92 171.586 1232.43 171.231 1232.82 170.812C1233.21 170.388 1233.4 169.934 1233.4 169.451V169.424H1229.57V168.549H1238.65V169.424H1234.8V169.451ZM1228.55 174.195H1239.68V175.084H1234.73V177.572H1233.66V175.084H1228.55V174.195ZM1229.97 176.355H1231.05V178.926H1238.43V179.828H1229.97V176.355ZM1250.68 180.115H1249.6V167.934H1250.68V180.115ZM1241.37 168.973H1242.44V172.186H1246.06V168.973H1247.12V177.176H1241.37V168.973ZM1246.06 176.273V173.047H1242.44V176.273H1246.06ZM1258.83 170.914H1252.73V170.039H1255.26V168.303H1256.33V170.039H1258.83V170.914ZM1253.17 174.496C1253.17 173.967 1253.28 173.493 1253.51 173.074C1253.73 172.655 1254.05 172.327 1254.44 172.09C1254.84 171.853 1255.29 171.734 1255.78 171.734C1256.29 171.734 1256.74 171.853 1257.14 172.09C1257.54 172.327 1257.85 172.655 1258.07 173.074C1258.3 173.489 1258.42 173.963 1258.42 174.496C1258.42 175.034 1258.3 175.515 1258.07 175.938C1257.85 176.358 1257.54 176.688 1257.14 176.93C1256.74 177.167 1256.29 177.285 1255.78 177.285C1255.29 177.285 1254.84 177.167 1254.44 176.93C1254.04 176.688 1253.73 176.358 1253.51 175.938C1253.28 175.515 1253.17 175.034 1253.17 174.496ZM1254.13 174.496C1254.13 174.852 1254.2 175.171 1254.34 175.453C1254.48 175.731 1254.68 175.95 1254.93 176.109C1255.18 176.264 1255.46 176.342 1255.78 176.342C1256.1 176.342 1256.39 176.264 1256.64 176.109C1256.9 175.95 1257.1 175.731 1257.25 175.453C1257.39 175.171 1257.46 174.852 1257.46 174.496C1257.46 174.145 1257.39 173.831 1257.25 173.553C1257.1 173.27 1256.9 173.049 1256.64 172.89C1256.39 172.726 1256.1 172.641 1255.78 172.637C1255.46 172.641 1255.18 172.726 1254.93 172.89C1254.68 173.049 1254.48 173.27 1254.34 173.553C1254.2 173.831 1254.13 174.145 1254.13 174.496ZM1259.46 168.234H1260.47V173.061H1262.09V167.934H1263.11V180.088H1262.09V173.949H1260.47V179.486H1259.46V168.234ZM1278.4 175.631H1277.33V174.879H1274.77V174.127H1277.33V167.934H1278.4V175.631ZM1268.98 172.787C1270.33 172.787 1271.61 172.764 1272.8 172.719C1273.99 172.669 1275.12 172.573 1276.17 172.432L1276.24 173.184C1275.17 173.357 1273.99 173.482 1272.67 173.56V175.535H1271.6V173.607C1270.89 173.635 1270.05 173.648 1269.07 173.648H1268.44L1268.31 172.787H1268.98ZM1269.03 179.131C1269.53 178.976 1269.97 178.75 1270.34 178.454C1270.72 178.153 1271 177.814 1271.21 177.436C1271.41 177.053 1271.51 176.661 1271.52 176.26V176.027H1272.53V176.26C1272.53 176.597 1272.6 176.939 1272.73 177.285C1272.86 177.627 1273.06 177.951 1273.32 178.256C1273.59 178.557 1273.91 178.81 1274.28 179.015C1274.65 178.81 1274.96 178.557 1275.22 178.256C1275.48 177.951 1275.68 177.625 1275.81 177.278C1275.94 176.932 1276.01 176.592 1276.02 176.26V176.027H1277.08V176.26C1277.08 176.661 1277.18 177.053 1277.37 177.436C1277.57 177.814 1277.86 178.153 1278.23 178.454C1278.61 178.75 1279.05 178.976 1279.56 179.131L1279.03 179.951C1278.43 179.751 1277.92 179.457 1277.5 179.069C1277.08 178.687 1276.76 178.244 1276.54 177.743C1276.35 178.254 1276.06 178.709 1275.68 179.11C1275.3 179.516 1274.83 179.824 1274.28 180.033C1273.73 179.824 1273.26 179.518 1272.87 179.117C1272.49 178.721 1272.21 178.267 1272.01 177.757C1271.8 178.258 1271.48 178.7 1271.06 179.083C1270.64 179.466 1270.14 179.755 1269.55 179.951L1269.03 179.131ZM1269.55 168.262H1275.03V169.123H1270.63V170.969H1275.09V171.83H1269.55V168.262ZM1286.01 168.727C1286.85 168.727 1287.61 168.868 1288.29 169.15C1288.96 169.428 1289.49 169.82 1289.87 170.326C1290.26 170.827 1290.46 171.406 1290.46 172.062C1290.46 172.723 1290.26 173.309 1289.87 173.819C1289.49 174.325 1288.96 174.717 1288.29 174.995C1287.61 175.269 1286.85 175.403 1286.01 175.398C1285.17 175.403 1284.41 175.269 1283.74 174.995C1283.06 174.717 1282.53 174.325 1282.14 173.819C1281.76 173.309 1281.57 172.723 1281.57 172.062C1281.57 171.406 1281.76 170.827 1282.14 170.326C1282.53 169.82 1283.06 169.428 1283.74 169.15C1284.41 168.868 1285.17 168.727 1286.01 168.727ZM1280.47 177.572H1291.6V178.475H1280.47V177.572ZM1282.59 172.062C1282.59 172.546 1282.74 172.974 1283.03 173.348C1283.33 173.721 1283.74 174.011 1284.25 174.216C1284.77 174.421 1285.36 174.523 1286.01 174.523C1286.66 174.523 1287.24 174.421 1287.75 174.216C1288.27 174.011 1288.68 173.721 1288.97 173.348C1289.27 172.974 1289.42 172.546 1289.42 172.062C1289.42 171.584 1289.27 171.158 1288.97 170.784C1288.68 170.41 1288.27 170.121 1287.75 169.916C1287.23 169.706 1286.65 169.602 1286.01 169.602C1285.36 169.602 1284.78 169.706 1284.25 169.916C1283.74 170.121 1283.33 170.41 1283.03 170.784C1282.74 171.158 1282.59 171.584 1282.59 172.062ZM1302.6 180.088H1301.53V167.934H1302.6V180.088ZM1293.37 169.137H1294.42V176.027C1295.42 176.018 1296.4 175.97 1297.35 175.884C1298.31 175.793 1299.26 175.645 1300.23 175.439L1300.38 176.355C1299.35 176.57 1298.34 176.725 1297.36 176.82C1296.38 176.911 1295.38 176.957 1294.35 176.957H1293.37V169.137ZM1317.69 170.682H1319.52V171.584H1317.69V174.168H1316.62V167.934H1317.69V170.682ZM1308.71 168.74H1314.33V173.689H1308.71V168.74ZM1309.49 175.262H1310.53V178.878C1311.47 178.841 1312.3 178.702 1313.03 178.461L1313.19 179.322C1312.28 179.623 1311.23 179.769 1310.06 179.76H1309.49V175.262ZM1313.29 172.828V169.615H1309.76V172.828H1313.29ZM1312.77 175.385H1315.32V174.305H1316.38V175.385H1318.91V176.205H1312.77V175.385ZM1313.57 178.352C1313.57 178.005 1313.67 177.704 1313.85 177.449C1314.04 177.189 1314.31 176.991 1314.65 176.854C1314.99 176.713 1315.38 176.643 1315.83 176.643C1316.27 176.643 1316.66 176.713 1317.01 176.854C1317.35 176.991 1317.62 177.189 1317.81 177.449C1318.01 177.704 1318.11 178.005 1318.11 178.352C1318.11 178.698 1318.01 178.999 1317.81 179.254C1317.62 179.514 1317.35 179.712 1317.01 179.849C1316.66 179.99 1316.27 180.061 1315.83 180.061C1315.38 180.061 1314.99 179.99 1314.65 179.849C1314.31 179.712 1314.04 179.514 1313.85 179.254C1313.67 178.999 1313.57 178.698 1313.57 178.352ZM1314.53 178.352C1314.53 178.639 1314.65 178.869 1314.89 179.042C1315.14 179.22 1315.45 179.304 1315.83 179.295C1316.21 179.304 1316.53 179.22 1316.77 179.042C1317.01 178.869 1317.13 178.639 1317.13 178.352C1317.13 178.069 1317.01 177.843 1316.77 177.675C1316.53 177.502 1316.21 177.413 1315.83 177.408C1315.45 177.413 1315.14 177.502 1314.89 177.675C1314.65 177.843 1314.53 178.069 1314.53 178.352ZM1331.36 175.221H1320.29V174.346H1331.36V175.221ZM1321.52 170.777C1321.52 170.276 1321.69 169.843 1322.04 169.479C1322.39 169.114 1322.89 168.838 1323.53 168.651C1324.19 168.46 1324.95 168.367 1325.82 168.371C1326.69 168.367 1327.45 168.46 1328.09 168.651C1328.74 168.838 1329.24 169.114 1329.59 169.479C1329.94 169.843 1330.12 170.276 1330.12 170.777C1330.12 171.274 1329.94 171.705 1329.58 172.069C1329.23 172.434 1328.73 172.714 1328.09 172.91C1327.44 173.102 1326.69 173.197 1325.82 173.197C1324.95 173.197 1324.19 173.102 1323.54 172.91C1322.89 172.714 1322.39 172.434 1322.04 172.069C1321.69 171.705 1321.52 171.274 1321.52 170.777ZM1321.72 176.287H1322.8V178.926H1330.13V179.828H1321.72V176.287ZM1322.62 170.777C1322.62 171.096 1322.75 171.372 1323.01 171.604C1323.27 171.837 1323.64 172.015 1324.12 172.138C1324.61 172.261 1325.17 172.322 1325.82 172.322C1326.47 172.322 1327.03 172.261 1327.51 172.138C1328 172.015 1328.37 171.837 1328.63 171.604C1328.89 171.372 1329.02 171.096 1329.02 170.777C1329.02 170.463 1328.89 170.189 1328.63 169.957C1328.37 169.725 1328 169.547 1327.51 169.424C1327.03 169.296 1326.47 169.232 1325.82 169.232C1325.18 169.232 1324.61 169.296 1324.13 169.424C1323.65 169.547 1323.27 169.725 1323.01 169.957C1322.75 170.189 1322.62 170.463 1322.62 170.777ZM1340.04 170.463C1340.04 170.955 1340.17 171.424 1340.42 171.871C1340.67 172.313 1341.03 172.703 1341.49 173.04C1341.94 173.377 1342.47 173.635 1343.06 173.812L1342.56 174.66C1341.86 174.441 1341.25 174.116 1340.72 173.683C1340.2 173.245 1339.8 172.732 1339.53 172.145C1339.27 172.787 1338.86 173.348 1338.33 173.826C1337.79 174.305 1337.16 174.66 1336.43 174.893L1335.9 174.045C1336.5 173.863 1337.04 173.594 1337.5 173.238C1337.97 172.878 1338.33 172.459 1338.59 171.98C1338.86 171.502 1338.99 170.996 1338.99 170.463V170.244H1336.24V169.383H1338.99V167.879H1340.07V169.383H1342.79V170.244H1340.04V170.463ZM1337.73 175.699H1345.4V179.924H1337.73V175.699ZM1344.34 179.049V176.547H1338.79V179.049H1344.34ZM1344.34 167.934H1345.4V171.023H1347.23V171.926H1345.4V175.139H1344.34V167.934ZM1351.27 168.877C1351.82 168.882 1352.32 169.039 1352.76 169.349C1353.2 169.654 1353.55 170.089 1353.82 170.654H1357.01V167.934H1358.08V180.115H1357.01V175.398H1353.89C1353.64 176.018 1353.28 176.499 1352.83 176.841C1352.37 177.178 1351.85 177.344 1351.27 177.34C1350.67 177.34 1350.14 177.169 1349.67 176.827C1349.21 176.481 1348.86 175.989 1348.6 175.351C1348.35 174.713 1348.22 173.967 1348.22 173.115C1348.22 172.268 1348.35 171.525 1348.6 170.887C1348.86 170.244 1349.21 169.75 1349.67 169.403C1350.14 169.052 1350.67 168.877 1351.27 168.877ZM1349.24 173.115C1349.24 173.767 1349.33 174.341 1349.5 174.838C1349.67 175.33 1349.91 175.711 1350.21 175.979C1350.52 176.248 1350.87 176.383 1351.27 176.383C1351.66 176.383 1352.01 176.248 1352.31 175.979C1352.62 175.711 1352.86 175.328 1353.03 174.831C1353.2 174.334 1353.29 173.762 1353.29 173.115C1353.29 172.468 1353.2 171.896 1353.03 171.399C1352.86 170.903 1352.62 170.518 1352.31 170.244C1352.01 169.971 1351.66 169.834 1351.27 169.834C1350.87 169.834 1350.52 169.971 1350.21 170.244C1349.91 170.518 1349.67 170.903 1349.5 171.399C1349.33 171.892 1349.24 172.464 1349.24 173.115ZM1354.12 171.557C1354.24 172.04 1354.3 172.559 1354.3 173.115C1354.3 173.612 1354.26 174.077 1354.17 174.51H1357.01V171.557H1354.12ZM1374.73 176.027H1369.66V180.088H1368.6V176.027H1363.6V175.152H1374.73V176.027ZM1365.02 168.439H1366.09V170.121H1372.21V168.439H1373.29V173.676H1365.02V168.439ZM1372.21 172.801V170.996H1366.09V172.801H1372.21ZM1381.88 169.656H1377.35V171.242H1381.65V172.09H1377.35V173.771C1378.58 173.771 1379.58 173.749 1380.35 173.703C1381.12 173.653 1381.9 173.557 1382.67 173.416L1382.79 174.305C1382.06 174.432 1381.32 174.519 1380.59 174.564C1379.86 174.61 1378.95 174.633 1377.86 174.633H1377.2H1376.29V168.768H1381.88V169.656ZM1377.26 175.904H1385.21V180.088H1384.15V176.779H1377.26V175.904ZM1384.15 167.934H1385.21V171.174H1387.05V172.09H1385.21V175.303H1384.15V167.934ZM1397.63 174.674H1389.23V169.068H1397.51V169.957H1390.3V173.785H1397.63V174.674ZM1387.81 177.531H1398.94V178.434H1387.81V177.531ZM1409.95 174.619H1408.88V167.947H1409.95V174.619ZM1400.53 168.535H1406.08V171.816H1401.59V173.471C1402.83 173.462 1403.87 173.434 1404.72 173.389C1405.57 173.339 1406.45 173.238 1407.36 173.088L1407.49 173.977C1406.53 174.127 1405.61 174.229 1404.72 174.284C1403.84 174.334 1402.78 174.364 1401.54 174.373H1400.55V170.969H1405.01V169.424H1400.53V168.535ZM1402.04 175.234H1403.12V176.684H1408.88V175.234H1409.95V179.924H1402.04V175.234ZM1408.88 179.049V177.545H1403.12V179.049H1408.88ZM1422.03 180.088H1420.97V167.934H1422.03V180.088ZM1412.8 169.137H1413.86V176.027C1414.86 176.018 1415.84 175.97 1416.79 175.884C1417.74 175.793 1418.7 175.645 1419.67 175.439L1419.82 176.355C1418.78 176.57 1417.78 176.725 1416.8 176.82C1415.82 176.911 1414.82 176.957 1413.79 176.957H1412.8V169.137ZM1433.52 172.746H1435.55V173.648H1433.52V180.115H1432.45V167.934H1433.52V172.746ZM1424.64 169.123H1430.32V170.012H1425.71V176.164C1426.86 176.16 1427.86 176.125 1428.7 176.062C1429.54 175.998 1430.4 175.886 1431.28 175.727L1431.41 176.656C1430.51 176.82 1429.63 176.93 1428.76 176.984C1427.9 177.039 1426.85 177.066 1425.6 177.066H1424.64V169.123ZM1438.08 176.191H1436.94L1436.84 169.082H1438.18L1438.08 176.191ZM1436.63 178.174C1436.63 178.019 1436.67 177.875 1436.74 177.743C1436.83 177.606 1436.93 177.499 1437.07 177.422C1437.2 177.34 1437.35 177.299 1437.51 177.299C1437.66 177.299 1437.81 177.338 1437.94 177.415C1438.08 177.493 1438.18 177.597 1438.26 177.729C1438.34 177.862 1438.38 178.005 1438.38 178.16C1438.38 178.406 1438.3 178.618 1438.13 178.796C1437.96 178.969 1437.76 179.058 1437.51 179.062C1437.35 179.062 1437.2 179.021 1437.07 178.939C1436.93 178.857 1436.83 178.75 1436.74 178.618C1436.67 178.481 1436.63 178.333 1436.63 178.174Z" fill="#5A5C5F"/>
<rect x="1080.92" y="205.98" width="169" height="54" rx="10" fill="#7B6AE6"/>
<path d="M1110.88 225.602H1108.64V227.992H1105.64V229.768H1108.64V233.74H1110.88V225.602ZM1097.27 232.088L1098.43 233.863C1100.3 233.274 1101.56 232.079 1102.26 230.541C1102.96 231.912 1104.15 232.984 1105.87 233.529L1107.04 231.807C1104.5 231.051 1103.38 229.196 1103.39 227.289V226.129H1101.12V227.289C1101.11 229.354 1099.93 231.306 1097.27 232.088ZM1100.24 236.131H1108.66V237.045H1100.26V241.422H1111.33V239.664H1102.47V238.68H1110.88V234.408H1100.24V236.131ZM1127.58 233.512H1112.93V235.287H1119.33V238.047H1121.55V235.287H1127.58V233.512ZM1114.66 241.316H1125.96V239.523H1116.89V236.658H1114.66V241.316ZM1114.76 232.193H1125.7V226.305H1114.76V232.193ZM1116.96 230.453V228.045H1123.5V230.453H1116.96ZM1147.3 237.924H1141.09V234.355H1138.84V237.924H1132.66V239.734H1147.3V237.924ZM1133.25 233.283L1134.13 235.059C1136.89 234.558 1138.95 233.143 1139.96 231.218C1141 233.116 1143.07 234.479 1145.88 234.971L1146.75 233.195C1143.33 232.694 1141.32 230.734 1141.15 228.625H1146.02V226.814H1133.87V228.625H1138.76C1138.56 230.743 1136.58 232.747 1133.25 233.283ZM1154.1 229.223V226.832H1151.85V229.223C1151.85 232.193 1150.58 235.252 1147.86 236.5L1149.25 238.311C1151.06 237.414 1152.29 235.718 1152.99 233.652C1153.65 235.577 1154.81 237.159 1156.53 238.012L1157.88 236.219C1155.31 234.979 1154.09 232.088 1154.1 229.223ZM1158.58 241.598H1160.83V233.67H1163.19V231.771H1160.83V225.602H1158.58V241.598ZM1180.54 225.602H1178.32V241.598H1180.54V233.705H1182.89V231.859H1180.54V225.602ZM1167.83 229.785H1177.23V227.992H1173.7V225.848H1171.45V227.992H1167.83V229.785ZM1168.48 234.496C1168.47 236.729 1170.21 238.302 1172.58 238.311C1174.91 238.302 1176.65 236.729 1176.65 234.496C1176.65 232.264 1174.91 230.673 1172.58 230.682C1170.21 230.673 1168.47 232.264 1168.48 234.496ZM1170.62 234.496C1170.62 233.266 1171.44 232.51 1172.58 232.492C1173.69 232.51 1174.51 233.266 1174.51 234.496C1174.51 235.735 1173.69 236.474 1172.58 236.465C1171.44 236.474 1170.62 235.735 1170.62 234.496ZM1196.96 225.602H1194.72V231.367H1192.14V233.195H1194.72V241.633H1196.96V225.602ZM1184 228.748H1189.06V231.156H1184.04V237.906H1185.36C1188.04 237.915 1190.21 237.827 1192.58 237.432L1192.4 235.604C1190.34 235.964 1188.48 236.043 1186.27 236.061V232.932H1191.24V226.938H1184V228.748ZM1215.8 225.602H1213.55V241.562H1215.8V233.582H1218.07V231.736H1215.8V225.602ZM1203 237.08L1204.27 238.803C1209.65 236.157 1211.51 232.018 1211.53 227.236H1203.92V229.064H1209.25C1208.83 232.633 1206.79 235.182 1203 237.08ZM1232.18 225.602H1229.92V241.598H1232.18V225.602ZM1218.79 237.062L1219.97 238.855C1225.68 236.157 1227.38 232.123 1227.38 227.271H1219.65V229.029H1225.1C1224.74 232.58 1222.92 235.111 1218.79 237.062Z" fill="white"/>
<defs>
<clipPath id="clip0_1121_37145">
<rect width="350" height="284.73" fill="white" transform="translate(480.92 18.1152)"/>
</clipPath>
</defs>
</svg>
